M48
;DRILL file {KiCad 4.0.1-stable} date 28/05/2016 22:33:34
;FORMAT={-:-/ absolute / inch / decimal}
FMAT,2
INCH,TZ
T1C0.016
T2C0.032
T3C0.039
%
G90
G05
M72
T1
X4.25Y-2.55
X4.4Y-4.3
T2
X3.15Y-3.875
X3.55Y-3.875
X3.7Y-3.
X3.7Y-3.4
X3.95Y-4.65
X4.35Y-3.2
X4.35Y-3.6
X4.45Y-4.65
X4.575Y-2.825
X4.575Y-3.225
T3
X2.9Y-3.9
X3.Y-3.9
X3.2Y-2.975
X3.3Y-2.975
X3.525Y-2.15
X3.625Y-2.15
X4.15Y-1.625
X4.15Y-3.2
X4.25Y-1.625
X4.25Y-3.2
X4.8Y-2.15
X4.9Y-2.15
X5.1Y-2.95
X5.2Y-2.95
X5.2Y-3.9
X5.3Y-3.9
T0
M30
