G04 #@! TF.FileFunction,Legend,Bot*
%FSLAX46Y46*%
G04 Gerber Fmt 4.6, Leading zero omitted, Abs format (unit mm)*
G04 Created by KiCad (PCBNEW 4.0.1-stable) date 28/05/2016 22:33:24*
%MOMM*%
G01*
G04 APERTURE LIST*
%ADD10C,0.100000*%
%ADD11C,0.190500*%
%ADD12C,0.127000*%
%ADD13C,0.150000*%
%ADD14C,0.088900*%
%ADD15C,0.119380*%
%ADD16C,0.175000*%
G04 APERTURE END LIST*
D10*
D11*
X109982000Y-101854000D02*
X102171500Y-101854000D01*
X110045500Y-107696000D02*
X102171500Y-107696000D01*
X109918500Y-101854000D02*
X111188500Y-101854000D01*
X109918500Y-107696000D02*
X111188500Y-107696000D01*
X105346500Y-102362000D02*
X108902500Y-102362000D01*
X105283000Y-107188000D02*
X109093000Y-107188000D01*
X105473500Y-102362000D02*
X104140000Y-102362000D01*
X105473500Y-107188000D02*
X104140000Y-107188000D01*
X110413800Y-102626160D02*
X110413800Y-103116380D01*
X110413800Y-103116380D02*
X109313980Y-103116380D01*
X109313980Y-102626160D02*
X109313980Y-103116380D01*
X110413800Y-102626160D02*
X109313980Y-102626160D01*
X110413800Y-103896160D02*
X110413800Y-104386380D01*
X110413800Y-104386380D02*
X109313980Y-104386380D01*
X109313980Y-103896160D02*
X109313980Y-104386380D01*
X110413800Y-103896160D02*
X109313980Y-103896160D01*
X110413800Y-105163620D02*
X110413800Y-105653840D01*
X110413800Y-105653840D02*
X109313980Y-105653840D01*
X109313980Y-105163620D02*
X109313980Y-105653840D01*
X110413800Y-105163620D02*
X109313980Y-105163620D01*
X110413800Y-106433620D02*
X110413800Y-106923840D01*
X110413800Y-106923840D02*
X109313980Y-106923840D01*
X109313980Y-106433620D02*
X109313980Y-106923840D01*
X110413800Y-106433620D02*
X109313980Y-106433620D01*
X104046020Y-106433620D02*
X104046020Y-106923840D01*
X104046020Y-106923840D02*
X102946200Y-106923840D01*
X102946200Y-106433620D02*
X102946200Y-106923840D01*
X104046020Y-106433620D02*
X102946200Y-106433620D01*
X104046020Y-105163620D02*
X104046020Y-105653840D01*
X104046020Y-105653840D02*
X102946200Y-105653840D01*
X102946200Y-105163620D02*
X102946200Y-105653840D01*
X104046020Y-105163620D02*
X102946200Y-105163620D01*
X104046020Y-103896160D02*
X104046020Y-104386380D01*
X104046020Y-104386380D02*
X102946200Y-104386380D01*
X102946200Y-103896160D02*
X102946200Y-104386380D01*
X104046020Y-103896160D02*
X102946200Y-103896160D01*
X104046020Y-102626160D02*
X104046020Y-103116380D01*
X104046020Y-103116380D02*
X102946200Y-103116380D01*
X102946200Y-102626160D02*
X102946200Y-103116380D01*
X104046020Y-102626160D02*
X102946200Y-102626160D01*
X102146100Y-101876860D02*
X102146100Y-107673140D01*
X111213900Y-107673140D02*
X111213900Y-101876860D01*
X108714540Y-107172760D02*
X109214920Y-107172760D01*
X109214920Y-107172760D02*
X109214920Y-102377240D01*
X109214920Y-102377240D02*
X108714540Y-102377240D01*
X104145080Y-102377240D02*
X104145080Y-107172760D01*
X108714540Y-107172760D02*
X108714540Y-102377240D01*
X107155553Y-102870000D02*
G75*
G03X107155553Y-102870000I-158053J0D01*
G01*
D12*
X105283000Y-97231200D02*
X105283000Y-98856800D01*
X102997000Y-98856800D02*
X102997000Y-97231200D01*
X102539800Y-98856800D02*
X102539800Y-97231200D01*
X102539800Y-97231200D02*
X105740200Y-97231200D01*
X105740200Y-97231200D02*
X105740200Y-98856800D01*
X105740200Y-98856800D02*
X102539800Y-98856800D01*
X111125000Y-97231200D02*
X111125000Y-98856800D01*
X108839000Y-98856800D02*
X108839000Y-97231200D01*
X108381800Y-98856800D02*
X108381800Y-97231200D01*
X108381800Y-97231200D02*
X111582200Y-97231200D01*
X111582200Y-97231200D02*
X111582200Y-98856800D01*
X111582200Y-98856800D02*
X108381800Y-98856800D01*
X112903000Y-110426500D02*
X115697000Y-110426500D01*
X112903000Y-110998000D02*
X112903000Y-107442000D01*
X112903000Y-107442000D02*
X115697000Y-107442000D01*
X115697000Y-107442000D02*
X115697000Y-110998000D01*
X115697000Y-110998000D02*
X112903000Y-110998000D01*
D13*
X116205000Y-71755000D02*
X116205000Y-72771000D01*
X116205000Y-72771000D02*
X115189000Y-72771000D01*
X115189000Y-72771000D02*
X115189000Y-80899000D01*
X115189000Y-80899000D02*
X117221000Y-80899000D01*
X117221000Y-80899000D02*
X117221000Y-72771000D01*
X117221000Y-72771000D02*
X116205000Y-72771000D01*
X115697000Y-72771000D02*
X115189000Y-73279000D01*
X116205000Y-81915000D02*
X116205000Y-80899000D01*
X110490000Y-91440000D02*
X110490000Y-90424000D01*
X110490000Y-90424000D02*
X111506000Y-90424000D01*
X111506000Y-90424000D02*
X111506000Y-82296000D01*
X111506000Y-82296000D02*
X109474000Y-82296000D01*
X109474000Y-82296000D02*
X109474000Y-90424000D01*
X109474000Y-90424000D02*
X110490000Y-90424000D01*
X110998000Y-90424000D02*
X111506000Y-89916000D01*
X110490000Y-81280000D02*
X110490000Y-82296000D01*
X93980000Y-86360000D02*
X93980000Y-85344000D01*
X93980000Y-85344000D02*
X94996000Y-85344000D01*
X94996000Y-85344000D02*
X94996000Y-77216000D01*
X94996000Y-77216000D02*
X92964000Y-77216000D01*
X92964000Y-77216000D02*
X92964000Y-85344000D01*
X92964000Y-85344000D02*
X93980000Y-85344000D01*
X94488000Y-85344000D02*
X94996000Y-84836000D01*
X93980000Y-76200000D02*
X93980000Y-77216000D01*
X90170000Y-98425000D02*
X89154000Y-98425000D01*
X89154000Y-98425000D02*
X89154000Y-97409000D01*
X89154000Y-97409000D02*
X81026000Y-97409000D01*
X81026000Y-97409000D02*
X81026000Y-99441000D01*
X81026000Y-99441000D02*
X89154000Y-99441000D01*
X89154000Y-99441000D02*
X89154000Y-98425000D01*
X89154000Y-97917000D02*
X88646000Y-97409000D01*
X80010000Y-98425000D02*
X81026000Y-98425000D01*
D12*
X104267000Y-109283500D02*
X101473000Y-109283500D01*
X104267000Y-108712000D02*
X104267000Y-112268000D01*
X104267000Y-112268000D02*
X101473000Y-112268000D01*
X101473000Y-112268000D02*
X101473000Y-108712000D01*
X101473000Y-108712000D02*
X104267000Y-108712000D01*
D11*
X106649520Y-108491020D02*
X106649520Y-108188760D01*
X106649520Y-110091220D02*
X106649520Y-109489240D01*
X106649520Y-111490760D02*
X106649520Y-110990380D01*
X106649520Y-112791240D02*
X106649520Y-112488980D01*
X109250480Y-111688880D02*
X109250480Y-112791240D01*
X109250480Y-109291120D02*
X109250480Y-108188760D01*
X106649520Y-108188760D02*
X109250480Y-108188760D01*
X109250480Y-112791240D02*
X106649520Y-112791240D01*
D14*
X109072667Y-100192667D02*
X108739333Y-100192667D01*
X109139333Y-100392667D02*
X108906000Y-99692667D01*
X108672667Y-100392667D01*
X108539333Y-99692667D02*
X108139333Y-99692667D01*
X108339333Y-100392667D02*
X108339333Y-99692667D01*
X108006000Y-99692667D02*
X107606000Y-99692667D01*
X107806000Y-100392667D02*
X107806000Y-99692667D01*
X107372667Y-100392667D02*
X107372667Y-99692667D01*
X107039334Y-100392667D02*
X107039334Y-99692667D01*
X106639334Y-100392667D01*
X106639334Y-99692667D01*
X106172668Y-100059333D02*
X106172668Y-100392667D01*
X106406001Y-99692667D02*
X106172668Y-100059333D01*
X105939335Y-99692667D01*
X105339335Y-100392667D02*
X105739335Y-100392667D01*
X105539335Y-100392667D02*
X105539335Y-99692667D01*
X105606001Y-99792667D01*
X105672668Y-99859333D01*
X105739335Y-99892667D01*
X105106001Y-99692667D02*
X104672668Y-99692667D01*
X104906001Y-99959333D01*
X104806001Y-99959333D01*
X104739334Y-99992667D01*
X104706001Y-100026000D01*
X104672668Y-100092667D01*
X104672668Y-100259333D01*
X104706001Y-100326000D01*
X104739334Y-100359333D01*
X104806001Y-100392667D01*
X105006001Y-100392667D01*
X105072668Y-100359333D01*
X105106001Y-100326000D01*
X104406001Y-100192667D02*
X104072667Y-100192667D01*
X104472667Y-100392667D02*
X104239334Y-99692667D01*
X104006001Y-100392667D01*
X103772667Y-100126000D02*
X103239334Y-100126000D01*
X102939334Y-100359333D02*
X102839334Y-100392667D01*
X102672667Y-100392667D01*
X102606000Y-100359333D01*
X102572667Y-100326000D01*
X102539334Y-100259333D01*
X102539334Y-100192667D01*
X102572667Y-100126000D01*
X102606000Y-100092667D01*
X102672667Y-100059333D01*
X102806000Y-100026000D01*
X102872667Y-99992667D01*
X102906000Y-99959333D01*
X102939334Y-99892667D01*
X102939334Y-99826000D01*
X102906000Y-99759333D01*
X102872667Y-99726000D01*
X102806000Y-99692667D01*
X102639334Y-99692667D01*
X102539334Y-99726000D01*
X102139333Y-100392667D02*
X102206000Y-100359333D01*
X102239333Y-100326000D01*
X102272667Y-100259333D01*
X102272667Y-100059333D01*
X102239333Y-99992667D01*
X102206000Y-99959333D01*
X102139333Y-99926000D01*
X102039333Y-99926000D01*
X101972667Y-99959333D01*
X101939333Y-99992667D01*
X101906000Y-100059333D01*
X101906000Y-100259333D01*
X101939333Y-100326000D01*
X101972667Y-100359333D01*
X102039333Y-100392667D01*
X102139333Y-100392667D01*
X101506000Y-99992667D02*
X101572667Y-99959333D01*
X101606000Y-99926000D01*
X101639334Y-99859333D01*
X101639334Y-99826000D01*
X101606000Y-99759333D01*
X101572667Y-99726000D01*
X101506000Y-99692667D01*
X101372667Y-99692667D01*
X101306000Y-99726000D01*
X101272667Y-99759333D01*
X101239334Y-99826000D01*
X101239334Y-99859333D01*
X101272667Y-99926000D01*
X101306000Y-99959333D01*
X101372667Y-99992667D01*
X101506000Y-99992667D01*
X101572667Y-100026000D01*
X101606000Y-100059333D01*
X101639334Y-100126000D01*
X101639334Y-100259333D01*
X101606000Y-100326000D01*
X101572667Y-100359333D01*
X101506000Y-100392667D01*
X101372667Y-100392667D01*
X101306000Y-100359333D01*
X101272667Y-100326000D01*
X101239334Y-100259333D01*
X101239334Y-100126000D01*
X101272667Y-100059333D01*
X101306000Y-100026000D01*
X101372667Y-99992667D01*
D15*
X104223396Y-96238362D02*
X104390190Y-96000086D01*
X104509328Y-96238362D02*
X104509328Y-95737982D01*
X104318707Y-95737982D01*
X104271052Y-95761810D01*
X104247224Y-95785638D01*
X104223396Y-95833293D01*
X104223396Y-95904776D01*
X104247224Y-95952431D01*
X104271052Y-95976259D01*
X104318707Y-96000086D01*
X104509328Y-96000086D01*
X103985120Y-96238362D02*
X103889810Y-96238362D01*
X103842155Y-96214535D01*
X103818327Y-96190707D01*
X103770672Y-96119224D01*
X103746844Y-96023914D01*
X103746844Y-95833293D01*
X103770672Y-95785638D01*
X103794499Y-95761810D01*
X103842155Y-95737982D01*
X103937465Y-95737982D01*
X103985120Y-95761810D01*
X104008948Y-95785638D01*
X104032776Y-95833293D01*
X104032776Y-95952431D01*
X104008948Y-96000086D01*
X103985120Y-96023914D01*
X103937465Y-96047741D01*
X103842155Y-96047741D01*
X103794499Y-96023914D01*
X103770672Y-96000086D01*
X103746844Y-95952431D01*
X110065396Y-94920707D02*
X110089224Y-94944535D01*
X110160707Y-94968362D01*
X110208362Y-94968362D01*
X110279845Y-94944535D01*
X110327500Y-94896880D01*
X110351328Y-94849224D01*
X110375156Y-94753914D01*
X110375156Y-94682431D01*
X110351328Y-94587120D01*
X110327500Y-94539465D01*
X110279845Y-94491810D01*
X110208362Y-94467982D01*
X110160707Y-94467982D01*
X110089224Y-94491810D01*
X110065396Y-94515638D01*
X109588844Y-94968362D02*
X109874776Y-94968362D01*
X109731810Y-94968362D02*
X109731810Y-94467982D01*
X109779465Y-94539465D01*
X109827120Y-94587120D01*
X109874776Y-94610948D01*
X116510707Y-107104604D02*
X116534535Y-107080776D01*
X116558362Y-107009293D01*
X116558362Y-106961638D01*
X116534535Y-106890155D01*
X116486880Y-106842500D01*
X116439224Y-106818672D01*
X116343914Y-106794844D01*
X116272431Y-106794844D01*
X116177120Y-106818672D01*
X116129465Y-106842500D01*
X116081810Y-106890155D01*
X116057982Y-106961638D01*
X116057982Y-107009293D01*
X116081810Y-107080776D01*
X116105638Y-107104604D01*
X116105638Y-107295224D02*
X116081810Y-107319052D01*
X116057982Y-107366707D01*
X116057982Y-107485845D01*
X116081810Y-107533501D01*
X116105638Y-107557328D01*
X116153293Y-107581156D01*
X116200948Y-107581156D01*
X116272431Y-107557328D01*
X116558362Y-107271397D01*
X116558362Y-107581156D01*
D13*
X118562381Y-76287334D02*
X118086190Y-75954000D01*
X118562381Y-75715905D02*
X117562381Y-75715905D01*
X117562381Y-76096858D01*
X117610000Y-76192096D01*
X117657619Y-76239715D01*
X117752857Y-76287334D01*
X117895714Y-76287334D01*
X117990952Y-76239715D01*
X118038571Y-76192096D01*
X118086190Y-76096858D01*
X118086190Y-75715905D01*
X118562381Y-77239715D02*
X118562381Y-76668286D01*
X118562381Y-76954000D02*
X117562381Y-76954000D01*
X117705238Y-76858762D01*
X117800476Y-76763524D01*
X117848095Y-76668286D01*
X112974381Y-88225334D02*
X112498190Y-87892000D01*
X112974381Y-87653905D02*
X111974381Y-87653905D01*
X111974381Y-88034858D01*
X112022000Y-88130096D01*
X112069619Y-88177715D01*
X112164857Y-88225334D01*
X112307714Y-88225334D01*
X112402952Y-88177715D01*
X112450571Y-88130096D01*
X112498190Y-88034858D01*
X112498190Y-87653905D01*
X112069619Y-88606286D02*
X112022000Y-88653905D01*
X111974381Y-88749143D01*
X111974381Y-88987239D01*
X112022000Y-89082477D01*
X112069619Y-89130096D01*
X112164857Y-89177715D01*
X112260095Y-89177715D01*
X112402952Y-89130096D01*
X112974381Y-88558667D01*
X112974381Y-89177715D01*
X96464381Y-81113334D02*
X95988190Y-80780000D01*
X96464381Y-80541905D02*
X95464381Y-80541905D01*
X95464381Y-80922858D01*
X95512000Y-81018096D01*
X95559619Y-81065715D01*
X95654857Y-81113334D01*
X95797714Y-81113334D01*
X95892952Y-81065715D01*
X95940571Y-81018096D01*
X95988190Y-80922858D01*
X95988190Y-80541905D01*
X95464381Y-81446667D02*
X95464381Y-82065715D01*
X95845333Y-81732381D01*
X95845333Y-81875239D01*
X95892952Y-81970477D01*
X95940571Y-82018096D01*
X96035810Y-82065715D01*
X96273905Y-82065715D01*
X96369143Y-82018096D01*
X96416762Y-81970477D01*
X96464381Y-81875239D01*
X96464381Y-81589524D01*
X96416762Y-81494286D01*
X96369143Y-81446667D01*
X85510666Y-96718381D02*
X85844000Y-96242190D01*
X86082095Y-96718381D02*
X86082095Y-95718381D01*
X85701142Y-95718381D01*
X85605904Y-95766000D01*
X85558285Y-95813619D01*
X85510666Y-95908857D01*
X85510666Y-96051714D01*
X85558285Y-96146952D01*
X85605904Y-96194571D01*
X85701142Y-96242190D01*
X86082095Y-96242190D01*
X84653523Y-96051714D02*
X84653523Y-96718381D01*
X84891619Y-95670762D02*
X85129714Y-96385048D01*
X84510666Y-96385048D01*
D15*
X100254707Y-110152604D02*
X100278535Y-110128776D01*
X100302362Y-110057293D01*
X100302362Y-110009638D01*
X100278535Y-109938155D01*
X100230880Y-109890500D01*
X100183224Y-109866672D01*
X100087914Y-109842844D01*
X100016431Y-109842844D01*
X99921120Y-109866672D01*
X99873465Y-109890500D01*
X99825810Y-109938155D01*
X99801982Y-110009638D01*
X99801982Y-110057293D01*
X99825810Y-110128776D01*
X99849638Y-110152604D01*
X99801982Y-110319397D02*
X99801982Y-110629156D01*
X99992603Y-110462363D01*
X99992603Y-110533845D01*
X100016431Y-110581501D01*
X100040259Y-110605328D01*
X100087914Y-110629156D01*
X100207052Y-110629156D01*
X100254707Y-110605328D01*
X100278535Y-110581501D01*
X100302362Y-110533845D01*
X100302362Y-110390880D01*
X100278535Y-110343224D01*
X100254707Y-110319397D01*
D16*
X103657333Y-113154667D02*
X103657333Y-113721333D01*
X103624000Y-113788000D01*
X103590667Y-113821333D01*
X103524000Y-113854667D01*
X103390667Y-113854667D01*
X103324000Y-113821333D01*
X103290667Y-113788000D01*
X103257333Y-113721333D01*
X103257333Y-113154667D01*
X102557334Y-113854667D02*
X102957334Y-113854667D01*
X102757334Y-113854667D02*
X102757334Y-113154667D01*
X102824000Y-113254667D01*
X102890667Y-113321333D01*
X102957334Y-113354667D01*
X111996665Y-119950667D02*
X111863332Y-119950667D01*
X111796665Y-119917333D01*
X111763332Y-119884000D01*
X111696665Y-119784000D01*
X111663332Y-119650667D01*
X111663332Y-119384000D01*
X111696665Y-119317333D01*
X111729998Y-119284000D01*
X111796665Y-119250667D01*
X111929998Y-119250667D01*
X111996665Y-119284000D01*
X112029998Y-119317333D01*
X112063332Y-119384000D01*
X112063332Y-119550667D01*
X112029998Y-119617333D01*
X111996665Y-119650667D01*
X111929998Y-119684000D01*
X111796665Y-119684000D01*
X111729998Y-119650667D01*
X111696665Y-119617333D01*
X111663332Y-119550667D01*
X111529998Y-120017333D02*
X110996665Y-120017333D01*
X110929998Y-119250667D02*
X110696665Y-119950667D01*
X110463332Y-119250667D01*
X110096665Y-119250667D02*
X109963332Y-119250667D01*
X109896665Y-119284000D01*
X109829998Y-119350667D01*
X109796665Y-119484000D01*
X109796665Y-119717333D01*
X109829998Y-119850667D01*
X109896665Y-119917333D01*
X109963332Y-119950667D01*
X110096665Y-119950667D01*
X110163332Y-119917333D01*
X110229998Y-119850667D01*
X110263332Y-119717333D01*
X110263332Y-119484000D01*
X110229998Y-119350667D01*
X110163332Y-119284000D01*
X110096665Y-119250667D01*
X109163332Y-119950667D02*
X109496665Y-119950667D01*
X109496665Y-119250667D01*
X109029998Y-119250667D02*
X108629998Y-119250667D01*
X108829998Y-119950667D02*
X108829998Y-119250667D01*
X108429999Y-119917333D02*
X108329999Y-119950667D01*
X108163332Y-119950667D01*
X108096665Y-119917333D01*
X108063332Y-119884000D01*
X108029999Y-119817333D01*
X108029999Y-119750667D01*
X108063332Y-119684000D01*
X108096665Y-119650667D01*
X108163332Y-119617333D01*
X108296665Y-119584000D01*
X108363332Y-119550667D01*
X108396665Y-119517333D01*
X108429999Y-119450667D01*
X108429999Y-119384000D01*
X108396665Y-119317333D01*
X108363332Y-119284000D01*
X108296665Y-119250667D01*
X108129999Y-119250667D01*
X108029999Y-119284000D01*
X107896665Y-120017333D02*
X107363332Y-120017333D01*
X106796665Y-119884000D02*
X106829999Y-119917333D01*
X106929999Y-119950667D01*
X106996665Y-119950667D01*
X107096665Y-119917333D01*
X107163332Y-119850667D01*
X107196665Y-119784000D01*
X107229999Y-119650667D01*
X107229999Y-119550667D01*
X107196665Y-119417333D01*
X107163332Y-119350667D01*
X107096665Y-119284000D01*
X106996665Y-119250667D01*
X106929999Y-119250667D01*
X106829999Y-119284000D01*
X106796665Y-119317333D01*
X106363332Y-119250667D02*
X106229999Y-119250667D01*
X106163332Y-119284000D01*
X106096665Y-119350667D01*
X106063332Y-119484000D01*
X106063332Y-119717333D01*
X106096665Y-119850667D01*
X106163332Y-119917333D01*
X106229999Y-119950667D01*
X106363332Y-119950667D01*
X106429999Y-119917333D01*
X106496665Y-119850667D01*
X106529999Y-119717333D01*
X106529999Y-119484000D01*
X106496665Y-119350667D01*
X106429999Y-119284000D01*
X106363332Y-119250667D01*
X105763332Y-119950667D02*
X105763332Y-119250667D01*
X105363332Y-119950667D01*
X105363332Y-119250667D01*
X105029999Y-119950667D02*
X105029999Y-119250667D01*
X104629999Y-119950667D01*
X104629999Y-119250667D01*
X104296666Y-119584000D02*
X104063333Y-119584000D01*
X103963333Y-119950667D02*
X104296666Y-119950667D01*
X104296666Y-119250667D01*
X103963333Y-119250667D01*
X103263333Y-119884000D02*
X103296667Y-119917333D01*
X103396667Y-119950667D01*
X103463333Y-119950667D01*
X103563333Y-119917333D01*
X103630000Y-119850667D01*
X103663333Y-119784000D01*
X103696667Y-119650667D01*
X103696667Y-119550667D01*
X103663333Y-119417333D01*
X103630000Y-119350667D01*
X103563333Y-119284000D01*
X103463333Y-119250667D01*
X103396667Y-119250667D01*
X103296667Y-119284000D01*
X103263333Y-119317333D01*
X103063333Y-119250667D02*
X102663333Y-119250667D01*
X102863333Y-119950667D02*
X102863333Y-119250667D01*
X102296667Y-119250667D02*
X102163334Y-119250667D01*
X102096667Y-119284000D01*
X102030000Y-119350667D01*
X101996667Y-119484000D01*
X101996667Y-119717333D01*
X102030000Y-119850667D01*
X102096667Y-119917333D01*
X102163334Y-119950667D01*
X102296667Y-119950667D01*
X102363334Y-119917333D01*
X102430000Y-119850667D01*
X102463334Y-119717333D01*
X102463334Y-119484000D01*
X102430000Y-119350667D01*
X102363334Y-119284000D01*
X102296667Y-119250667D01*
X101296667Y-119950667D02*
X101530001Y-119617333D01*
X101696667Y-119950667D02*
X101696667Y-119250667D01*
X101430001Y-119250667D01*
X101363334Y-119284000D01*
X101330001Y-119317333D01*
X101296667Y-119384000D01*
X101296667Y-119484000D01*
X101330001Y-119550667D01*
X101363334Y-119584000D01*
X101430001Y-119617333D01*
X101696667Y-119617333D01*
X106197333Y-100708667D02*
X106197333Y-101275333D01*
X106164000Y-101342000D01*
X106130667Y-101375333D01*
X106064000Y-101408667D01*
X105930667Y-101408667D01*
X105864000Y-101375333D01*
X105830667Y-101342000D01*
X105797333Y-101275333D01*
X105797333Y-100708667D01*
X105497334Y-100775333D02*
X105464000Y-100742000D01*
X105397334Y-100708667D01*
X105230667Y-100708667D01*
X105164000Y-100742000D01*
X105130667Y-100775333D01*
X105097334Y-100842000D01*
X105097334Y-100908667D01*
X105130667Y-101008667D01*
X105530667Y-101408667D01*
X105097334Y-101408667D01*
X109754667Y-113854667D02*
X109754667Y-113154667D01*
X109754667Y-113488000D02*
X109354667Y-113488000D01*
X109354667Y-113854667D02*
X109354667Y-113154667D01*
X109121334Y-113154667D02*
X108721334Y-113154667D01*
X108921334Y-113854667D02*
X108921334Y-113154667D01*
X108554668Y-113154667D02*
X108088001Y-113154667D01*
X108388001Y-113854667D01*
X107488001Y-113154667D02*
X107821334Y-113154667D01*
X107854668Y-113488000D01*
X107821334Y-113454667D01*
X107754668Y-113421333D01*
X107588001Y-113421333D01*
X107521334Y-113454667D01*
X107488001Y-113488000D01*
X107454668Y-113554667D01*
X107454668Y-113721333D01*
X107488001Y-113788000D01*
X107521334Y-113821333D01*
X107588001Y-113854667D01*
X107754668Y-113854667D01*
X107821334Y-113821333D01*
X107854668Y-113788000D01*
X106821334Y-113154667D02*
X107154667Y-113154667D01*
X107188001Y-113488000D01*
X107154667Y-113454667D01*
X107088001Y-113421333D01*
X106921334Y-113421333D01*
X106854667Y-113454667D01*
X106821334Y-113488000D01*
X106788001Y-113554667D01*
X106788001Y-113721333D01*
X106821334Y-113788000D01*
X106854667Y-113821333D01*
X106921334Y-113854667D01*
X107088001Y-113854667D01*
X107154667Y-113821333D01*
X107188001Y-113788000D01*
X106354667Y-113154667D02*
X106288000Y-113154667D01*
X106221334Y-113188000D01*
X106188000Y-113221333D01*
X106154667Y-113288000D01*
X106121334Y-113421333D01*
X106121334Y-113588000D01*
X106154667Y-113721333D01*
X106188000Y-113788000D01*
X106221334Y-113821333D01*
X106288000Y-113854667D01*
X106354667Y-113854667D01*
X106421334Y-113821333D01*
X106454667Y-113788000D01*
X106488000Y-113721333D01*
X106521334Y-113588000D01*
X106521334Y-113421333D01*
X106488000Y-113288000D01*
X106454667Y-113221333D01*
X106421334Y-113188000D01*
X106354667Y-113154667D01*
X105821333Y-113588000D02*
X105288000Y-113588000D01*
X104588000Y-113854667D02*
X104988000Y-113854667D01*
X104788000Y-113854667D02*
X104788000Y-113154667D01*
X104854666Y-113254667D01*
X104921333Y-113321333D01*
X104988000Y-113354667D01*
M02*
