G04 #@! TF.FileFunction,Copper,L1,Top,Signal*
%FSLAX46Y46*%
G04 Gerber Fmt 4.6, Leading zero omitted, Abs format (unit mm)*
G04 Created by KiCad (PCBNEW 4.0.1-stable) date 28/05/2016 22:33:24*
%MOMM*%
G01*
G04 APERTURE LIST*
%ADD10C,0.100000*%
%ADD11R,2.000000X2.000000*%
%ADD12C,2.000000*%
%ADD13C,1.524000*%
%ADD14R,4.000500X4.000500*%
%ADD15C,4.000500*%
%ADD16C,0.600000*%
%ADD17C,1.000000*%
G04 APERTURE END LIST*
D10*
D11*
X105410000Y-41275000D03*
D12*
X107950000Y-41275000D03*
D11*
X89535000Y-54610000D03*
D12*
X92075000Y-54610000D03*
D11*
X121920000Y-54610000D03*
D12*
X124460000Y-54610000D03*
D11*
X105410000Y-81280000D03*
D12*
X107950000Y-81280000D03*
D11*
X83820000Y-75565000D03*
D12*
X81280000Y-75565000D03*
D11*
X132080000Y-74930000D03*
D12*
X129540000Y-74930000D03*
D11*
X76200000Y-99060000D03*
D12*
X73660000Y-99060000D03*
D11*
X134620000Y-99060000D03*
D12*
X132080000Y-99060000D03*
D13*
X116205000Y-71755000D03*
X116205000Y-81915000D03*
X110490000Y-91440000D03*
X110490000Y-81280000D03*
X93980000Y-86360000D03*
X93980000Y-76200000D03*
X90170000Y-98425000D03*
X80010000Y-98425000D03*
D14*
X113030000Y-118110000D03*
D15*
X100330000Y-118110000D03*
D16*
X111760000Y-109220000D03*
X107950000Y-64770000D03*
D17*
X106680000Y-118110000D02*
X100330000Y-118110000D01*
X110490000Y-114300000D02*
X106680000Y-118110000D01*
X110490000Y-111760000D02*
X110490000Y-114300000D01*
X111760000Y-109220000D02*
X110490000Y-111760000D01*
X106680000Y-66040000D02*
X106680000Y-78740000D01*
X107950000Y-64770000D02*
X106680000Y-66040000D01*
X107950000Y-80010000D02*
X107950000Y-81280000D01*
X106680000Y-78740000D02*
X107950000Y-80010000D01*
M02*
