<?xml version="1.0" standalone="no"?>
 <!DOCTYPE svg PUBLIC "-//W3C//DTD SVG 1.1//EN" 
 "http://www.w3.org/Graphics/SVG/1.1/DTD/svg11.dtd"> 
<svg xmlns="http://www.w3.org/2000/svg" version="1.1" 
    width="29.7002cm" height="21.0007cm" viewBox="0 0 116930 82680 ">
<title>SVG Picture created as BigTree-B.Cu.svg date 2016/05/28 22:36:02 </title>
  <desc>Picture generated by PCBNEW </desc>
<g style="fill:#000000; fill-opacity:1;stroke:#000000; stroke-opacity:1;
stroke-linecap:round; stroke-linejoin:round; "
 transform="translate(0 0) scale(1 1)">
</g>
<g style="fill:#000000; fill-opacity:0.0; 
stroke:#000000; stroke-width:-0.000393701; stroke-opacity:1; 
stroke-linecap:round; stroke-linejoin:round;">
</g>
<g style="fill:#000000; fill-opacity:0.0; 
stroke:#000000; stroke-width:39.3701; stroke-opacity:1; 
stroke-linecap:round; stroke-linejoin:round;">
</g>
<g style="fill:#000000; fill-opacity:0.0; 
stroke:#000000; stroke-width:59.0551; stroke-opacity:1; 
stroke-linecap:round; stroke-linejoin:round;">
<rect x="69685.9" y="65357.2" width="42519.7" height="12598.4" rx="0" />
</g>
<g style="fill:#000000; fill-opacity:0.0; 
stroke:#000000; stroke-width:39.3701; stroke-opacity:1; 
stroke-linecap:round; stroke-linejoin:round;">
</g>
<g style="fill:#000000; fill-opacity:0.0; 
stroke:#000000; stroke-width:59.0551; stroke-opacity:1; 
stroke-linecap:round; stroke-linejoin:round;">
<rect x="3937.01" y="3937.01" width="109056" height="74806" rx="0" />
</g>
<g style="fill:#000000; fill-opacity:0.0; 
stroke:#000000; stroke-width:39.3701; stroke-opacity:1; 
stroke-linecap:round; stroke-linejoin:round;">
</g>
<g style="fill:#000000; fill-opacity:0.0; 
stroke:#000000; stroke-width:59.0551; stroke-opacity:1; 
stroke-linecap:round; stroke-linejoin:round;">
<rect x="4724.41" y="4724.41" width="107481" height="73231.2" rx="0" />
</g>
<g style="fill:#000000; fill-opacity:0.0; 
stroke:#000000; stroke-width:39.3701; stroke-opacity:1; 
stroke-linecap:round; stroke-linejoin:round;">
</g>
<g style="fill:#000000; fill-opacity:0.0; 
stroke:#000000; stroke-width:59.0551; stroke-opacity:1; 
stroke-linecap:round; stroke-linejoin:round;">
<path d="M23622 4724
L23622 3937
" />
</g>
<g style="fill:#000000; fill-opacity:0.0; 
stroke:#000000; stroke-width:39.3701; stroke-opacity:1; 
stroke-linecap:round; stroke-linejoin:round;">
</g>
<g style="fill:#000000; fill-opacity:0.0; 
stroke:#000000; stroke-width:59.0551; stroke-opacity:1; 
stroke-linecap:round; stroke-linejoin:round;">
<path d="M43307 4724
L43307 3937
" />
</g>
<g style="fill:#000000; fill-opacity:0.0; 
stroke:#000000; stroke-width:39.3701; stroke-opacity:1; 
stroke-linecap:round; stroke-linejoin:round;">
</g>
<g style="fill:#000000; fill-opacity:0.0; 
stroke:#000000; stroke-width:59.0551; stroke-opacity:1; 
stroke-linecap:round; stroke-linejoin:round;">
<path d="M62992 4724
L62992 3937
" />
</g>
<g style="fill:#000000; fill-opacity:0.0; 
stroke:#000000; stroke-width:39.3701; stroke-opacity:1; 
stroke-linecap:round; stroke-linejoin:round;">
</g>
<g style="fill:#000000; fill-opacity:0.0; 
stroke:#000000; stroke-width:59.0551; stroke-opacity:1; 
stroke-linecap:round; stroke-linejoin:round;">
<path d="M82677 4724
L82677 3937
" />
</g>
<g style="fill:#000000; fill-opacity:0.0; 
stroke:#000000; stroke-width:39.3701; stroke-opacity:1; 
stroke-linecap:round; stroke-linejoin:round;">
</g>
<g style="fill:#000000; fill-opacity:0.0; 
stroke:#000000; stroke-width:59.0551; stroke-opacity:1; 
stroke-linecap:round; stroke-linejoin:round;">
<path d="M102362 4724
L102362 3937
" />
</g>
<g style="fill:#000000; fill-opacity:0.0; 
stroke:#000000; stroke-width:39.3701; stroke-opacity:1; 
stroke-linecap:round; stroke-linejoin:round;">
</g>
<g style="fill:#000000; fill-opacity:0.0; 
stroke:#000000; stroke-width:59.0551; stroke-opacity:1; 
stroke-linecap:round; stroke-linejoin:round;">
<path d="M14169 4562
L13877 4562
" />
<path d="M14023 4562
L14023 4050
L13974 4123
L13925 4172
L13877 4196
" />
</g>
<g style="fill:#000000; fill-opacity:0.0; 
stroke:#000000; stroke-width:39.3701; stroke-opacity:1; 
stroke-linecap:round; stroke-linejoin:round;">
</g>
<g style="fill:#000000; fill-opacity:0.0; 
stroke:#000000; stroke-width:59.0551; stroke-opacity:1; 
stroke-linecap:round; stroke-linejoin:round;">
<path d="M33562 4099
L33586 4074
L33635 4050
L33757 4050
L33805 4074
L33830 4099
L33854 4147
L33854 4196
L33830 4269
L33537 4562
L33854 4562
" />
</g>
<g style="fill:#000000; fill-opacity:0.0; 
stroke:#000000; stroke-width:39.3701; stroke-opacity:1; 
stroke-linecap:round; stroke-linejoin:round;">
</g>
<g style="fill:#000000; fill-opacity:0.0; 
stroke:#000000; stroke-width:59.0551; stroke-opacity:1; 
stroke-linecap:round; stroke-linejoin:round;">
<path d="M53222 4050
L53539 4050
L53368 4245
L53442 4245
L53490 4269
L53515 4294
L53539 4342
L53539 4464
L53515 4513
L53490 4537
L53442 4562
L53295 4562
L53247 4537
L53222 4513
" />
</g>
<g style="fill:#000000; fill-opacity:0.0; 
stroke:#000000; stroke-width:39.3701; stroke-opacity:1; 
stroke-linecap:round; stroke-linejoin:round;">
</g>
<g style="fill:#000000; fill-opacity:0.0; 
stroke:#000000; stroke-width:59.0551; stroke-opacity:1; 
stroke-linecap:round; stroke-linejoin:round;">
<path d="M73175 4221
L73175 4562
" />
<path d="M73053 4026
L72932 4391
L73248 4391
" />
</g>
<g style="fill:#000000; fill-opacity:0.0; 
stroke:#000000; stroke-width:39.3701; stroke-opacity:1; 
stroke-linecap:round; stroke-linejoin:round;">
</g>
<g style="fill:#000000; fill-opacity:0.0; 
stroke:#000000; stroke-width:59.0551; stroke-opacity:1; 
stroke-linecap:round; stroke-linejoin:round;">
<path d="M92885 4050
L92641 4050
L92617 4294
L92641 4269
L92690 4245
L92812 4245
L92860 4269
L92885 4294
L92909 4342
L92909 4464
L92885 4513
L92860 4537
L92812 4562
L92690 4562
L92641 4537
L92617 4513
" />
</g>
<g style="fill:#000000; fill-opacity:0.0; 
stroke:#000000; stroke-width:39.3701; stroke-opacity:1; 
stroke-linecap:round; stroke-linejoin:round;">
</g>
<g style="fill:#000000; fill-opacity:0.0; 
stroke:#000000; stroke-width:59.0551; stroke-opacity:1; 
stroke-linecap:round; stroke-linejoin:round;">
<path d="M112545 4050
L112448 4050
L112399 4074
L112375 4099
L112326 4172
L112302 4269
L112302 4464
L112326 4513
L112350 4537
L112399 4562
L112497 4562
L112545 4537
L112570 4513
L112594 4464
L112594 4342
L112570 4294
L112545 4269
L112497 4245
L112399 4245
L112350 4269
L112326 4294
L112302 4342
" />
</g>
<g style="fill:#000000; fill-opacity:0.0; 
stroke:#000000; stroke-width:39.3701; stroke-opacity:1; 
stroke-linecap:round; stroke-linejoin:round;">
</g>
<g style="fill:#000000; fill-opacity:0.0; 
stroke:#000000; stroke-width:59.0551; stroke-opacity:1; 
stroke-linecap:round; stroke-linejoin:round;">
<path d="M23622 77955
L23622 78742
" />
</g>
<g style="fill:#000000; fill-opacity:0.0; 
stroke:#000000; stroke-width:39.3701; stroke-opacity:1; 
stroke-linecap:round; stroke-linejoin:round;">
</g>
<g style="fill:#000000; fill-opacity:0.0; 
stroke:#000000; stroke-width:59.0551; stroke-opacity:1; 
stroke-linecap:round; stroke-linejoin:round;">
<path d="M43307 77955
L43307 78742
" />
</g>
<g style="fill:#000000; fill-opacity:0.0; 
stroke:#000000; stroke-width:39.3701; stroke-opacity:1; 
stroke-linecap:round; stroke-linejoin:round;">
</g>
<g style="fill:#000000; fill-opacity:0.0; 
stroke:#000000; stroke-width:59.0551; stroke-opacity:1; 
stroke-linecap:round; stroke-linejoin:round;">
<path d="M62992 77955
L62992 78742
" />
</g>
<g style="fill:#000000; fill-opacity:0.0; 
stroke:#000000; stroke-width:39.3701; stroke-opacity:1; 
stroke-linecap:round; stroke-linejoin:round;">
</g>
<g style="fill:#000000; fill-opacity:0.0; 
stroke:#000000; stroke-width:59.0551; stroke-opacity:1; 
stroke-linecap:round; stroke-linejoin:round;">
<path d="M82677 77955
L82677 78742
" />
</g>
<g style="fill:#000000; fill-opacity:0.0; 
stroke:#000000; stroke-width:39.3701; stroke-opacity:1; 
stroke-linecap:round; stroke-linejoin:round;">
</g>
<g style="fill:#000000; fill-opacity:0.0; 
stroke:#000000; stroke-width:59.0551; stroke-opacity:1; 
stroke-linecap:round; stroke-linejoin:round;">
<path d="M102362 77955
L102362 78742
" />
</g>
<g style="fill:#000000; fill-opacity:0.0; 
stroke:#000000; stroke-width:39.3701; stroke-opacity:1; 
stroke-linecap:round; stroke-linejoin:round;">
</g>
<g style="fill:#000000; fill-opacity:0.0; 
stroke:#000000; stroke-width:59.0551; stroke-opacity:1; 
stroke-linecap:round; stroke-linejoin:round;">
<path d="M14169 78580
L13877 78580
" />
<path d="M14023 78580
L14023 78069
L13974 78142
L13925 78190
L13877 78215
" />
</g>
<g style="fill:#000000; fill-opacity:0.0; 
stroke:#000000; stroke-width:39.3701; stroke-opacity:1; 
stroke-linecap:round; stroke-linejoin:round;">
</g>
<g style="fill:#000000; fill-opacity:0.0; 
stroke:#000000; stroke-width:59.0551; stroke-opacity:1; 
stroke-linecap:round; stroke-linejoin:round;">
<path d="M33562 78117
L33586 78093
L33635 78069
L33757 78069
L33805 78093
L33830 78117
L33854 78166
L33854 78215
L33830 78288
L33537 78580
L33854 78580
" />
</g>
<g style="fill:#000000; fill-opacity:0.0; 
stroke:#000000; stroke-width:39.3701; stroke-opacity:1; 
stroke-linecap:round; stroke-linejoin:round;">
</g>
<g style="fill:#000000; fill-opacity:0.0; 
stroke:#000000; stroke-width:59.0551; stroke-opacity:1; 
stroke-linecap:round; stroke-linejoin:round;">
<path d="M53222 78069
L53539 78069
L53368 78263
L53442 78263
L53490 78288
L53515 78312
L53539 78361
L53539 78483
L53515 78532
L53490 78556
L53442 78580
L53295 78580
L53247 78556
L53222 78532
" />
</g>
<g style="fill:#000000; fill-opacity:0.0; 
stroke:#000000; stroke-width:39.3701; stroke-opacity:1; 
stroke-linecap:round; stroke-linejoin:round;">
</g>
<g style="fill:#000000; fill-opacity:0.0; 
stroke:#000000; stroke-width:59.0551; stroke-opacity:1; 
stroke-linecap:round; stroke-linejoin:round;">
<path d="M73175 78239
L73175 78580
" />
<path d="M73053 78044
L72932 78410
L73248 78410
" />
</g>
<g style="fill:#000000; fill-opacity:0.0; 
stroke:#000000; stroke-width:39.3701; stroke-opacity:1; 
stroke-linecap:round; stroke-linejoin:round;">
</g>
<g style="fill:#000000; fill-opacity:0.0; 
stroke:#000000; stroke-width:59.0551; stroke-opacity:1; 
stroke-linecap:round; stroke-linejoin:round;">
<path d="M92885 78069
L92641 78069
L92617 78312
L92641 78288
L92690 78263
L92812 78263
L92860 78288
L92885 78312
L92909 78361
L92909 78483
L92885 78532
L92860 78556
L92812 78580
L92690 78580
L92641 78556
L92617 78532
" />
</g>
<g style="fill:#000000; fill-opacity:0.0; 
stroke:#000000; stroke-width:39.3701; stroke-opacity:1; 
stroke-linecap:round; stroke-linejoin:round;">
</g>
<g style="fill:#000000; fill-opacity:0.0; 
stroke:#000000; stroke-width:59.0551; stroke-opacity:1; 
stroke-linecap:round; stroke-linejoin:round;">
<path d="M112545 78069
L112448 78069
L112399 78093
L112375 78117
L112326 78190
L112302 78288
L112302 78483
L112326 78532
L112350 78556
L112399 78580
L112497 78580
L112545 78556
L112570 78532
L112594 78483
L112594 78361
L112570 78312
L112545 78288
L112497 78263
L112399 78263
L112350 78288
L112326 78312
L112302 78361
" />
</g>
<g style="fill:#000000; fill-opacity:0.0; 
stroke:#000000; stroke-width:39.3701; stroke-opacity:1; 
stroke-linecap:round; stroke-linejoin:round;">
</g>
<g style="fill:#000000; fill-opacity:0.0; 
stroke:#000000; stroke-width:59.0551; stroke-opacity:1; 
stroke-linecap:round; stroke-linejoin:round;">
<path d="M3937 23622
L4724 23622
" />
</g>
<g style="fill:#000000; fill-opacity:0.0; 
stroke:#000000; stroke-width:39.3701; stroke-opacity:1; 
stroke-linecap:round; stroke-linejoin:round;">
</g>
<g style="fill:#000000; fill-opacity:0.0; 
stroke:#000000; stroke-width:59.0551; stroke-opacity:1; 
stroke-linecap:round; stroke-linejoin:round;">
<path d="M3937 43307
L4724 43307
" />
</g>
<g style="fill:#000000; fill-opacity:0.0; 
stroke:#000000; stroke-width:39.3701; stroke-opacity:1; 
stroke-linecap:round; stroke-linejoin:round;">
</g>
<g style="fill:#000000; fill-opacity:0.0; 
stroke:#000000; stroke-width:59.0551; stroke-opacity:1; 
stroke-linecap:round; stroke-linejoin:round;">
<path d="M3937 62992
L4724 62992
" />
</g>
<g style="fill:#000000; fill-opacity:0.0; 
stroke:#000000; stroke-width:39.3701; stroke-opacity:1; 
stroke-linecap:round; stroke-linejoin:round;">
</g>
<g style="fill:#000000; fill-opacity:0.0; 
stroke:#000000; stroke-width:59.0551; stroke-opacity:1; 
stroke-linecap:round; stroke-linejoin:round;">
<path d="M4208 13864
L4452 13864
" />
<path d="M4160 14011
L4330 13499
L4501 14011
" />
</g>
<g style="fill:#000000; fill-opacity:0.0; 
stroke:#000000; stroke-width:39.3701; stroke-opacity:1; 
stroke-linecap:round; stroke-linejoin:round;">
</g>
<g style="fill:#000000; fill-opacity:0.0; 
stroke:#000000; stroke-width:59.0551; stroke-opacity:1; 
stroke-linecap:round; stroke-linejoin:round;">
<path d="M4367 33428
L4440 33452
L4464 33476
L4489 33525
L4489 33598
L4464 33647
L4440 33671
L4391 33696
L4196 33696
L4196 33184
L4367 33184
L4416 33208
L4440 33233
L4464 33281
L4464 33330
L4440 33379
L4416 33403
L4367 33428
L4196 33428
" />
</g>
<g style="fill:#000000; fill-opacity:0.0; 
stroke:#000000; stroke-width:39.3701; stroke-opacity:1; 
stroke-linecap:round; stroke-linejoin:round;">
</g>
<g style="fill:#000000; fill-opacity:0.0; 
stroke:#000000; stroke-width:59.0551; stroke-opacity:1; 
stroke-linecap:round; stroke-linejoin:round;">
<path d="M4489 53332
L4464 53356
L4391 53381
L4342 53381
L4269 53356
L4221 53308
L4196 53259
L4172 53161
L4172 53088
L4196 52991
L4221 52942
L4269 52893
L4342 52869
L4391 52869
L4464 52893
L4489 52918
" />
</g>
<g style="fill:#000000; fill-opacity:0.0; 
stroke:#000000; stroke-width:39.3701; stroke-opacity:1; 
stroke-linecap:round; stroke-linejoin:round;">
</g>
<g style="fill:#000000; fill-opacity:0.0; 
stroke:#000000; stroke-width:59.0551; stroke-opacity:1; 
stroke-linecap:round; stroke-linejoin:round;">
<path d="M4196 73066
L4196 72554
L4318 72554
L4391 72578
L4440 72627
L4464 72676
L4489 72773
L4489 72846
L4464 72944
L4440 72993
L4391 73041
L4318 73066
L4196 73066
" />
</g>
<g style="fill:#000000; fill-opacity:0.0; 
stroke:#000000; stroke-width:39.3701; stroke-opacity:1; 
stroke-linecap:round; stroke-linejoin:round;">
</g>
<g style="fill:#000000; fill-opacity:0.0; 
stroke:#000000; stroke-width:59.0551; stroke-opacity:1; 
stroke-linecap:round; stroke-linejoin:round;">
<path d="M112992 23622
L112205 23622
" />
</g>
<g style="fill:#000000; fill-opacity:0.0; 
stroke:#000000; stroke-width:39.3701; stroke-opacity:1; 
stroke-linecap:round; stroke-linejoin:round;">
</g>
<g style="fill:#000000; fill-opacity:0.0; 
stroke:#000000; stroke-width:59.0551; stroke-opacity:1; 
stroke-linecap:round; stroke-linejoin:round;">
<path d="M112992 43307
L112205 43307
" />
</g>
<g style="fill:#000000; fill-opacity:0.0; 
stroke:#000000; stroke-width:39.3701; stroke-opacity:1; 
stroke-linecap:round; stroke-linejoin:round;">
</g>
<g style="fill:#000000; fill-opacity:0.0; 
stroke:#000000; stroke-width:59.0551; stroke-opacity:1; 
stroke-linecap:round; stroke-linejoin:round;">
<path d="M112992 62992
L112205 62992
" />
</g>
<g style="fill:#000000; fill-opacity:0.0; 
stroke:#000000; stroke-width:39.3701; stroke-opacity:1; 
stroke-linecap:round; stroke-linejoin:round;">
</g>
<g style="fill:#000000; fill-opacity:0.0; 
stroke:#000000; stroke-width:59.0551; stroke-opacity:1; 
stroke-linecap:round; stroke-linejoin:round;">
<path d="M112477 13864
L112721 13864
" />
<path d="M112428 14011
L112599 13499
L112769 14011
" />
</g>
<g style="fill:#000000; fill-opacity:0.0; 
stroke:#000000; stroke-width:39.3701; stroke-opacity:1; 
stroke-linecap:round; stroke-linejoin:round;">
</g>
<g style="fill:#000000; fill-opacity:0.0; 
stroke:#000000; stroke-width:59.0551; stroke-opacity:1; 
stroke-linecap:round; stroke-linejoin:round;">
<path d="M112635 33428
L112708 33452
L112733 33476
L112757 33525
L112757 33598
L112733 33647
L112708 33671
L112660 33696
L112465 33696
L112465 33184
L112635 33184
L112684 33208
L112708 33233
L112733 33281
L112733 33330
L112708 33379
L112684 33403
L112635 33428
L112465 33428
" />
</g>
<g style="fill:#000000; fill-opacity:0.0; 
stroke:#000000; stroke-width:39.3701; stroke-opacity:1; 
stroke-linecap:round; stroke-linejoin:round;">
</g>
<g style="fill:#000000; fill-opacity:0.0; 
stroke:#000000; stroke-width:59.0551; stroke-opacity:1; 
stroke-linecap:round; stroke-linejoin:round;">
<path d="M112757 53332
L112733 53356
L112660 53381
L112611 53381
L112538 53356
L112489 53308
L112465 53259
L112440 53161
L112440 53088
L112465 52991
L112489 52942
L112538 52893
L112611 52869
L112660 52869
L112733 52893
L112757 52918
" />
</g>
<g style="fill:#000000; fill-opacity:0.0; 
stroke:#000000; stroke-width:39.3701; stroke-opacity:1; 
stroke-linecap:round; stroke-linejoin:round;">
</g>
<g style="fill:#000000; fill-opacity:0.0; 
stroke:#000000; stroke-width:59.0551; stroke-opacity:1; 
stroke-linecap:round; stroke-linejoin:round;">
<path d="M112465 73066
L112465 72554
L112587 72554
L112660 72578
L112708 72627
L112733 72676
L112757 72773
L112757 72846
L112733 72944
L112708 72993
L112660 73041
L112587 73066
L112465 73066
" />
</g>
<g style="fill:#000000; fill-opacity:0.0; 
stroke:#000000; stroke-width:39.3701; stroke-opacity:1; 
stroke-linecap:round; stroke-linejoin:round;">
</g>
<g style="fill:#000000; fill-opacity:0.0; 
stroke:#000000; stroke-width:59.0551; stroke-opacity:1; 
stroke-linecap:round; stroke-linejoin:round;">
<path d="M78881 76293
L78881 75703
L79022 75703
L79106 75731
L79162 75787
L79190 75843
L79219 75956
L79219 76040
L79190 76153
L79162 76209
L79106 76265
L79022 76293
L78881 76293
" />
<path d="M79725 76293
L79725 75984
L79697 75928
L79640 75899
L79528 75899
L79472 75928
" />
<path d="M79725 76265
L79669 76293
L79528 76293
L79472 76265
L79444 76209
L79444 76153
L79472 76096
L79528 76068
L79669 76068
L79725 76040
" />
<path d="M79922 75899
L80147 75899
" />
<path d="M80006 75703
L80006 76209
L80034 76265
L80090 76293
L80147 76293
" />
<path d="M80568 76265
L80512 76293
L80400 76293
L80343 76265
L80315 76209
L80315 75984
L80343 75928
L80400 75899
L80512 75899
L80568 75928
L80597 75984
L80597 76040
L80315 76096
" />
<path d="M80850 76237
L80878 76265
L80850 76293
L80822 76265
L80850 76237
L80850 76293
" />
<path d="M80850 75928
L80878 75956
L80850 75984
L80822 75956
L80850 75928
L80850 75984
" />
</g>
<g style="fill:#000000; fill-opacity:0.0; 
stroke:#000000; stroke-width:39.3701; stroke-opacity:1; 
stroke-linecap:round; stroke-linejoin:round;">
</g>
<g style="fill:#000000; fill-opacity:0.0; 
stroke:#000000; stroke-width:59.0551; stroke-opacity:1; 
stroke-linecap:round; stroke-linejoin:round;">
<path d="M69685 76577
L112205 76577
" />
</g>
<g style="fill:#000000; fill-opacity:0.0; 
stroke:#000000; stroke-width:39.3701; stroke-opacity:1; 
stroke-linecap:round; stroke-linejoin:round;">
</g>
<g style="fill:#000000; fill-opacity:0.0; 
stroke:#000000; stroke-width:59.0551; stroke-opacity:1; 
stroke-linecap:round; stroke-linejoin:round;">
<path d="M70220 77395
L70220 76805
" />
<path d="M70557 77395
L70304 77058
" />
<path d="M70557 76805
L70220 77142
" />
<path d="M70810 77395
L70810 77002
" />
<path d="M70810 76805
L70782 76833
L70810 76861
L70838 76833
L70810 76805
L70810 76861
" />
<path d="M71429 77339
L71401 77367
L71316 77395
L71260 77395
L71176 77367
L71120 77311
L71091 77255
L71063 77142
L71063 77058
L71091 76946
L71120 76889
L71176 76833
L71260 76805
L71316 76805
L71401 76833
L71429 76861
" />
<path d="M71935 77395
L71935 77086
L71907 77030
L71851 77002
L71738 77002
L71682 77030
" />
<path d="M71935 77367
L71879 77395
L71738 77395
L71682 77367
L71654 77311
L71654 77255
L71682 77199
L71738 77171
L71879 77171
L71935 77142
" />
<path d="M72469 77395
L72469 76805
" />
<path d="M72469 77367
L72413 77395
L72301 77395
L72244 77367
L72216 77339
L72188 77283
L72188 77114
L72216 77058
L72244 77030
L72301 77002
L72413 77002
L72469 77030
" />
<path d="M73201 77086
L73397 77086
" />
<path d="M73482 77395
L73201 77395
L73201 76805
L73482 76805
" />
<path d="M73735 77339
L73763 77367
L73735 77395
L73707 77367
L73735 77339
L73735 77395
" />
<path d="M74016 77395
L74016 76805
L74157 76805
L74241 76833
L74297 76889
L74325 76946
L74354 77058
L74354 77142
L74325 77255
L74297 77311
L74241 77367
L74157 77395
L74016 77395
" />
<path d="M74607 77339
L74635 77367
L74607 77395
L74579 77367
L74607 77339
L74607 77395
" />
<path d="M74860 77227
L75141 77227
" />
<path d="M74804 77395
L75000 76805
L75197 77395
" />
<path d="M75394 77339
L75422 77367
L75394 77395
L75366 77367
L75394 77339
L75394 77395
" />
<path d="M76575 77395
L76575 76805
" />
<path d="M76631 77171
L76800 77395
" />
<path d="M76800 77002
L76575 77227
" />
<path d="M77053 77395
L77053 77002
" />
<path d="M77053 76805
L77025 76833
L77053 76861
L77081 76833
L77053 76805
L77053 76861
" />
<path d="M77588 77367
L77531 77395
L77419 77395
L77363 77367
L77334 77339
L77306 77283
L77306 77114
L77334 77058
L77363 77030
L77419 77002
L77531 77002
L77588 77030
" />
<path d="M78094 77395
L78094 77086
L78066 77030
L78009 77002
L77897 77002
L77841 77030
" />
<path d="M78094 77367
L78037 77395
L77897 77395
L77841 77367
L77813 77311
L77813 77255
L77841 77199
L77897 77171
L78037 77171
L78094 77142
" />
<path d="M78628 77395
L78628 76805
" />
<path d="M78628 77367
L78572 77395
L78459 77395
L78403 77367
L78375 77339
L78347 77283
L78347 77114
L78375 77058
L78403 77030
L78459 77002
L78572 77002
L78628 77030
" />
<path d="M79612 77002
L79612 77395
" />
<path d="M79472 76777
L79331 77199
L79697 77199
" />
<path d="M79922 77339
L79950 77367
L79922 77395
L79894 77367
L79922 77339
L79922 77395
" />
<path d="M80315 76805
L80372 76805
L80428 76833
L80456 76861
L80484 76917
L80512 77030
L80512 77171
L80484 77283
L80456 77339
L80428 77367
L80372 77395
L80315 77395
L80259 77367
L80231 77339
L80203 77283
L80175 77171
L80175 77030
L80203 76917
L80231 76861
L80259 76833
L80315 76805
" />
<path d="M80765 77339
L80793 77367
L80765 77395
L80737 77367
L80765 77339
L80765 77395
" />
<path d="M81356 77395
L81018 77395
" />
<path d="M81187 77395
L81187 76805
L81131 76889
L81075 76946
L81018 76974
" />
<path d="M81609 77171
L82059 77171
" />
<path d="M82312 77367
L82368 77395
L82481 77395
L82537 77367
L82565 77311
L82565 77283
L82537 77227
L82481 77199
L82396 77199
L82340 77171
L82312 77114
L82312 77086
L82340 77030
L82396 77002
L82481 77002
L82537 77030
" />
<path d="M82734 77002
L82959 77002
" />
<path d="M82818 76805
L82818 77311
L82846 77367
L82903 77395
L82959 77395
" />
<path d="M83409 77395
L83409 77086
L83381 77030
L83324 77002
L83212 77002
L83156 77030
" />
<path d="M83409 77367
L83352 77395
L83212 77395
L83156 77367
L83127 77311
L83127 77255
L83156 77199
L83212 77171
L83352 77171
L83409 77142
" />
<path d="M83690 77395
L83690 76805
" />
<path d="M83690 77030
L83746 77002
L83859 77002
L83915 77030
L83943 77058
L83971 77114
L83971 77283
L83943 77339
L83915 77367
L83859 77395
L83746 77395
L83690 77367
" />
<path d="M84309 77395
L84252 77367
L84224 77311
L84224 76805
" />
<path d="M84759 77367
L84702 77395
L84590 77395
L84534 77367
L84505 77311
L84505 77086
L84534 77030
L84590 77002
L84702 77002
L84759 77030
L84787 77086
L84787 77142
L84505 77199
" />
</g>
<g style="fill:#000000; fill-opacity:0.0; 
stroke:#000000; stroke-width:39.3701; stroke-opacity:1; 
stroke-linecap:round; stroke-linejoin:round;">
</g>
<g style="fill:#000000; fill-opacity:0.0; 
stroke:#000000; stroke-width:59.0551; stroke-opacity:1; 
stroke-linecap:round; stroke-linejoin:round;">
<path d="M69685 75396
L112205 75396
" />
</g>
<g style="fill:#000000; fill-opacity:0.0; 
stroke:#000000; stroke-width:39.3701; stroke-opacity:1; 
stroke-linecap:round; stroke-linejoin:round;">
</g>
<g style="fill:#000000; fill-opacity:0.0; 
stroke:#000000; stroke-width:118.11; stroke-opacity:1; 
stroke-linecap:round; stroke-linejoin:round;">
<path d="M104022 76293
L103825 76012
" />
<path d="M103684 76293
L103684 75703
L103909 75703
L103965 75731
L103994 75759
L104022 75815
L104022 75899
L103994 75956
L103965 75984
L103909 76012
L103684 76012
" />
<path d="M104500 76265
L104444 76293
L104331 76293
L104275 76265
L104247 76209
L104247 75984
L104275 75928
L104331 75899
L104444 75899
L104500 75928
L104528 75984
L104528 76040
L104247 76096
" />
<path d="M104725 75899
L104865 76293
L105006 75899
" />
<path d="M105231 76237
L105259 76265
L105231 76293
L105203 76265
L105231 76237
L105231 76293
" />
<path d="M105231 75928
L105259 75956
L105231 75984
L105203 75956
L105231 75928
L105231 75984
" />
</g>
<g style="fill:#000000; fill-opacity:0.0; 
stroke:#000000; stroke-width:39.3701; stroke-opacity:1; 
stroke-linecap:round; stroke-linejoin:round;">
</g>
<g style="fill:#000000; fill-opacity:0.0; 
stroke:#000000; stroke-width:59.0551; stroke-opacity:1; 
stroke-linecap:round; stroke-linejoin:round;">
<path d="M70192 76265
L70276 76293
L70417 76293
L70473 76265
L70501 76237
L70529 76181
L70529 76124
L70501 76068
L70473 76040
L70417 76012
L70304 75984
L70248 75956
L70220 75928
L70192 75871
L70192 75815
L70220 75759
L70248 75731
L70304 75703
L70445 75703
L70529 75731
" />
<path d="M70782 76293
L70782 75899
" />
<path d="M70782 75703
L70754 75731
L70782 75759
L70810 75731
L70782 75703
L70782 75759
" />
<path d="M71007 75899
L71316 75899
L71007 76293
L71316 76293
" />
<path d="M71766 76265
L71710 76293
L71598 76293
L71541 76265
L71513 76209
L71513 75984
L71541 75928
L71598 75899
L71710 75899
L71766 75928
L71795 75984
L71795 76040
L71513 76096
" />
<path d="M72048 76237
L72076 76265
L72048 76293
L72019 76265
L72048 76237
L72048 76293
" />
<path d="M72048 75928
L72076 75956
L72048 75984
L72019 75956
L72048 75928
L72048 75984
" />
<path d="M72751 76124
L73032 76124
" />
<path d="M72694 76293
L72891 75703
L73088 76293
" />
<path d="M73538 75899
L73538 76293
" />
<path d="M73397 75674
L73257 76096
L73622 76096
" />
</g>
<g style="fill:#000000; fill-opacity:0.0; 
stroke:#000000; stroke-width:39.3701; stroke-opacity:1; 
stroke-linecap:round; stroke-linejoin:round;">
</g>
<g style="fill:#000000; fill-opacity:0.0; 
stroke:#000000; stroke-width:59.0551; stroke-opacity:1; 
stroke-linecap:round; stroke-linejoin:round;">
<path d="M103684 77395
L103684 76805
" />
<path d="M104219 77395
L104219 76805
" />
<path d="M104219 77367
L104162 77395
L104050 77395
L103994 77367
L103965 77339
L103937 77283
L103937 77114
L103965 77058
L103994 77030
L104050 77002
L104162 77002
L104219 77030
" />
<path d="M104500 77339
L104528 77367
L104500 77395
L104472 77367
L104500 77339
L104500 77395
" />
<path d="M104500 77030
L104528 77058
L104500 77086
L104472 77058
L104500 77030
L104500 77086
" />
<path d="M105540 77395
L105203 77395
" />
<path d="M105372 77395
L105372 76805
L105315 76889
L105259 76946
L105203 76974
" />
<path d="M106215 76777
L105709 77536
" />
<path d="M106721 77395
L106384 77395
" />
<path d="M106553 77395
L106553 76805
L106496 76889
L106440 76946
L106384 76974
" />
</g>
<g style="fill:#000000; fill-opacity:0.0; 
stroke:#000000; stroke-width:39.3701; stroke-opacity:1; 
stroke-linecap:round; stroke-linejoin:round;">
</g>
<g style="fill:#000000; fill-opacity:0.0; 
stroke:#000000; stroke-width:59.0551; stroke-opacity:1; 
stroke-linecap:round; stroke-linejoin:round;">
<path d="M69685 73821
L112205 73821
" />
</g>
<g style="fill:#000000; fill-opacity:0.0; 
stroke:#000000; stroke-width:39.3701; stroke-opacity:1; 
stroke-linecap:round; stroke-linejoin:round;">
</g>
<g style="fill:#000000; fill-opacity:0.0; 
stroke:#000000; stroke-width:157.48; stroke-opacity:1; 
stroke-linecap:round; stroke-linejoin:round;">
<path d="M70257 74099
L70707 74099
" />
<path d="M70384 74886
L70482 74099
" />
<path d="M70871 74886
L70937 74361
" />
<path d="M70970 74099
L70927 74136
L70960 74174
L71002 74136
L70970 74099
L70960 74174
" />
<path d="M71199 74361
L71499 74361
" />
<path d="M71345 74099
L71260 74774
L71288 74849
L71359 74886
L71434 74886
" />
<path d="M71809 74886
L71738 74849
L71710 74774
L71795 74099
" />
<path d="M72413 74849
L72334 74886
L72184 74886
L72113 74849
L72085 74774
L72123 74474
L72169 74399
L72249 74361
L72399 74361
L72469 74399
L72498 74474
L72488 74549
L72104 74624
" />
<path d="M72793 74811
L72826 74849
L72783 74886
L72751 74849
L72793 74811
L72783 74886
" />
<path d="M72844 74399
L72877 74436
L72835 74474
L72802 74436
L72844 74399
L72835 74474
" />
</g>
<g style="fill:#000000; fill-opacity:0.0; 
stroke:#000000; stroke-width:39.3701; stroke-opacity:1; 
stroke-linecap:round; stroke-linejoin:round;">
</g>
<g style="fill:#000000; fill-opacity:0.0; 
stroke:#000000; stroke-width:59.0551; stroke-opacity:1; 
stroke-linecap:round; stroke-linejoin:round;">
<path d="M70417 73070
L70220 73070
" />
<path d="M70220 73380
L70220 72789
L70501 72789
" />
<path d="M70726 73380
L70726 72986
" />
<path d="M70726 72789
L70698 72817
L70726 72845
L70754 72817
L70726 72789
L70726 72845
" />
<path d="M71091 73380
L71035 73352
L71007 73295
L71007 72789
" />
<path d="M71541 73352
L71485 73380
L71373 73380
L71316 73352
L71288 73295
L71288 73070
L71316 73014
L71373 72986
L71485 72986
L71541 73014
L71570 73070
L71570 73127
L71288 73183
" />
<path d="M71823 73323
L71851 73352
L71823 73380
L71795 73352
L71823 73323
L71823 73380
" />
<path d="M71823 73014
L71851 73042
L71823 73070
L71795 73042
L71823 73014
L71823 73070
" />
<path d="M72751 73070
L72835 73099
L72863 73127
L72891 73183
L72891 73267
L72863 73323
L72835 73352
L72779 73380
L72554 73380
L72554 72789
L72751 72789
L72807 72817
L72835 72845
L72863 72902
L72863 72958
L72835 73014
L72807 73042
L72751 73070
L72554 73070
" />
<path d="M73144 73380
L73144 72986
" />
<path d="M73144 72789
L73116 72817
L73144 72845
L73172 72817
L73144 72789
L73144 72845
" />
<path d="M73679 72986
L73679 73464
L73651 73520
L73622 73548
L73566 73577
L73482 73577
L73426 73548
" />
<path d="M73679 73352
L73622 73380
L73510 73380
L73454 73352
L73426 73323
L73397 73267
L73397 73099
L73426 73042
L73454 73014
L73510 72986
L73622 72986
L73679 73014
" />
<path d="M73876 72789
L74213 72789
" />
<path d="M74044 73380
L74044 72789
" />
<path d="M74410 73380
L74410 72986
" />
<path d="M74410 73099
L74438 73042
L74466 73014
L74522 72986
L74579 72986
" />
<path d="M75000 73352
L74944 73380
L74832 73380
L74775 73352
L74747 73295
L74747 73070
L74775 73014
L74832 72986
L74944 72986
L75000 73014
L75028 73070
L75028 73127
L74747 73183
" />
<path d="M75507 73352
L75450 73380
L75338 73380
L75282 73352
L75253 73295
L75253 73070
L75282 73014
L75338 72986
L75450 72986
L75507 73014
L75535 73070
L75535 73127
L75253 73183
" />
<path d="M75788 73323
L75816 73352
L75788 73380
L75760 73352
L75788 73323
L75788 73380
" />
<path d="M76069 73380
L76069 72789
" />
<path d="M76125 73155
L76294 73380
" />
<path d="M76294 72986
L76069 73211
" />
<path d="M76547 73380
L76547 72986
" />
<path d="M76547 72789
L76519 72817
L76547 72845
L76575 72817
L76547 72789
L76547 72845
" />
<path d="M77081 73352
L77025 73380
L76913 73380
L76856 73352
L76828 73323
L76800 73267
L76800 73099
L76828 73042
L76856 73014
L76913 72986
L77025 72986
L77081 73014
" />
<path d="M77588 73380
L77588 73070
L77559 73014
L77503 72986
L77391 72986
L77334 73014
" />
<path d="M77588 73352
L77531 73380
L77391 73380
L77334 73352
L77306 73295
L77306 73239
L77334 73183
L77391 73155
L77531 73155
L77588 73127
" />
<path d="M78122 73380
L78122 72789
" />
<path d="M78122 73352
L78066 73380
L77953 73380
L77897 73352
L77869 73323
L77841 73267
L77841 73099
L77869 73042
L77897 73014
L77953 72986
L78066 72986
L78122 73014
" />
<path d="M78262 73436
L78712 73436
" />
<path d="M78853 72986
L78853 73577
" />
<path d="M78853 73014
L78909 72986
L79022 72986
L79078 73014
L79106 73042
L79134 73099
L79134 73267
L79106 73323
L79078 73352
L79022 73380
L78909 73380
L78853 73352
" />
<path d="M79640 73352
L79584 73380
L79472 73380
L79415 73352
L79387 73323
L79359 73267
L79359 73099
L79387 73042
L79415 73014
L79472 72986
L79584 72986
L79640 73014
" />
<path d="M79894 73380
L79894 72789
" />
<path d="M79894 73014
L79950 72986
L80062 72986
L80118 73014
L80147 73042
L80175 73099
L80175 73267
L80147 73323
L80118 73352
L80062 73380
L79950 73380
L79894 73352
" />
</g>
<g style="fill:#000000; fill-opacity:0.0; 
stroke:#000000; stroke-width:39.3701; stroke-opacity:1; 
stroke-linecap:round; stroke-linejoin:round;">
</g>
<g style="fill:#000000; fill-opacity:0.0; 
stroke:#000000; stroke-width:59.0551; stroke-opacity:1; 
stroke-linecap:round; stroke-linejoin:round;">
<path d="M69685 71459
L112205 71459
" />
</g>
<g style="fill:#000000; fill-opacity:0.0; 
stroke:#000000; stroke-width:39.3701; stroke-opacity:1; 
stroke-linecap:round; stroke-linejoin:round;">
</g>
<g style="fill:#000000; fill-opacity:0.0; 
stroke:#000000; stroke-width:59.0551; stroke-opacity:1; 
stroke-linecap:round; stroke-linejoin:round;">
<path d="M70192 72289
L70276 72317
L70417 72317
L70473 72289
L70501 72260
L70529 72204
L70529 72148
L70501 72092
L70473 72064
L70417 72036
L70304 72007
L70248 71979
L70220 71951
L70192 71895
L70192 71839
L70220 71782
L70248 71754
L70304 71726
L70445 71726
L70529 71754
" />
<path d="M70782 72317
L70782 71726
" />
<path d="M71035 72317
L71035 72007
L71007 71951
L70951 71923
L70867 71923
L70810 71951
L70782 71979
" />
<path d="M71541 72289
L71485 72317
L71373 72317
L71316 72289
L71288 72232
L71288 72007
L71316 71951
L71373 71923
L71485 71923
L71541 71951
L71570 72007
L71570 72064
L71288 72120
" />
<path d="M72048 72289
L71991 72317
L71879 72317
L71823 72289
L71795 72232
L71795 72007
L71823 71951
L71879 71923
L71991 71923
L72048 71951
L72076 72007
L72076 72064
L71795 72120
" />
<path d="M72244 71923
L72469 71923
" />
<path d="M72329 71726
L72329 72232
L72357 72289
L72413 72317
L72469 72317
" />
<path d="M72666 72260
L72694 72289
L72666 72317
L72638 72289
L72666 72260
L72666 72317
" />
<path d="M72666 71951
L72694 71979
L72666 72007
L72638 71979
L72666 71951
L72666 72007
" />
</g>
<g style="fill:#000000; fill-opacity:0.0; 
stroke:#000000; stroke-width:39.3701; stroke-opacity:1; 
stroke-linecap:round; stroke-linejoin:round;">
</g>
<g style="fill:#000000; fill-opacity:0.0; 
stroke:#000000; stroke-width:59.0551; stroke-opacity:1; 
stroke-linecap:round; stroke-linejoin:round;">
<path d="M77559 75396
L77559 76577
" />
</g>
<g style="fill:#000000; fill-opacity:0.0; 
stroke:#000000; stroke-width:39.3701; stroke-opacity:1; 
stroke-linecap:round; stroke-linejoin:round;">
</g>
<g style="fill:#000000; fill-opacity:0.0; 
stroke:#000000; stroke-width:59.0551; stroke-opacity:1; 
stroke-linecap:round; stroke-linejoin:round;">
<path d="M102756 75396
L102756 77955
" />
</g>
<g style="fill:#000000; fill-opacity:0.0; 
stroke:#000000; stroke-width:118.11; stroke-opacity:1; 
stroke-linecap:round; stroke-linejoin:round;">
<path d="M43120 46467
L43007 46467
L42951 46439
L42923 46410
L42867 46326
L42838 46214
L42838 45989
L42867 45932
L42895 45904
L42951 45876
L43063 45876
L43120 45904
L43148 45932
L43176 45989
L43176 46129
L43148 46185
L43120 46214
L43063 46242
L42951 46242
L42895 46214
L42867 46185
L42838 46129
" />
<path d="M42220 45876
L42023 46467
L41826 45876
" />
<path d="M41545 46467
L41601 46439
L41629 46410
L41657 46354
L41657 46185
L41629 46129
L41601 46101
L41545 46073
L41460 46073
L41404 46101
L41376 46129
L41348 46185
L41348 46354
L41376 46410
L41404 46439
L41460 46467
L41545 46467
" />
<path d="M41011 46467
L41067 46439
L41095 46382
L41095 45876
" />
<path d="M40870 46073
L40645 46073
" />
<path d="M40786 45876
L40786 46382
L40757 46439
L40701 46467
L40645 46467
" />
<path d="M40476 46439
L40420 46467
L40307 46467
L40251 46439
L40223 46382
L40223 46354
L40251 46298
L40307 46270
L40392 46270
L40448 46242
L40476 46185
L40476 46157
L40448 46101
L40392 46073
L40307 46073
L40251 46101
" />
</g>
<g style="fill:#000000; fill-opacity:0.0; 
stroke:#000000; stroke-width:196.85; stroke-opacity:1; 
stroke-linecap:round; stroke-linejoin:round;">
<path d="M56030 40556
L56030 39768
" />
<path d="M56030 40143
L55580 40143
" />
<path d="M55580 40556
L55580 39768
" />
<path d="M54868 40556
L54868 40143
L54905 40068
L54980 40031
L55130 40031
L55205 40068
" />
<path d="M54868 40518
L54943 40556
L55130 40556
L55205 40518
L55243 40443
L55243 40368
L55205 40293
L55130 40256
L54943 40256
L54868 40218
" />
<path d="M54493 40031
L54493 40818
" />
<path d="M54493 40068
L54418 40031
L54268 40031
L54193 40068
L54155 40106
L54118 40181
L54118 40406
L54155 40481
L54193 40518
L54268 40556
L54418 40556
L54493 40518
" />
<path d="M53780 40031
L53780 40818
" />
<path d="M53780 40068
L53705 40031
L53555 40031
L53480 40068
L53443 40106
L53405 40181
L53405 40406
L53443 40481
L53480 40518
L53555 40556
L53705 40556
L53780 40518
" />
<path d="M53143 40031
L52956 40556
" />
<path d="M52768 40031
L52956 40556
L53031 40743
L53068 40781
L53143 40818
" />
<path d="M51868 40556
L51868 39768
L51418 40556
L51418 39768
" />
<path d="M50743 40518
L50818 40556
L50968 40556
L51043 40518
L51081 40443
L51081 40143
L51043 40068
L50968 40031
L50818 40031
L50743 40068
L50706 40143
L50706 40218
L51081 40293
" />
<path d="M50443 40031
L50293 40556
L50143 40181
L49993 40556
L49843 40031
" />
<path d="M48794 40181
L48794 40556
" />
<path d="M49056 39768
L48794 40181
L48531 39768
" />
<path d="M47969 40518
L48044 40556
L48194 40556
L48269 40518
L48306 40443
L48306 40143
L48269 40068
L48194 40031
L48044 40031
L47969 40068
L47931 40143
L47931 40218
L48306 40293
" />
<path d="M47256 40556
L47256 40143
L47294 40068
L47369 40031
L47519 40031
L47594 40068
" />
<path d="M47256 40518
L47331 40556
L47519 40556
L47594 40518
L47631 40443
L47631 40368
L47594 40293
L47519 40256
L47331 40256
L47256 40218
" />
<path d="M46881 40556
L46881 40031
" />
<path d="M46881 40181
L46844 40106
L46806 40068
L46731 40031
L46656 40031
" />
</g>
<g style="fill:#000000; fill-opacity:0.0; 
stroke:#000000; stroke-width:393.701; stroke-opacity:1; 
stroke-linecap:round; stroke-linejoin:round;">
<path d="M49500 34806
L49500 35368
" />
<path d="M50062 35143
L49500 35368
L48937 35143
" />
<path d="M49837 35818
L49500 35368
L49162 35818
" />
<path d="M44500 22806
L44500 23368
" />
<path d="M45062 23143
L44500 23368
L43937 23143
" />
<path d="M44837 23818
L44500 23368
L44162 23818
" />
</g>
<g style="fill:#000000; fill-opacity:0.0; 
stroke:#000000; stroke-width:196.85; stroke-opacity:1; 
stroke-linecap:round; stroke-linejoin:round;">
<path d="M30900 29422
L30900 29890
" />
<path d="M30431 29703
L30900 29890
L31368 29703
" />
<path d="M30618 30265
L30900 29890
L31181 30265
" />
</g>
<g style="fill:#000000; fill-opacity:0.0; 
stroke:#000000; stroke-width:393.701; stroke-opacity:1; 
stroke-linecap:round; stroke-linejoin:round;">
<path d="M39500 20806
L39500 21368
" />
<path d="M40062 21143
L39500 21368
L38937 21143
" />
<path d="M39837 21818
L39500 21368
L39162 21818
" />
<path d="M39600 26806
L39600 27368
" />
<path d="M40162 27143
L39600 27368
L39037 27143
" />
<path d="M39937 27818
L39600 27368
L39262 27818
" />
<path d="M35200 36106
L35200 36668
" />
<path d="M35762 36443
L35200 36668
L34637 36443
" />
<path d="M35537 37118
L35200 36668
L34862 37118
" />
</g>
<g style="fill:#000000; fill-opacity:0.0; 
stroke:#000000; stroke-width:196.85; stroke-opacity:1; 
stroke-linecap:round; stroke-linejoin:round;">
<path d="M41300 35622
L41300 36090
" />
<path d="M40831 35903
L41300 36090
L41768 35903
" />
<path d="M41018 36465
L41300 36090
L41581 36465
" />
<path d="M40200 18722
L40200 19190
" />
<path d="M39731 19003
L40200 19190
L40668 19003
" />
<path d="M39918 19565
L40200 19190
L40481 19565
" />
<path d="M39800 35022
L39800 35490
" />
<path d="M39331 35303
L39800 35490
L40268 35303
" />
<path d="M39518 35865
L39800 35490
L40081 35865
" />
</g>
<g style="fill:#000000; fill-opacity:0.0; 
stroke:#000000; stroke-width:118.11; stroke-opacity:1; 
stroke-linecap:round; stroke-linejoin:round;">
<path d="M27700 39853
L27700 40134
" />
<path d="M27418 40021
L27700 40134
L27981 40021
" />
<path d="M27531 40359
L27700 40134
L27868 40359
" />
</g>
<g style="fill:#000000; fill-opacity:0.0; 
stroke:#000000; stroke-width:196.85; stroke-opacity:1; 
stroke-linecap:round; stroke-linejoin:round;">
<path d="M39500 30022
L39500 30490
" />
<path d="M39031 30303
L39500 30490
L39968 30303
" />
<path d="M39218 30865
L39500 30490
L39781 30865
" />
</g>
<g style="fill:#000000; fill-opacity:0.0; 
stroke:#000000; stroke-width:118.11; stroke-opacity:1; 
stroke-linecap:round; stroke-linejoin:round;">
<path d="M49900 37453
L49900 37734
" />
<path d="M50181 37621
L49900 37734
L49618 37621
" />
<path d="M50068 37959
L49900 37734
L49731 37959
" />
</g>
<g style="fill:#000000; fill-opacity:0.0; 
stroke:#000000; stroke-width:196.85; stroke-opacity:1; 
stroke-linecap:round; stroke-linejoin:round;">
<path d="M53200 29422
L53200 29890
" />
<path d="M52731 29703
L53200 29890
L53668 29703
" />
<path d="M52918 30265
L53200 29890
L53481 30265
" />
<path d="M35800 27622
L35800 28090
" />
<path d="M35331 27903
L35800 28090
L36268 27903
" />
<path d="M35518 28465
L35800 28090
L36081 28465
" />
</g>
<g style="fill:#000000; fill-opacity:0.0; 
stroke:#000000; stroke-width:118.11; stroke-opacity:1; 
stroke-linecap:round; stroke-linejoin:round;">
<path d="M43800 17353
L43800 17634
" />
<path d="M44081 17521
L43800 17634
L43518 17521
" />
<path d="M43968 17859
L43800 17634
L43631 17859
" />
<path d="M48700 27653
L48700 27934
" />
<path d="M48418 27821
L48700 27934
L48981 27821
" />
<path d="M48531 28159
L48700 27934
L48868 28159
" />
</g>
<g style="fill:#000000; fill-opacity:0.0; 
stroke:#000000; stroke-width:147.638; stroke-opacity:1; 
stroke-linecap:round; stroke-linejoin:round;">
<path d="M43831 40167
L44168 40167
" />
<path d="M43999 40167
L43999 39576
L44056 39660
L44112 39717
L44168 39745
" />
</g>
<g style="fill:#000000; fill-opacity:0.0; 
stroke:#000000; stroke-width:196.85; stroke-opacity:1; 
stroke-linecap:round; stroke-linejoin:round;">
<path d="M45918 18794
L45806 18831
L45768 18869
L45731 18944
L45731 19056
L45768 19131
L45806 19169
L45881 19206
L46181 19206
L46181 18419
L45918 18419
L45843 18456
L45806 18494
L45768 18569
L45768 18644
L45806 18719
L45843 18756
L45918 18794
L46181 18794
" />
<path d="M45281 19206
L45356 19169
L45393 19131
L45431 19056
L45431 18831
L45393 18756
L45356 18719
L45281 18681
L45168 18681
L45093 18719
L45056 18756
L45018 18831
L45018 19056
L45056 19131
L45093 19169
L45168 19206
L45281 19206
" />
<path d="M44681 18681
L44681 19206
" />
<path d="M44681 18756
L44643 18719
L44568 18681
L44456 18681
L44381 18719
L44343 18794
L44343 19206
" />
<path d="M43968 18681
L43968 19206
" />
<path d="M43968 18756
L43931 18719
L43856 18681
L43743 18681
L43668 18719
L43631 18794
L43631 19206
" />
<path d="M42956 19169
L43031 19206
L43181 19206
L43256 19169
L43293 19094
L43293 18794
L43256 18719
L43181 18681
L43031 18681
L42956 18719
L42918 18794
L42918 18869
L43293 18944
" />
<path d="M42618 19169
L42543 19206
L42393 19206
L42318 19169
L42281 19094
L42281 19056
L42318 18981
L42393 18944
L42506 18944
L42581 18906
L42618 18831
L42618 18794
L42581 18719
L42506 18681
L42393 18681
L42318 18719
" />
<path d="M45056 20093
L45318 20093
" />
<path d="M45318 20505
L45318 19718
L44943 19718
" />
<path d="M44343 20468
L44418 20505
L44568 20505
L44643 20468
L44681 20393
L44681 20093
L44643 20018
L44568 19980
L44418 19980
L44343 20018
L44306 20093
L44306 20168
L44681 20243
" />
<path d="M44643 19793
L44493 19680
L44343 19793
" />
<path d="M44081 19980
L43781 19980
" />
<path d="M43968 19718
L43968 20393
L43931 20468
L43856 20505
L43781 20505
" />
<path d="M43218 20468
L43293 20505
L43443 20505
L43518 20468
L43556 20393
L43556 20093
L43518 20018
L43443 19980
L43293 19980
L43218 20018
L43181 20093
L43181 20168
L43556 20243
" />
<path d="M42881 20468
L42806 20505
L42656 20505
L42581 20468
L42543 20393
L42543 20355
L42581 20280
L42656 20243
L42768 20243
L42843 20205
L42881 20130
L42881 20093
L42843 20018
L42768 19980
L42656 19980
L42581 20018
" />
<path d="M47093 25706
L47093 24919
" />
<path d="M47093 25294
L46643 25294
" />
<path d="M46643 25706
L46643 24919
" />
<path d="M45931 25706
L45931 25294
L45968 25219
L46043 25181
L46193 25181
L46268 25219
" />
<path d="M45931 25669
L46006 25706
L46193 25706
L46268 25669
L46306 25594
L46306 25519
L46268 25444
L46193 25406
L46006 25406
L45931 25369
" />
<path d="M45556 25181
L45556 25969
" />
<path d="M45556 25219
L45481 25181
L45331 25181
L45256 25219
L45218 25256
L45181 25331
L45181 25556
L45218 25631
L45256 25669
L45331 25706
L45481 25706
L45556 25669
" />
<path d="M44843 25181
L44843 25969
" />
<path d="M44843 25219
L44768 25181
L44618 25181
L44543 25219
L44506 25256
L44468 25331
L44468 25556
L44506 25631
L44543 25669
L44618 25706
L44768 25706
L44843 25669
" />
<path d="M44206 25181
L44018 25706
" />
<path d="M43831 25181
L44018 25706
L44093 25894
L44131 25931
L44206 25969
" />
<path d="M47787 26930
L47824 26968
L47937 27005
L48012 27005
L48124 26968
L48199 26893
L48237 26818
L48274 26668
L48274 26555
L48237 26405
L48199 26330
L48124 26255
L48012 26218
L47937 26218
L47824 26255
L47787 26293
" />
<path d="M47449 27005
L47449 26218
" />
<path d="M47112 27005
L47112 26593
L47149 26518
L47224 26480
L47337 26480
L47412 26518
L47449 26555
" />
<path d="M46737 27005
L46737 26480
" />
<path d="M46737 26630
L46699 26555
L46662 26518
L46587 26480
L46512 26480
" />
<path d="M46249 27005
L46249 26480
" />
<path d="M46249 26218
L46287 26255
L46249 26293
L46212 26255
L46249 26218
L46249 26293
" />
<path d="M45912 26968
L45837 27005
L45687 27005
L45612 26968
L45574 26893
L45574 26855
L45612 26780
L45687 26743
L45799 26743
L45874 26705
L45912 26630
L45912 26593
L45874 26518
L45799 26480
L45687 26480
L45612 26518
" />
<path d="M45350 26480
L45050 26480
" />
<path d="M45237 26218
L45237 26893
L45200 26968
L45125 27005
L45050 27005
" />
<path d="M44787 27005
L44787 26480
" />
<path d="M44787 26555
L44750 26518
L44675 26480
L44562 26480
L44487 26518
L44450 26593
L44450 27005
" />
<path d="M44450 26593
L44412 26518
L44337 26480
L44225 26480
L44150 26518
L44112 26593
L44112 27005
" />
<path d="M43400 27005
L43400 26593
L43437 26518
L43512 26480
L43662 26480
L43737 26518
" />
<path d="M43400 26968
L43475 27005
L43662 27005
L43737 26968
L43775 26893
L43775 26818
L43737 26743
L43662 26705
L43475 26705
L43400 26668
" />
<path d="M43062 26968
L42987 27005
L42837 27005
L42762 26968
L42725 26893
L42725 26855
L42762 26780
L42837 26743
L42950 26743
L43025 26705
L43062 26630
L43062 26593
L43025 26518
L42950 26480
L42837 26480
L42762 26518
" />
<path d="M45299 45056
L44700 45056
" />
<path d="M45000 45356
L45000 44756
" />
<path d="M40056 24169
L40056 24731
L40093 24844
L40168 24919
L40281 24956
L40356 24956
" />
<path d="M39568 24956
L39643 24919
L39681 24881
L39718 24806
L39718 24581
L39681 24506
L39643 24469
L39568 24431
L39456 24431
L39381 24469
L39343 24506
L39306 24581
L39306 24806
L39343 24881
L39381 24919
L39456 24956
L39568 24956
" />
<path d="M39043 24431
L38856 24956
" />
<path d="M38668 24431
L38856 24956
L38931 25144
L38968 25181
L39043 25219
" />
<path d="M38068 24919
L38143 24956
L38293 24956
L38368 24919
L38406 24844
L38406 24544
L38368 24469
L38293 24431
L38143 24431
L38068 24469
L38031 24544
L38031 24619
L38406 24694
" />
<path d="M37356 24431
L37356 24956
" />
<path d="M37693 24431
L37693 24844
L37656 24919
L37581 24956
L37468 24956
L37393 24919
L37356 24881
" />
<path d="M37056 24956
L36643 24431
" />
<path d="M37056 24431
L36643 24956
" />
<path d="M39324 26255
L39324 25468
L38874 26255
L38874 25468
" />
<path d="M38387 26255
L38462 26218
L38500 26180
L38537 26105
L38537 25880
L38500 25805
L38462 25768
L38387 25730
L38275 25730
L38200 25768
L38162 25805
L38125 25880
L38125 26105
L38162 26180
L38200 26218
L38275 26255
L38387 26255
" />
<path d="M37487 26218
L37562 26255
L37712 26255
L37787 26218
L37825 26143
L37825 25843
L37787 25768
L37712 25730
L37562 25730
L37487 25768
L37450 25843
L37450 25918
L37825 25993
" />
<path d="M37787 25468
L37750 25505
L37787 25543
L37825 25505
L37787 25468
L37787 25543
" />
<path d="M37487 25468
L37450 25505
L37487 25543
L37525 25505
L37487 25468
L37487 25543
" />
<path d="M37000 26255
L37075 26218
L37112 26143
L37112 25468
" />
</g>
<g style="fill:#000000; fill-opacity:0.0; 
stroke:#000000; stroke-width:59.0551; stroke-opacity:1; 
stroke-linecap:round; stroke-linejoin:round;">
<path d="M26000 41000
L38000 41000
" />
<path d="M46000 41000
L58000 41000
" />
<path d="M46000 48000
L46000 41000
" />
<path d="M38000 48000
L46000 48000
" />
<path d="M38000 41000
L38000 48000
" />
<path d="M42000 13000
L51000 22000
" />
<path d="M51000 22000
L52000 23000
" />
<path d="M52000 23000
L47000 23000
" />
<path d="M47000 23000
L55000 31000
" />
<path d="M55000 31000
L48000 31000
" />
<path d="M48000 31000
L58000 41000
" />
<path d="M36000 31000
L26000 41000
" />
<path d="M29000 31000
L36000 31000
" />
<path d="M37000 23000
L29000 31000
" />
<path d="M32000 23000
L37000 23000
" />
<path d="M33000 22000
L32000 23000
" />
<path d="M42000 13000
L33000 22000
" />
</g>
<g style="fill:#000000; fill-opacity:0.0; 
stroke:#000000; stroke-width:0; stroke-opacity:1; 
stroke-linecap:round; stroke-linejoin:round;">
</g>
<g style="fill:#000000; fill-opacity:1.0; 
stroke:#000000; stroke-width:0; stroke-opacity:1; 
stroke-linecap:round; stroke-linejoin:round;">
<polyline style="fill-rule:evenodd;"
points="42840,40382
43706,40382
43706,40618
42840,40618
42840,40382
" /> 
<polyline style="fill-rule:evenodd;"
points="42840,40882
43706,40882
43706,41118
42840,41118
42840,40882
" /> 
<polyline style="fill-rule:evenodd;"
points="42840,41382
43706,41382
43706,41618
42840,41618
42840,41382
" /> 
<polyline style="fill-rule:evenodd;"
points="42840,41882
43706,41882
43706,42118
42840,42118
42840,41882
" /> 
<polyline style="fill-rule:evenodd;"
points="40294,41882
41160,41882
41160,42118
40294,42118
40294,41882
" /> 
<polyline style="fill-rule:evenodd;"
points="40294,41382
41160,41382
41160,41618
40294,41618
40294,41382
" /> 
<polyline style="fill-rule:evenodd;"
points="40294,40882
41160,40882
41160,41118
40294,41118
40294,40882
" /> 
<polyline style="fill-rule:evenodd;"
points="40294,40382
41160,40382
41160,40618
40294,40618
40294,40382
" /> 
<polyline style="fill-rule:evenodd;"
points="41235,38955
41235,38245
41865,38245
41865,38955
41235,38955
" /> 
<polyline style="fill-rule:evenodd;"
points="40135,38955
40135,38245
40765,38245
40765,38955
40135,38955
" /> 
<polyline style="fill-rule:evenodd;"
points="43535,38955
43535,38245
44165,38245
44165,38955
43535,38955
" /> 
<polyline style="fill-rule:evenodd;"
points="42435,38955
42435,38245
43065,38245
43065,38955
42435,38955
" /> 
<polyline style="fill-rule:evenodd;"
points="44508,43216
45492,43216
45492,43984
44508,43984
44508,43216
" /> 
<polyline style="fill-rule:evenodd;"
points="44508,42016
45492,42016
45492,42784
44508,42784
44508,42016
" /> 
<polyline style="fill-rule:evenodd;"
points="41893,16643
41106,16643
41106,15856
41893,15856
41893,16643
" /> 
<circle cx="42500" cy="16250" r="393.701" /> 
</g>
<g style="fill:#000000; fill-opacity:1.0; 
stroke:#000000; stroke-width:39.3701; stroke-opacity:1; 
stroke-linecap:round; stroke-linejoin:round;">
</g>
<g style="fill:#000000; fill-opacity:1.0; 
stroke:#000000; stroke-width:0; stroke-opacity:1; 
stroke-linecap:round; stroke-linejoin:round;">
<polyline style="fill-rule:evenodd;"
points="35643,21893
34856,21893
34856,21106
35643,21106
35643,21893
" /> 
<circle cx="36250" cy="21500" r="393.701" /> 
</g>
<g style="fill:#000000; fill-opacity:1.0; 
stroke:#000000; stroke-width:39.3701; stroke-opacity:1; 
stroke-linecap:round; stroke-linejoin:round;">
</g>
<g style="fill:#000000; fill-opacity:1.0; 
stroke:#000000; stroke-width:0; stroke-opacity:1; 
stroke-linecap:round; stroke-linejoin:round;">
<polyline style="fill-rule:evenodd;"
points="48393,21893
47606,21893
47606,21106
48393,21106
48393,21893
" /> 
<circle cx="49000" cy="21500" r="393.701" /> 
</g>
<g style="fill:#000000; fill-opacity:1.0; 
stroke:#000000; stroke-width:39.3701; stroke-opacity:1; 
stroke-linecap:round; stroke-linejoin:round;">
</g>
<g style="fill:#000000; fill-opacity:1.0; 
stroke:#000000; stroke-width:0; stroke-opacity:1; 
stroke-linecap:round; stroke-linejoin:round;">
<polyline style="fill-rule:evenodd;"
points="41893,32393
41106,32393
41106,31606
41893,31606
41893,32393
" /> 
<circle cx="42500" cy="32000" r="393.701" /> 
</g>
<g style="fill:#000000; fill-opacity:1.0; 
stroke:#000000; stroke-width:39.3701; stroke-opacity:1; 
stroke-linecap:round; stroke-linejoin:round;">
</g>
<g style="fill:#000000; fill-opacity:1.0; 
stroke:#000000; stroke-width:0; stroke-opacity:1; 
stroke-linecap:round; stroke-linejoin:round;">
<polyline style="fill-rule:evenodd;"
points="32606,29356
33393,29356
33393,30143
32606,30143
32606,29356
" /> 
<circle cx="32000" cy="29750" r="393.701" /> 
</g>
<g style="fill:#000000; fill-opacity:1.0; 
stroke:#000000; stroke-width:39.3701; stroke-opacity:1; 
stroke-linecap:round; stroke-linejoin:round;">
</g>
<g style="fill:#000000; fill-opacity:1.0; 
stroke:#000000; stroke-width:0; stroke-opacity:1; 
stroke-linecap:round; stroke-linejoin:round;">
<polyline style="fill-rule:evenodd;"
points="51606,29106
52393,29106
52393,29893
51606,29893
51606,29106
" /> 
<circle cx="51000" cy="29500" r="393.701" /> 
</g>
<g style="fill:#000000; fill-opacity:1.0; 
stroke:#000000; stroke-width:39.3701; stroke-opacity:1; 
stroke-linecap:round; stroke-linejoin:round;">
</g>
<g style="fill:#000000; fill-opacity:1.0; 
stroke:#000000; stroke-width:0; stroke-opacity:1; 
stroke-linecap:round; stroke-linejoin:round;">
<polyline style="fill-rule:evenodd;"
points="29606,38606
30393,38606
30393,39393
29606,39393
29606,38606
" /> 
<circle cx="29000" cy="39000" r="393.701" /> 
</g>
<g style="fill:#000000; fill-opacity:1.0; 
stroke:#000000; stroke-width:39.3701; stroke-opacity:1; 
stroke-linecap:round; stroke-linejoin:round;">
</g>
<g style="fill:#000000; fill-opacity:1.0; 
stroke:#000000; stroke-width:0; stroke-opacity:1; 
stroke-linecap:round; stroke-linejoin:round;">
<polyline style="fill-rule:evenodd;"
points="52606,38606
53393,38606
53393,39393
52606,39393
52606,38606
" /> 
<circle cx="52000" cy="39000" r="393.701" /> 
</g>
<g style="fill:#000000; fill-opacity:1.0; 
stroke:#000000; stroke-width:39.3701; stroke-opacity:1; 
stroke-linecap:round; stroke-linejoin:round;">
</g>
<g style="fill:#000000; fill-opacity:1.0; 
stroke:#000000; stroke-width:0; stroke-opacity:1; 
stroke-linecap:round; stroke-linejoin:round;">
<circle cx="45750" cy="28250" r="300" /> 
</g>
<g style="fill:#000000; fill-opacity:1.0; 
stroke:#000000; stroke-width:39.3701; stroke-opacity:1; 
stroke-linecap:round; stroke-linejoin:round;">
</g>
<g style="fill:#000000; fill-opacity:1.0; 
stroke:#000000; stroke-width:0; stroke-opacity:1; 
stroke-linecap:round; stroke-linejoin:round;">
<circle cx="45750" cy="32250" r="300" /> 
</g>
<g style="fill:#000000; fill-opacity:1.0; 
stroke:#000000; stroke-width:39.3701; stroke-opacity:1; 
stroke-linecap:round; stroke-linejoin:round;">
</g>
<g style="fill:#000000; fill-opacity:1.0; 
stroke:#000000; stroke-width:0; stroke-opacity:1; 
stroke-linecap:round; stroke-linejoin:round;">
<circle cx="43500" cy="36000" r="300" /> 
</g>
<g style="fill:#000000; fill-opacity:1.0; 
stroke:#000000; stroke-width:39.3701; stroke-opacity:1; 
stroke-linecap:round; stroke-linejoin:round;">
</g>
<g style="fill:#000000; fill-opacity:1.0; 
stroke:#000000; stroke-width:0; stroke-opacity:1; 
stroke-linecap:round; stroke-linejoin:round;">
<circle cx="43500" cy="32000" r="300" /> 
</g>
<g style="fill:#000000; fill-opacity:1.0; 
stroke:#000000; stroke-width:39.3701; stroke-opacity:1; 
stroke-linecap:round; stroke-linejoin:round;">
</g>
<g style="fill:#000000; fill-opacity:1.0; 
stroke:#000000; stroke-width:0; stroke-opacity:1; 
stroke-linecap:round; stroke-linejoin:round;">
<circle cx="37000" cy="34000" r="300" /> 
</g>
<g style="fill:#000000; fill-opacity:1.0; 
stroke:#000000; stroke-width:39.3701; stroke-opacity:1; 
stroke-linecap:round; stroke-linejoin:round;">
</g>
<g style="fill:#000000; fill-opacity:1.0; 
stroke:#000000; stroke-width:0; stroke-opacity:1; 
stroke-linecap:round; stroke-linejoin:round;">
<circle cx="37000" cy="30000" r="300" /> 
</g>
<g style="fill:#000000; fill-opacity:1.0; 
stroke:#000000; stroke-width:39.3701; stroke-opacity:1; 
stroke-linecap:round; stroke-linejoin:round;">
</g>
<g style="fill:#000000; fill-opacity:1.0; 
stroke:#000000; stroke-width:0; stroke-opacity:1; 
stroke-linecap:round; stroke-linejoin:round;">
<circle cx="35500" cy="38750" r="300" /> 
</g>
<g style="fill:#000000; fill-opacity:1.0; 
stroke:#000000; stroke-width:39.3701; stroke-opacity:1; 
stroke-linecap:round; stroke-linejoin:round;">
</g>
<g style="fill:#000000; fill-opacity:1.0; 
stroke:#000000; stroke-width:0; stroke-opacity:1; 
stroke-linecap:round; stroke-linejoin:round;">
<circle cx="31500" cy="38750" r="300" /> 
</g>
<g style="fill:#000000; fill-opacity:1.0; 
stroke:#000000; stroke-width:39.3701; stroke-opacity:1; 
stroke-linecap:round; stroke-linejoin:round;">
</g>
<g style="fill:#000000; fill-opacity:1.0; 
stroke:#000000; stroke-width:0; stroke-opacity:1; 
stroke-linecap:round; stroke-linejoin:round;">
<polyline style="fill-rule:evenodd;"
points="40992,43284
40008,43284
40008,42516
40992,42516
40992,43284
" /> 
<polyline style="fill-rule:evenodd;"
points="40992,44484
40008,44484
40008,43716
40992,43716
40992,44484
" /> 
<polyline style="fill-rule:evenodd;"
points="43712,47287
43712,45712
45287,45712
45287,47287
43712,47287
" /> 
<circle cx="39500" cy="46500" r="787.5" /> 
</g>
<g style="fill:#000000; fill-opacity:1.0; 
stroke:#000000; stroke-width:39.3701; stroke-opacity:1; 
stroke-linecap:round; stroke-linejoin:round;">
</g>
<g style="fill:#000000; fill-opacity:1.0; 
stroke:#000000; stroke-width:0; stroke-opacity:1; 
stroke-linecap:round; stroke-linejoin:round;">
<polyline style="fill-rule:evenodd;"
points="41988,44229
41516,44229
41516,43953
41988,43953
41988,44229
" /> 
<polyline style="fill-rule:evenodd;"
points="42302,43638
41515,43638
41515,43362
42302,43362
42302,43638
" /> 
<polyline style="fill-rule:evenodd;"
points="41988,43047
41516,43047
41516,42771
41988,42771
41988,43047
" /> 
<polyline style="fill-rule:evenodd;"
points="43405,43933
42302,43933
42302,43067
43405,43067
43405,43933
" /> 
<circle cx="44000" cy="43000" r="118.11" /> 
</g>
<g style="fill:#000000; fill-opacity:1.0; 
stroke:#000000; stroke-width:39.3701; stroke-opacity:1; 
stroke-linecap:round; stroke-linejoin:round;">
</g>
<g style="fill:#000000; fill-opacity:1.0; 
stroke:#000000; stroke-width:0; stroke-opacity:1; 
stroke-linecap:round; stroke-linejoin:round;">
<circle cx="42500" cy="25500" r="118.11" /> 
</g>
<g style="fill:#000000; fill-opacity:1.0; 
stroke:#000000; stroke-width:39.3701; stroke-opacity:1; 
stroke-linecap:round; stroke-linejoin:round;">
</g>
<g style="fill:#000000; fill-opacity:1.0; 
stroke:#000000; stroke-width:393.701; stroke-opacity:1; 
stroke-linecap:round; stroke-linejoin:round;">
</g>
<g style="fill:#000000; fill-opacity:0.0; 
stroke:#000000; stroke-width:393.701; stroke-opacity:1; 
stroke-linecap:round; stroke-linejoin:round;">
<path d="M43850 38600
L43850 39250
" />
<path d="M42600 42000
L43273 42000
" />
<path d="M42500 41900
L42600 42000
" />
<path d="M42500 39700
L42500 41900
" />
<path d="M42700 39500
L42500 39700
" />
<path d="M43600 39500
L42700 39500
" />
<path d="M43850 39250
L43600 39500
" />
<path d="M45000 42400
L44000 42400
" />
<path d="M44000 42400
L44000 42500
" />
<path d="M40500 44100
L41743 44100
" />
<path d="M41743 44100
L41752 44091
" />
<path d="M44000 42000
L44000 42500
" />
<path d="M44000 42500
L44000 43000
" />
<path d="M43273 42000
L44000 42000
" />
</g>
<g style="fill:#000000; fill-opacity:0.0; 
stroke:#000000; stroke-width:787.402; stroke-opacity:1; 
stroke-linecap:round; stroke-linejoin:round;">
<path d="M40500 44100
L39600 44100
" />
<path d="M39500 44500
L39500 46500
" />
<path d="M39600 44100
L39500 44500
" />
</g>
<g style="fill:#000000; fill-opacity:0.0; 
stroke:#000000; stroke-width:393.701; stroke-opacity:1; 
stroke-linecap:round; stroke-linejoin:round;">
<path d="M42100 38600
L42100 38100
" />
<path d="M44300 40500
L43273 40500
" />
<path d="M44600 40200
L44300 40500
" />
<path d="M44600 38100
L44600 40200
" />
<path d="M44200 37700
L44600 38100
" />
<path d="M42500 37700
L44200 37700
" />
<path d="M42100 38100
L42500 37700
" />
<path d="M41550 38600
L42100 38600
" />
<path d="M42100 38600
L42750 38600
" />
<path d="M43000 40500
L43273 40500
" />
<path d="M43250 40500
L43273 40500
" />
<path d="M42850 38500
L42750 38600
" />
<path d="M47125 31125
L53250 37250
" />
<path d="M53250 37250
L53250 38750
" />
<path d="M53250 38750
L53000 39000
" />
<path d="M47250 31250
L47125 31125
" />
<path d="M47125 31125
L47000 31000
" />
<path d="M47000 31000
L46500 30500
" />
<path d="M46500 30500
L52250 30500
" />
<path d="M52250 30500
L52000 29500
" />
<path d="M29000 39000
L29000 40250
" />
<path d="M38500 42000
L40727 42000
" />
<path d="M38250 41750
L38500 42000
" />
<path d="M38250 40750
L38250 41750
" />
<path d="M38000 40500
L38250 40750
" />
<path d="M29250 40500
L38000 40500
" />
<path d="M29000 40250
L29250 40500
" />
<path d="M29000 39000
L29000 38500
" />
<path d="M36250 31000
L36250 30750
" />
<path d="M36250 31250
L36250 31000
" />
<path d="M29000 38500
L36250 31250
" />
<path d="M49000 21500
L49000 22250
" />
<path d="M51750 28250
L51750 29250
" />
<path d="M46000 22500
L51750 28250
" />
<path d="M48750 22500
L46000 22500
" />
<path d="M49000 22250
L48750 22500
" />
<path d="M51750 29250
L52000 29500
" />
<path d="M35250 21500
L35250 22500
" />
<path d="M32000 28500
L32000 29750
" />
<path d="M37750 22750
L32000 28500
" />
<path d="M35500 22750
L37750 22750
" />
<path d="M35250 22500
L35500 22750
" />
<path d="M32000 29750
L32000 30750
" />
<path d="M32000 30750
L33000 30750
" />
<path d="M33000 30750
L36250 30750
" />
<path d="M36250 30750
L37750 30750
" />
<path d="M37750 30750
L39000 32000
" />
<path d="M39000 32000
L41500 32000
" />
<path d="M42500 16250
L42500 15250
" />
<path d="M42000 14750
L42000 14000
" />
<path d="M42500 15250
L42000 14750
" />
<path d="M49000 21500
L49000 20750
" />
<path d="M49000 20750
L42500 14250
" />
<path d="M35250 20500
L41750 14000
" />
<path d="M41750 14000
L42000 14000
" />
<path d="M42000 14000
L42250 14000
" />
<path d="M42250 14000
L42500 14250
" />
<path d="M42500 14250
L42750 14500
" />
<path d="M35250 21500
L35250 20500
" />
<path d="M45750 28250
L42500 28250
" />
<path d="M41500 27250
L41500 16250
" />
<path d="M42500 28250
L41500 27250
" />
<path d="M41500 16250
L39000 18750
" />
<path d="M39000 18750
L36250 21500
" />
<path d="M42500 22250
L42500 25500
" />
<path d="M43250 21500
L42500 22250
" />
<path d="M48000 21500
L43250 21500
" />
<path d="M42500 32000
L43500 32000
" />
<path d="M33000 29750
L36750 29750
" />
<path d="M51000 29500
L38750 29500
" />
<path d="M38750 29500
L38250 30000
" />
<path d="M36750 29750
L37000 30000
" />
<path d="M38250 30000
L37000 30000
" />
<path d="M52000 39000
L48500 39000
" />
<path d="M47750 33250
L45750 31250
" />
<path d="M47750 38250
L47750 33250
" />
<path d="M48500 39000
L47750 38250
" />
<path d="M31500 38750
L31500 37500
" />
<path d="M44750 31250
L45750 31250
" />
<path d="M45750 31250
L46000 31250
" />
<path d="M44500 31500
L44750 31250
" />
<path d="M44500 33750
L44500 31500
" />
<path d="M44000 34250
L44500 33750
" />
<path d="M39500 34250
L44000 34250
" />
<path d="M38000 32750
L39500 34250
" />
<path d="M36250 32750
L38000 32750
" />
<path d="M31500 37500
L36250 32750
" />
<path d="M31500 38750
L30250 38750
" />
<path d="M30250 38750
L30000 39000
" />
<path d="M43500 36000
L45200 36900
" />
<path d="M44500 41000
L43273 41000
" />
<path d="M45200 40350
L44500 41000
" />
<path d="M45200 36900
L45200 40350
" />
<path d="M46500 33250
L46500 38500
" />
<path d="M46500 38500
L46500 39250
" />
<path d="M45000 41500
L43273 41500
" />
<path d="M45750 40750
L45000 41500
" />
<path d="M45750 40000
L45750 40750
" />
<path d="M46500 39250
L45750 40000
" />
<path d="M45750 32250
L45750 32500
" />
<path d="M45750 32500
L46500 33250
" />
<path d="M43273 41500
L43000 41500
" />
<path d="M46500 38500
L46500 38250
" />
<path d="M40727 41500
L39250 41500
" />
<path d="M39250 41500
L39250 41250
" />
<path d="M39250 41250
L39250 41500
" />
<path d="M35500 38750
L37250 38750
" />
<path d="M38750 41000
L39250 41500
" />
<path d="M39250 41500
L39250 41500
" />
<path d="M38750 40500
L38750 41000
" />
<path d="M38000 39750
L38750 40500
" />
<path d="M38000 39500
L38000 39750
" />
<path d="M37250 38750
L38000 39500
" />
<path d="M37000 35250
L37000 34000
" />
<path d="M38750 37000
L37000 35250
" />
<path d="M38750 39750
L38750 37000
" />
<path d="M40727 41000
L40000 41000
" />
<path d="M40000 41000
L38750 39750
" />
<path d="M45000 43600
L44400 43600
" />
<path d="M44400 43600
L44000 44000
" />
</g>
<g style="fill:#000000; fill-opacity:0.0; 
stroke:#000000; stroke-width:787.402; stroke-opacity:1; 
stroke-linecap:round; stroke-linejoin:round;">
<path d="M42854 43500
L43500 43500
" />
<path d="M44000 45500
L44500 46500
" />
<path d="M44000 44000
L44000 45500
" />
<path d="M43500 43500
L44000 44000
" />
</g>
<g style="fill:#000000; fill-opacity:0.0; 
stroke:#000000; stroke-width:393.701; stroke-opacity:1; 
stroke-linecap:round; stroke-linejoin:round;">
<path d="M41752 42909
L41752 40752
" />
<path d="M41500 40500
L40727 40500
" />
<path d="M41752 40752
L41500 40500
" />
<path d="M41752 42909
L40509 42909
" />
<path d="M40509 42909
L40500 42900
" />
<path d="M40450 38600
L40450 40450
" />
<path d="M40400 40500
L40727 40500
" />
<path d="M40450 40450
L40400 40500
" />
<path d="M40727 40500
L40500 40500
" />
<path d="M40750 40500
L40500 40500
" />
</g>
<g style="fill:#FFFFFF; fill-opacity:0.0; 
stroke:#FFFFFF; stroke-width:393.701; stroke-opacity:1; 
stroke-linecap:round; stroke-linejoin:round;">
</g>
<g style="fill:#FFFFFF; fill-opacity:1.0; 
stroke:#FFFFFF; stroke-width:0; stroke-opacity:1; 
stroke-linecap:round; stroke-linejoin:round;">
<circle cx="44000" cy="43000" r="78.7402" /> 
</g>
<g style="fill:#FFFFFF; fill-opacity:1.0; 
stroke:#FFFFFF; stroke-width:39.3701; stroke-opacity:1; 
stroke-linecap:round; stroke-linejoin:round;">
</g>
<g style="fill:#FFFFFF; fill-opacity:1.0; 
stroke:#FFFFFF; stroke-width:0; stroke-opacity:1; 
stroke-linecap:round; stroke-linejoin:round;">
<circle cx="42500" cy="25500" r="78.7402" /> 
</g>
<g style="fill:#FFFFFF; fill-opacity:1.0; 
stroke:#FFFFFF; stroke-width:39.3701; stroke-opacity:1; 
stroke-linecap:round; stroke-linejoin:round;">
</g>
<g style="fill:#FFFFFF; fill-opacity:1.0; 
stroke:#FFFFFF; stroke-width:0; stroke-opacity:1; 
stroke-linecap:round; stroke-linejoin:round;">
<circle cx="41500" cy="16250" r="197" /> 
</g>
<g style="fill:#FFFFFF; fill-opacity:1.0; 
stroke:#FFFFFF; stroke-width:39.3701; stroke-opacity:1; 
stroke-linecap:round; stroke-linejoin:round;">
</g>
<g style="fill:#FFFFFF; fill-opacity:1.0; 
stroke:#FFFFFF; stroke-width:0; stroke-opacity:1; 
stroke-linecap:round; stroke-linejoin:round;">
<circle cx="42500" cy="16250" r="197" /> 
</g>
<g style="fill:#FFFFFF; fill-opacity:1.0; 
stroke:#FFFFFF; stroke-width:39.3701; stroke-opacity:1; 
stroke-linecap:round; stroke-linejoin:round;">
</g>
<g style="fill:#FFFFFF; fill-opacity:1.0; 
stroke:#FFFFFF; stroke-width:0; stroke-opacity:1; 
stroke-linecap:round; stroke-linejoin:round;">
<circle cx="35250" cy="21500" r="197" /> 
</g>
<g style="fill:#FFFFFF; fill-opacity:1.0; 
stroke:#FFFFFF; stroke-width:39.3701; stroke-opacity:1; 
stroke-linecap:round; stroke-linejoin:round;">
</g>
<g style="fill:#FFFFFF; fill-opacity:1.0; 
stroke:#FFFFFF; stroke-width:0; stroke-opacity:1; 
stroke-linecap:round; stroke-linejoin:round;">
<circle cx="36250" cy="21500" r="197" /> 
</g>
<g style="fill:#FFFFFF; fill-opacity:1.0; 
stroke:#FFFFFF; stroke-width:39.3701; stroke-opacity:1; 
stroke-linecap:round; stroke-linejoin:round;">
</g>
<g style="fill:#FFFFFF; fill-opacity:1.0; 
stroke:#FFFFFF; stroke-width:0; stroke-opacity:1; 
stroke-linecap:round; stroke-linejoin:round;">
<circle cx="48000" cy="21500" r="197" /> 
</g>
<g style="fill:#FFFFFF; fill-opacity:1.0; 
stroke:#FFFFFF; stroke-width:39.3701; stroke-opacity:1; 
stroke-linecap:round; stroke-linejoin:round;">
</g>
<g style="fill:#FFFFFF; fill-opacity:1.0; 
stroke:#FFFFFF; stroke-width:0; stroke-opacity:1; 
stroke-linecap:round; stroke-linejoin:round;">
<circle cx="49000" cy="21500" r="197" /> 
</g>
<g style="fill:#FFFFFF; fill-opacity:1.0; 
stroke:#FFFFFF; stroke-width:39.3701; stroke-opacity:1; 
stroke-linecap:round; stroke-linejoin:round;">
</g>
<g style="fill:#FFFFFF; fill-opacity:1.0; 
stroke:#FFFFFF; stroke-width:0; stroke-opacity:1; 
stroke-linecap:round; stroke-linejoin:round;">
<circle cx="41500" cy="32000" r="197" /> 
</g>
<g style="fill:#FFFFFF; fill-opacity:1.0; 
stroke:#FFFFFF; stroke-width:39.3701; stroke-opacity:1; 
stroke-linecap:round; stroke-linejoin:round;">
</g>
<g style="fill:#FFFFFF; fill-opacity:1.0; 
stroke:#FFFFFF; stroke-width:0; stroke-opacity:1; 
stroke-linecap:round; stroke-linejoin:round;">
<circle cx="42500" cy="32000" r="197" /> 
</g>
<g style="fill:#FFFFFF; fill-opacity:1.0; 
stroke:#FFFFFF; stroke-width:39.3701; stroke-opacity:1; 
stroke-linecap:round; stroke-linejoin:round;">
</g>
<g style="fill:#FFFFFF; fill-opacity:1.0; 
stroke:#FFFFFF; stroke-width:0; stroke-opacity:1; 
stroke-linecap:round; stroke-linejoin:round;">
<circle cx="33000" cy="29750" r="197" /> 
</g>
<g style="fill:#FFFFFF; fill-opacity:1.0; 
stroke:#FFFFFF; stroke-width:39.3701; stroke-opacity:1; 
stroke-linecap:round; stroke-linejoin:round;">
</g>
<g style="fill:#FFFFFF; fill-opacity:1.0; 
stroke:#FFFFFF; stroke-width:0; stroke-opacity:1; 
stroke-linecap:round; stroke-linejoin:round;">
<circle cx="32000" cy="29750" r="197" /> 
</g>
<g style="fill:#FFFFFF; fill-opacity:1.0; 
stroke:#FFFFFF; stroke-width:39.3701; stroke-opacity:1; 
stroke-linecap:round; stroke-linejoin:round;">
</g>
<g style="fill:#FFFFFF; fill-opacity:1.0; 
stroke:#FFFFFF; stroke-width:0; stroke-opacity:1; 
stroke-linecap:round; stroke-linejoin:round;">
<circle cx="52000" cy="29500" r="197" /> 
</g>
<g style="fill:#FFFFFF; fill-opacity:1.0; 
stroke:#FFFFFF; stroke-width:39.3701; stroke-opacity:1; 
stroke-linecap:round; stroke-linejoin:round;">
</g>
<g style="fill:#FFFFFF; fill-opacity:1.0; 
stroke:#FFFFFF; stroke-width:0; stroke-opacity:1; 
stroke-linecap:round; stroke-linejoin:round;">
<circle cx="51000" cy="29500" r="197" /> 
</g>
<g style="fill:#FFFFFF; fill-opacity:1.0; 
stroke:#FFFFFF; stroke-width:39.3701; stroke-opacity:1; 
stroke-linecap:round; stroke-linejoin:round;">
</g>
<g style="fill:#FFFFFF; fill-opacity:1.0; 
stroke:#FFFFFF; stroke-width:0; stroke-opacity:1; 
stroke-linecap:round; stroke-linejoin:round;">
<circle cx="30000" cy="39000" r="197" /> 
</g>
<g style="fill:#FFFFFF; fill-opacity:1.0; 
stroke:#FFFFFF; stroke-width:39.3701; stroke-opacity:1; 
stroke-linecap:round; stroke-linejoin:round;">
</g>
<g style="fill:#FFFFFF; fill-opacity:1.0; 
stroke:#FFFFFF; stroke-width:0; stroke-opacity:1; 
stroke-linecap:round; stroke-linejoin:round;">
<circle cx="29000" cy="39000" r="197" /> 
</g>
<g style="fill:#FFFFFF; fill-opacity:1.0; 
stroke:#FFFFFF; stroke-width:39.3701; stroke-opacity:1; 
stroke-linecap:round; stroke-linejoin:round;">
</g>
<g style="fill:#FFFFFF; fill-opacity:1.0; 
stroke:#FFFFFF; stroke-width:0; stroke-opacity:1; 
stroke-linecap:round; stroke-linejoin:round;">
<circle cx="53000" cy="39000" r="197" /> 
</g>
<g style="fill:#FFFFFF; fill-opacity:1.0; 
stroke:#FFFFFF; stroke-width:39.3701; stroke-opacity:1; 
stroke-linecap:round; stroke-linejoin:round;">
</g>
<g style="fill:#FFFFFF; fill-opacity:1.0; 
stroke:#FFFFFF; stroke-width:0; stroke-opacity:1; 
stroke-linecap:round; stroke-linejoin:round;">
<circle cx="52000" cy="39000" r="197" /> 
</g>
<g style="fill:#FFFFFF; fill-opacity:1.0; 
stroke:#FFFFFF; stroke-width:39.3701; stroke-opacity:1; 
stroke-linecap:round; stroke-linejoin:round;">
</g>
<g style="fill:#FFFFFF; fill-opacity:1.0; 
stroke:#FFFFFF; stroke-width:0; stroke-opacity:1; 
stroke-linecap:round; stroke-linejoin:round;">
<circle cx="45750" cy="28250" r="160" /> 
</g>
<g style="fill:#FFFFFF; fill-opacity:1.0; 
stroke:#FFFFFF; stroke-width:39.3701; stroke-opacity:1; 
stroke-linecap:round; stroke-linejoin:round;">
</g>
<g style="fill:#FFFFFF; fill-opacity:1.0; 
stroke:#FFFFFF; stroke-width:0; stroke-opacity:1; 
stroke-linecap:round; stroke-linejoin:round;">
<circle cx="45750" cy="32250" r="160" /> 
</g>
<g style="fill:#FFFFFF; fill-opacity:1.0; 
stroke:#FFFFFF; stroke-width:39.3701; stroke-opacity:1; 
stroke-linecap:round; stroke-linejoin:round;">
</g>
<g style="fill:#FFFFFF; fill-opacity:1.0; 
stroke:#FFFFFF; stroke-width:0; stroke-opacity:1; 
stroke-linecap:round; stroke-linejoin:round;">
<circle cx="43500" cy="36000" r="160" /> 
</g>
<g style="fill:#FFFFFF; fill-opacity:1.0; 
stroke:#FFFFFF; stroke-width:39.3701; stroke-opacity:1; 
stroke-linecap:round; stroke-linejoin:round;">
</g>
<g style="fill:#FFFFFF; fill-opacity:1.0; 
stroke:#FFFFFF; stroke-width:0; stroke-opacity:1; 
stroke-linecap:round; stroke-linejoin:round;">
<circle cx="43500" cy="32000" r="160" /> 
</g>
<g style="fill:#FFFFFF; fill-opacity:1.0; 
stroke:#FFFFFF; stroke-width:39.3701; stroke-opacity:1; 
stroke-linecap:round; stroke-linejoin:round;">
</g>
<g style="fill:#FFFFFF; fill-opacity:1.0; 
stroke:#FFFFFF; stroke-width:0; stroke-opacity:1; 
stroke-linecap:round; stroke-linejoin:round;">
<circle cx="37000" cy="34000" r="160" /> 
</g>
<g style="fill:#FFFFFF; fill-opacity:1.0; 
stroke:#FFFFFF; stroke-width:39.3701; stroke-opacity:1; 
stroke-linecap:round; stroke-linejoin:round;">
</g>
<g style="fill:#FFFFFF; fill-opacity:1.0; 
stroke:#FFFFFF; stroke-width:0; stroke-opacity:1; 
stroke-linecap:round; stroke-linejoin:round;">
<circle cx="37000" cy="30000" r="160" /> 
</g>
<g style="fill:#FFFFFF; fill-opacity:1.0; 
stroke:#FFFFFF; stroke-width:39.3701; stroke-opacity:1; 
stroke-linecap:round; stroke-linejoin:round;">
</g>
<g style="fill:#FFFFFF; fill-opacity:1.0; 
stroke:#FFFFFF; stroke-width:0; stroke-opacity:1; 
stroke-linecap:round; stroke-linejoin:round;">
<circle cx="35500" cy="38750" r="160" /> 
</g>
<g style="fill:#FFFFFF; fill-opacity:1.0; 
stroke:#FFFFFF; stroke-width:39.3701; stroke-opacity:1; 
stroke-linecap:round; stroke-linejoin:round;">
</g>
<g style="fill:#FFFFFF; fill-opacity:1.0; 
stroke:#FFFFFF; stroke-width:0; stroke-opacity:1; 
stroke-linecap:round; stroke-linejoin:round;">
<circle cx="31500" cy="38750" r="160" /> 
</g>
<g style="fill:#FFFFFF; fill-opacity:1.0; 
stroke:#FFFFFF; stroke-width:39.3701; stroke-opacity:1; 
stroke-linecap:round; stroke-linejoin:round;">
</g>
<g style="fill:#FFFFFF; fill-opacity:1.0; 
stroke:#FFFFFF; stroke-width:0; stroke-opacity:1; 
stroke-linecap:round; stroke-linejoin:round;">
<circle cx="44500" cy="46500" r="160" /> 
</g>
<g style="fill:#FFFFFF; fill-opacity:1.0; 
stroke:#FFFFFF; stroke-width:39.3701; stroke-opacity:1; 
stroke-linecap:round; stroke-linejoin:round;">
</g>
<g style="fill:#FFFFFF; fill-opacity:1.0; 
stroke:#FFFFFF; stroke-width:0; stroke-opacity:1; 
stroke-linecap:round; stroke-linejoin:round;">
<circle cx="39500" cy="46500" r="160" /> 
</g>
<g style="fill:#FFFFFF; fill-opacity:1.0; 
stroke:#FFFFFF; stroke-width:39.3701; stroke-opacity:1; 
stroke-linecap:round; stroke-linejoin:round;">
</g>
<g style="fill:#000000; fill-opacity:1.0; 
stroke:#000000; stroke-width:39.3701; stroke-opacity:1; 
stroke-linecap:round; stroke-linejoin:round;">
</g> 
</svg>
