G04 #@! TF.FileFunction,Copper,L1,Top,Signal*
%FSLAX46Y46*%
G04 Gerber Fmt 4.6, Leading zero omitted, Abs format (unit mm)*
G04 Created by KiCad (PCBNEW 4.0.1-stable) date 27/05/2016 22:17:39*
%MOMM*%
G01*
G04 APERTURE LIST*
%ADD10C,0.150000*%
%ADD11C,0.225000*%
%ADD12C,0.250000*%
%ADD13C,0.200000*%
%ADD14C,1.524000*%
%ADD15R,2.032000X1.524000*%
%ADD16R,1.524000X2.032000*%
%ADD17R,1.600200X1.803400*%
%ADD18R,1.198880X1.198880*%
%ADD19R,1.998980X0.599440*%
%ADD20C,0.889000*%
%ADD21C,0.800000*%
%ADD22C,0.600000*%
G04 APERTURE END LIST*
D10*
D11*
X318768572Y-198367143D02*
X319911429Y-198367143D01*
D12*
X313068572Y-198547143D02*
X314211429Y-198547143D01*
X313640000Y-199118571D02*
X313640000Y-197975714D01*
D13*
X314785715Y-201281905D02*
X314785715Y-200481905D01*
X314785715Y-200862857D02*
X315242858Y-200862857D01*
X315242858Y-201281905D02*
X315242858Y-200481905D01*
X315585715Y-201053333D02*
X315966667Y-201053333D01*
X315509524Y-201281905D02*
X315776191Y-200481905D01*
X316042858Y-201281905D01*
X316309524Y-201281905D02*
X316309524Y-200481905D01*
X316614286Y-200481905D01*
X316690477Y-200520000D01*
X316728572Y-200558095D01*
X316766667Y-200634286D01*
X316766667Y-200748571D01*
X316728572Y-200824762D01*
X316690477Y-200862857D01*
X316614286Y-200900952D01*
X316309524Y-200900952D01*
X317109524Y-201281905D02*
X317109524Y-200481905D01*
X317414286Y-200481905D01*
X317490477Y-200520000D01*
X317528572Y-200558095D01*
X317566667Y-200634286D01*
X317566667Y-200748571D01*
X317528572Y-200824762D01*
X317490477Y-200862857D01*
X317414286Y-200900952D01*
X317109524Y-200900952D01*
X318061905Y-200900952D02*
X318061905Y-201281905D01*
X317795238Y-200481905D02*
X318061905Y-200900952D01*
X318328572Y-200481905D01*
X313871429Y-202525714D02*
X313833334Y-202563810D01*
X313719048Y-202601905D01*
X313642858Y-202601905D01*
X313528572Y-202563810D01*
X313452381Y-202487619D01*
X313414286Y-202411429D01*
X313376191Y-202259048D01*
X313376191Y-202144762D01*
X313414286Y-201992381D01*
X313452381Y-201916190D01*
X313528572Y-201840000D01*
X313642858Y-201801905D01*
X313719048Y-201801905D01*
X313833334Y-201840000D01*
X313871429Y-201878095D01*
X314214286Y-202601905D02*
X314214286Y-201801905D01*
X314214286Y-202182857D02*
X314671429Y-202182857D01*
X314671429Y-202601905D02*
X314671429Y-201801905D01*
X315509524Y-202601905D02*
X315242857Y-202220952D01*
X315052381Y-202601905D02*
X315052381Y-201801905D01*
X315357143Y-201801905D01*
X315433334Y-201840000D01*
X315471429Y-201878095D01*
X315509524Y-201954286D01*
X315509524Y-202068571D01*
X315471429Y-202144762D01*
X315433334Y-202182857D01*
X315357143Y-202220952D01*
X315052381Y-202220952D01*
X315852381Y-202601905D02*
X315852381Y-201801905D01*
X316195238Y-202563810D02*
X316309524Y-202601905D01*
X316500000Y-202601905D01*
X316576190Y-202563810D01*
X316614286Y-202525714D01*
X316652381Y-202449524D01*
X316652381Y-202373333D01*
X316614286Y-202297143D01*
X316576190Y-202259048D01*
X316500000Y-202220952D01*
X316347619Y-202182857D01*
X316271428Y-202144762D01*
X316233333Y-202106667D01*
X316195238Y-202030476D01*
X316195238Y-201954286D01*
X316233333Y-201878095D01*
X316271428Y-201840000D01*
X316347619Y-201801905D01*
X316538095Y-201801905D01*
X316652381Y-201840000D01*
X316880952Y-201801905D02*
X317338095Y-201801905D01*
X317109524Y-202601905D02*
X317109524Y-201801905D01*
X317604762Y-202601905D02*
X317604762Y-201801905D01*
X317871429Y-202373333D01*
X318138096Y-201801905D01*
X318138096Y-202601905D01*
X318480953Y-202373333D02*
X318861905Y-202373333D01*
X318404762Y-202601905D02*
X318671429Y-201801905D01*
X318938096Y-202601905D01*
X319166667Y-202563810D02*
X319280953Y-202601905D01*
X319471429Y-202601905D01*
X319547619Y-202563810D01*
X319585715Y-202525714D01*
X319623810Y-202449524D01*
X319623810Y-202373333D01*
X319585715Y-202297143D01*
X319547619Y-202259048D01*
X319471429Y-202220952D01*
X319319048Y-202182857D01*
X319242857Y-202144762D01*
X319204762Y-202106667D01*
X319166667Y-202030476D01*
X319166667Y-201954286D01*
X319204762Y-201878095D01*
X319242857Y-201840000D01*
X319319048Y-201801905D01*
X319509524Y-201801905D01*
X319623810Y-201840000D01*
D14*
X317754000Y-199199500D03*
X315214000Y-199199500D03*
D15*
X319024000Y-186499500D03*
X319024000Y-183197500D03*
D16*
X320548000Y-194754500D03*
X323850000Y-194754500D03*
D15*
X313944000Y-183197500D03*
X313944000Y-186499500D03*
D16*
X312420000Y-194754500D03*
X309118000Y-194754500D03*
D17*
X317881000Y-196786500D03*
X315087000Y-196786500D03*
D18*
X316484000Y-176118520D03*
X316484000Y-174020480D03*
X311150000Y-185897520D03*
X311150000Y-183799480D03*
X321818000Y-183799480D03*
X321818000Y-185897520D03*
X316484000Y-180243480D03*
X316484000Y-182341520D03*
X308229000Y-191358520D03*
X308229000Y-189260480D03*
X306959000Y-196438520D03*
X306959000Y-194340480D03*
X324739000Y-191358520D03*
X324739000Y-189260480D03*
X326009000Y-194340480D03*
X326009000Y-196438520D03*
D19*
X313690000Y-188531500D03*
X313690000Y-189801500D03*
X313690000Y-191071500D03*
X313690000Y-192341500D03*
X319278000Y-192341500D03*
X319278000Y-191071500D03*
X319278000Y-189801500D03*
X319278000Y-188531500D03*
D20*
X321208400Y-188556900D03*
X309981600Y-192366900D03*
X312470800Y-197040500D03*
X311302400Y-189572900D03*
D21*
X319278000Y-188531500D02*
X321183000Y-188531500D01*
X321183000Y-188531500D02*
X321208400Y-188556900D01*
X309981600Y-192366900D02*
X310007000Y-192392300D01*
X310007000Y-192392300D02*
X313690000Y-192341500D01*
X317754000Y-199199500D02*
X317754000Y-196913500D01*
X317754000Y-196913500D02*
X317881000Y-196786500D01*
X312470800Y-197040500D02*
X312724800Y-196786500D01*
X315087000Y-196786500D02*
X312724800Y-196786500D01*
X312343800Y-188531500D02*
X313690000Y-188531500D01*
X311302400Y-189572900D02*
X312343800Y-188531500D01*
X316484000Y-176022000D02*
X314388500Y-176022000D01*
X313944000Y-176466500D02*
X313944000Y-183197500D01*
X314388500Y-176022000D02*
X313944000Y-176466500D01*
X311150000Y-183896000D02*
X313245500Y-183896000D01*
X313245500Y-183896000D02*
X313944000Y-183197500D01*
X319278000Y-192341500D02*
X322249800Y-192341500D01*
X323100700Y-189357000D02*
X324739000Y-189357000D01*
X322529200Y-189928500D02*
X323100700Y-189357000D01*
X322529200Y-192062100D02*
X322529200Y-189928500D01*
X322249800Y-192341500D02*
X322529200Y-192062100D01*
X306959000Y-196342000D02*
X306959000Y-196913500D01*
X304749200Y-197396100D02*
X304749200Y-197485000D01*
X306476400Y-197396100D02*
X304749200Y-197396100D01*
X306959000Y-196913500D02*
X306476400Y-197396100D01*
X308229000Y-189357000D02*
X307835300Y-189357000D01*
X307835300Y-189357000D02*
X306984400Y-188506100D01*
X311150000Y-185801000D02*
X309435500Y-185801000D01*
X309435500Y-185801000D02*
X309308500Y-185801000D01*
D22*
X307340000Y-185483500D02*
X308991000Y-185483500D01*
X311086500Y-181737000D02*
X307340000Y-185483500D01*
X311086500Y-181102000D02*
X311086500Y-181737000D01*
D21*
X309308500Y-185801000D02*
X308991000Y-185483500D01*
X309372000Y-185864500D02*
X309435500Y-185801000D01*
D22*
X305943000Y-191833500D02*
X306197000Y-192087500D01*
X306197000Y-192087500D02*
X306197000Y-192468500D01*
X306197000Y-192468500D02*
X301180500Y-197485000D01*
X309372000Y-186118500D02*
X306984400Y-188506100D01*
X306984400Y-188506100D02*
X303657000Y-191833500D01*
X309372000Y-185864500D02*
X309372000Y-186118500D01*
X303657000Y-191833500D02*
X305943000Y-191833500D01*
D21*
X311086500Y-185864500D02*
X311150000Y-185801000D01*
X321818000Y-185801000D02*
X323786500Y-185801000D01*
X323786500Y-185801000D02*
X323850000Y-185864500D01*
X316484000Y-180340000D02*
X316484000Y-178650900D01*
X316941200Y-178193700D02*
X322656200Y-178193700D01*
X316484000Y-178650900D02*
X316941200Y-178193700D01*
D22*
X331419200Y-197345300D02*
X328777600Y-197345300D01*
X328218800Y-194144900D02*
X331419200Y-197345300D01*
X326390000Y-192671700D02*
X326796400Y-192671700D01*
X326796400Y-192671700D02*
X328218800Y-194094100D01*
X328218800Y-194094100D02*
X328218800Y-194144900D01*
X328625200Y-197497700D02*
X325577200Y-197497700D01*
X328777600Y-197345300D02*
X328625200Y-197497700D01*
X326390000Y-191655700D02*
X326390000Y-192671700D01*
X326390000Y-192671700D02*
X326390000Y-194056000D01*
X326390000Y-194056000D02*
X326009000Y-194437000D01*
X329387200Y-191655700D02*
X326390000Y-191655700D01*
X328218800Y-190487300D02*
X329387200Y-191655700D01*
X328218800Y-190436500D02*
X325678800Y-187896500D01*
X324866000Y-187134500D02*
X325628000Y-187896500D01*
X325628000Y-187896500D02*
X325678800Y-187896500D01*
X328218800Y-190436500D02*
X328218800Y-190487300D01*
X326390000Y-191655700D02*
X326339200Y-191604900D01*
X324866000Y-187134500D02*
X324866000Y-189230000D01*
X324866000Y-189230000D02*
X324739000Y-189357000D01*
X323850000Y-185864500D02*
X323850000Y-186118500D01*
X321818000Y-181038500D02*
X321564000Y-181546500D01*
X325501000Y-181038500D02*
X321818000Y-181038500D01*
X323469000Y-185356500D02*
X325501000Y-185356500D01*
X321691000Y-181546500D02*
X325501000Y-185356500D01*
X321564000Y-181546500D02*
X321691000Y-181546500D01*
X323469000Y-185356500D02*
X323850000Y-185864500D01*
X323850000Y-186118500D02*
X324866000Y-187134500D01*
X301180500Y-197485000D02*
X304749200Y-197485000D01*
X304749200Y-197485000D02*
X305371500Y-197485000D01*
X305371500Y-197485000D02*
X305435000Y-197548500D01*
X301180500Y-197485000D02*
X301117000Y-197548500D01*
X307530500Y-181102000D02*
X311086500Y-181102000D01*
X311086500Y-181102000D02*
X311150000Y-181165500D01*
X316484000Y-172402500D02*
X316230000Y-172402500D01*
X316230000Y-172402500D02*
X307530500Y-181102000D01*
X307530500Y-181102000D02*
X307467000Y-181165500D01*
X316484000Y-172402500D02*
X316865000Y-172402500D01*
X316484000Y-174117000D02*
X316484000Y-172402500D01*
X316865000Y-172402500D02*
X322656200Y-178193700D01*
X322656200Y-178193700D02*
X325501000Y-181038500D01*
X325501000Y-181038500D02*
X325755000Y-181292500D01*
D21*
X319024000Y-183197500D02*
X319608200Y-183197500D01*
X320306700Y-183896000D02*
X321818000Y-183896000D01*
X319608200Y-183197500D02*
X320306700Y-183896000D01*
X319024000Y-183197500D02*
X318338200Y-183197500D01*
X317385700Y-182245000D02*
X316484000Y-182245000D01*
X318338200Y-183197500D02*
X317385700Y-182245000D01*
X308229000Y-191262000D02*
X308229000Y-192290700D01*
X308229000Y-192290700D02*
X308229000Y-192163700D01*
X306959000Y-194437000D02*
X308800500Y-194437000D01*
X308800500Y-194437000D02*
X309118000Y-194754500D01*
X308229000Y-191262000D02*
X308229000Y-192163700D01*
X308229000Y-192163700D02*
X308229000Y-192290700D01*
X306959000Y-193560700D02*
X306959000Y-194437000D01*
X307848000Y-192671700D02*
X306959000Y-193560700D01*
X308229000Y-192290700D02*
X307848000Y-192671700D01*
X323850000Y-194754500D02*
X323850000Y-196405500D01*
X323913500Y-196342000D02*
X326009000Y-196342000D01*
X323850000Y-196405500D02*
X323913500Y-196342000D01*
X323850000Y-194754500D02*
X323850000Y-192151000D01*
X323850000Y-192151000D02*
X324739000Y-191262000D01*
X319024000Y-186499500D02*
X317322200Y-186499500D01*
X314985400Y-189801500D02*
X313690000Y-189801500D01*
X315874400Y-188912500D02*
X314985400Y-189801500D01*
X315874400Y-187947300D02*
X315874400Y-188912500D01*
X317322200Y-186499500D02*
X315874400Y-187947300D01*
X310997600Y-187286900D02*
X313156600Y-187286900D01*
X313690000Y-191071500D02*
X310108600Y-191071500D01*
X313156600Y-187286900D02*
X313944000Y-186499500D01*
X310083200Y-188201300D02*
X310997600Y-187286900D01*
X310083200Y-191046100D02*
X310083200Y-188201300D01*
X310108600Y-191071500D02*
X310083200Y-191046100D01*
X320548000Y-194754500D02*
X319938400Y-194754500D01*
X317627000Y-191071500D02*
X319278000Y-191071500D01*
X317246000Y-191452500D02*
X317627000Y-191071500D01*
X317246000Y-193890900D02*
X317246000Y-191452500D01*
X317195200Y-193941700D02*
X317246000Y-193890900D01*
X319125600Y-193941700D02*
X317195200Y-193941700D01*
X319938400Y-194754500D02*
X319125600Y-193941700D01*
X312420000Y-194754500D02*
X313588400Y-194754500D01*
X316915800Y-189801500D02*
X319278000Y-189801500D01*
X316077600Y-190639700D02*
X316915800Y-189801500D01*
X316077600Y-192925700D02*
X316077600Y-190639700D01*
X315112400Y-193890900D02*
X316077600Y-192925700D01*
X314452000Y-193890900D02*
X315112400Y-193890900D01*
X313588400Y-194754500D02*
X314452000Y-193890900D01*
M02*
