G04 #@! TF.FileFunction,Legend,Top*
%FSLAX46Y46*%
G04 Gerber Fmt 4.6, Leading zero omitted, Abs format (unit mm)*
G04 Created by KiCad (PCBNEW 4.0.1-stable) date 27/05/2016 22:40:19*
%MOMM*%
G01*
G04 APERTURE LIST*
%ADD10C,0.100000*%
%ADD11C,0.150000*%
%ADD12C,0.088900*%
G04 APERTURE END LIST*
D10*
D11*
X105211000Y-42589000D02*
X105211000Y-42389000D01*
X105211000Y-39995000D02*
X105211000Y-40175000D01*
X108438744Y-40305357D02*
G75*
G03X105211000Y-39989000I-1727744J-1003643D01*
G01*
X107763006Y-40175932D02*
G75*
G03X105660000Y-40175000I-1052006J-1133068D01*
G01*
X105223780Y-42615726D02*
G75*
G03X108461000Y-42269000I1497220J1306726D01*
G01*
X105697111Y-42388253D02*
G75*
G03X107745000Y-42369000I1013889J1079253D01*
G01*
X88066000Y-56559000D02*
X88066000Y-56359000D01*
X88066000Y-53965000D02*
X88066000Y-54145000D01*
X91293744Y-54275357D02*
G75*
G03X88066000Y-53959000I-1727744J-1003643D01*
G01*
X90618006Y-54145932D02*
G75*
G03X88515000Y-54145000I-1052006J-1133068D01*
G01*
X88078780Y-56585726D02*
G75*
G03X91316000Y-56239000I1497220J1306726D01*
G01*
X88552111Y-56358253D02*
G75*
G03X90600000Y-56339000I1013889J1079253D01*
G01*
X121721000Y-55924000D02*
X121721000Y-55724000D01*
X121721000Y-53330000D02*
X121721000Y-53510000D01*
X124948744Y-53640357D02*
G75*
G03X121721000Y-53324000I-1727744J-1003643D01*
G01*
X124273006Y-53510932D02*
G75*
G03X122170000Y-53510000I-1052006J-1133068D01*
G01*
X121733780Y-55950726D02*
G75*
G03X124971000Y-55604000I1497220J1306726D01*
G01*
X122207111Y-55723253D02*
G75*
G03X124255000Y-55704000I1013889J1079253D01*
G01*
X105211000Y-77514000D02*
X105211000Y-77314000D01*
X105211000Y-74920000D02*
X105211000Y-75100000D01*
X108438744Y-75230357D02*
G75*
G03X105211000Y-74914000I-1727744J-1003643D01*
G01*
X107763006Y-75100932D02*
G75*
G03X105660000Y-75100000I-1052006J-1133068D01*
G01*
X105223780Y-77540726D02*
G75*
G03X108461000Y-77194000I1497220J1306726D01*
G01*
X105697111Y-77313253D02*
G75*
G03X107745000Y-77294000I1013889J1079253D01*
G01*
X84019000Y-74251000D02*
X84019000Y-74451000D01*
X84019000Y-76845000D02*
X84019000Y-76665000D01*
X80791256Y-76534643D02*
G75*
G03X84019000Y-76851000I1727744J1003643D01*
G01*
X81466994Y-76664068D02*
G75*
G03X83570000Y-76665000I1052006J1133068D01*
G01*
X84006220Y-74224274D02*
G75*
G03X80769000Y-74571000I-1497220J-1306726D01*
G01*
X83532889Y-74451747D02*
G75*
G03X81485000Y-74471000I-1013889J-1079253D01*
G01*
X132279000Y-73616000D02*
X132279000Y-73816000D01*
X132279000Y-76210000D02*
X132279000Y-76030000D01*
X129051256Y-75899643D02*
G75*
G03X132279000Y-76216000I1727744J1003643D01*
G01*
X129726994Y-76029068D02*
G75*
G03X131830000Y-76030000I1052006J1133068D01*
G01*
X132266220Y-73589274D02*
G75*
G03X129029000Y-73936000I-1497220J-1306726D01*
G01*
X131792889Y-73816747D02*
G75*
G03X129745000Y-73836000I-1013889J-1079253D01*
G01*
X75764000Y-99651000D02*
X75764000Y-99851000D01*
X75764000Y-102245000D02*
X75764000Y-102065000D01*
X72536256Y-101934643D02*
G75*
G03X75764000Y-102251000I1727744J1003643D01*
G01*
X73211994Y-102064068D02*
G75*
G03X75315000Y-102065000I1052006J1133068D01*
G01*
X75751220Y-99624274D02*
G75*
G03X72514000Y-99971000I-1497220J-1306726D01*
G01*
X75277889Y-99851747D02*
G75*
G03X73230000Y-99871000I-1013889J-1079253D01*
G01*
X139899000Y-99651000D02*
X139899000Y-99851000D01*
X139899000Y-102245000D02*
X139899000Y-102065000D01*
X136671256Y-101934643D02*
G75*
G03X139899000Y-102251000I1727744J1003643D01*
G01*
X137346994Y-102064068D02*
G75*
G03X139450000Y-102065000I1052006J1133068D01*
G01*
X139886220Y-99624274D02*
G75*
G03X136649000Y-99971000I-1497220J-1306726D01*
G01*
X139412889Y-99851747D02*
G75*
G03X137365000Y-99871000I-1013889J-1079253D01*
G01*
D12*
X103005467Y-117973324D02*
X103005467Y-118880467D01*
X102944991Y-119061895D01*
X102824039Y-119182848D01*
X102642610Y-119243324D01*
X102521658Y-119243324D01*
X104275467Y-119243324D02*
X103549753Y-119243324D01*
X103912610Y-119243324D02*
X103912610Y-117973324D01*
X103791658Y-118154752D01*
X103670705Y-118275705D01*
X103549753Y-118336181D01*
X99060000Y-113876667D02*
X99664762Y-113876667D01*
X98939047Y-114239524D02*
X99362381Y-112969524D01*
X99785714Y-114239524D01*
X100209047Y-114239524D02*
X100209047Y-113392857D01*
X100209047Y-113634762D02*
X100269523Y-113513810D01*
X100329999Y-113453333D01*
X100450952Y-113392857D01*
X100571904Y-113392857D01*
X101539523Y-114239524D02*
X101539523Y-112969524D01*
X101539523Y-114179048D02*
X101418570Y-114239524D01*
X101176666Y-114239524D01*
X101055713Y-114179048D01*
X100995237Y-114118571D01*
X100934761Y-113997619D01*
X100934761Y-113634762D01*
X100995237Y-113513810D01*
X101055713Y-113453333D01*
X101176666Y-113392857D01*
X101418570Y-113392857D01*
X101539523Y-113453333D01*
X102688571Y-113392857D02*
X102688571Y-114239524D01*
X102144285Y-113392857D02*
X102144285Y-114058095D01*
X102204761Y-114179048D01*
X102325714Y-114239524D01*
X102507142Y-114239524D01*
X102628094Y-114179048D01*
X102688571Y-114118571D01*
X103293333Y-114239524D02*
X103293333Y-113392857D01*
X103293333Y-112969524D02*
X103232857Y-113030000D01*
X103293333Y-113090476D01*
X103353809Y-113030000D01*
X103293333Y-112969524D01*
X103293333Y-113090476D01*
X103898095Y-113392857D02*
X103898095Y-114239524D01*
X103898095Y-113513810D02*
X103958571Y-113453333D01*
X104079524Y-113392857D01*
X104260952Y-113392857D01*
X104381904Y-113453333D01*
X104442381Y-113574286D01*
X104442381Y-114239524D01*
X105228572Y-114239524D02*
X105107619Y-114179048D01*
X105047143Y-114118571D01*
X104986667Y-113997619D01*
X104986667Y-113634762D01*
X105047143Y-113513810D01*
X105107619Y-113453333D01*
X105228572Y-113392857D01*
X105410000Y-113392857D01*
X105530952Y-113453333D01*
X105591429Y-113513810D01*
X105651905Y-113634762D01*
X105651905Y-113997619D01*
X105591429Y-114118571D01*
X105530952Y-114179048D01*
X105410000Y-114239524D01*
X105228572Y-114239524D01*
X106921905Y-114118571D02*
X106861429Y-114179048D01*
X106680000Y-114239524D01*
X106559048Y-114239524D01*
X106377620Y-114179048D01*
X106256667Y-114058095D01*
X106196191Y-113937143D01*
X106135715Y-113695238D01*
X106135715Y-113513810D01*
X106196191Y-113271905D01*
X106256667Y-113150952D01*
X106377620Y-113030000D01*
X106559048Y-112969524D01*
X106680000Y-112969524D01*
X106861429Y-113030000D01*
X106921905Y-113090476D01*
X107647620Y-114239524D02*
X107526667Y-114179048D01*
X107466191Y-114118571D01*
X107405715Y-113997619D01*
X107405715Y-113634762D01*
X107466191Y-113513810D01*
X107526667Y-113453333D01*
X107647620Y-113392857D01*
X107829048Y-113392857D01*
X107950000Y-113453333D01*
X108010477Y-113513810D01*
X108070953Y-113634762D01*
X108070953Y-113997619D01*
X108010477Y-114118571D01*
X107950000Y-114179048D01*
X107829048Y-114239524D01*
X107647620Y-114239524D01*
X108615239Y-113392857D02*
X108615239Y-114239524D01*
X108615239Y-113513810D02*
X108675715Y-113453333D01*
X108796668Y-113392857D01*
X108978096Y-113392857D01*
X109099048Y-113453333D01*
X109159525Y-113574286D01*
X109159525Y-114239524D01*
D11*
X118641905Y-41727381D02*
X118641905Y-40727381D01*
X118880000Y-40727381D01*
X119022858Y-40775000D01*
X119118096Y-40870238D01*
X119165715Y-40965476D01*
X119213334Y-41155952D01*
X119213334Y-41298810D01*
X119165715Y-41489286D01*
X119118096Y-41584524D01*
X119022858Y-41679762D01*
X118880000Y-41727381D01*
X118641905Y-41727381D01*
X120165715Y-41727381D02*
X119594286Y-41727381D01*
X119880000Y-41727381D02*
X119880000Y-40727381D01*
X119784762Y-40870238D01*
X119689524Y-40965476D01*
X119594286Y-41013095D01*
X103458095Y-43467381D02*
X103458095Y-42467381D01*
X104029524Y-43467381D02*
X103600952Y-42895952D01*
X104029524Y-42467381D02*
X103458095Y-43038810D01*
X81176905Y-55697381D02*
X81176905Y-54697381D01*
X81415000Y-54697381D01*
X81557858Y-54745000D01*
X81653096Y-54840238D01*
X81700715Y-54935476D01*
X81748334Y-55125952D01*
X81748334Y-55268810D01*
X81700715Y-55459286D01*
X81653096Y-55554524D01*
X81557858Y-55649762D01*
X81415000Y-55697381D01*
X81176905Y-55697381D01*
X82129286Y-54792619D02*
X82176905Y-54745000D01*
X82272143Y-54697381D01*
X82510239Y-54697381D01*
X82605477Y-54745000D01*
X82653096Y-54792619D01*
X82700715Y-54887857D01*
X82700715Y-54983095D01*
X82653096Y-55125952D01*
X82081667Y-55697381D01*
X82700715Y-55697381D01*
X86313095Y-57437381D02*
X86313095Y-56437381D01*
X86884524Y-57437381D02*
X86455952Y-56865952D01*
X86884524Y-56437381D02*
X86313095Y-57008810D01*
X129436905Y-55062381D02*
X129436905Y-54062381D01*
X129675000Y-54062381D01*
X129817858Y-54110000D01*
X129913096Y-54205238D01*
X129960715Y-54300476D01*
X130008334Y-54490952D01*
X130008334Y-54633810D01*
X129960715Y-54824286D01*
X129913096Y-54919524D01*
X129817858Y-55014762D01*
X129675000Y-55062381D01*
X129436905Y-55062381D01*
X130341667Y-54062381D02*
X130960715Y-54062381D01*
X130627381Y-54443333D01*
X130770239Y-54443333D01*
X130865477Y-54490952D01*
X130913096Y-54538571D01*
X130960715Y-54633810D01*
X130960715Y-54871905D01*
X130913096Y-54967143D01*
X130865477Y-55014762D01*
X130770239Y-55062381D01*
X130484524Y-55062381D01*
X130389286Y-55014762D01*
X130341667Y-54967143D01*
X120682381Y-56611905D02*
X119682381Y-56611905D01*
X120682381Y-56040476D02*
X120110952Y-56469048D01*
X119682381Y-56040476D02*
X120253810Y-56611905D01*
X105306905Y-71572381D02*
X105306905Y-70572381D01*
X105545000Y-70572381D01*
X105687858Y-70620000D01*
X105783096Y-70715238D01*
X105830715Y-70810476D01*
X105878334Y-71000952D01*
X105878334Y-71143810D01*
X105830715Y-71334286D01*
X105783096Y-71429524D01*
X105687858Y-71524762D01*
X105545000Y-71572381D01*
X105306905Y-71572381D01*
X106735477Y-70905714D02*
X106735477Y-71572381D01*
X106497381Y-70524762D02*
X106259286Y-71239048D01*
X106878334Y-71239048D01*
X103458095Y-78392381D02*
X103458095Y-77392381D01*
X104029524Y-78392381D02*
X103600952Y-77820952D01*
X104029524Y-77392381D02*
X103458095Y-77963810D01*
X73556905Y-75382381D02*
X73556905Y-74382381D01*
X73795000Y-74382381D01*
X73937858Y-74430000D01*
X74033096Y-74525238D01*
X74080715Y-74620476D01*
X74128334Y-74810952D01*
X74128334Y-74953810D01*
X74080715Y-75144286D01*
X74033096Y-75239524D01*
X73937858Y-75334762D01*
X73795000Y-75382381D01*
X73556905Y-75382381D01*
X75033096Y-74382381D02*
X74556905Y-74382381D01*
X74509286Y-74858571D01*
X74556905Y-74810952D01*
X74652143Y-74763333D01*
X74890239Y-74763333D01*
X74985477Y-74810952D01*
X75033096Y-74858571D01*
X75080715Y-74953810D01*
X75080715Y-75191905D01*
X75033096Y-75287143D01*
X74985477Y-75334762D01*
X74890239Y-75382381D01*
X74652143Y-75382381D01*
X74556905Y-75334762D01*
X74509286Y-75287143D01*
X85248095Y-74277381D02*
X85248095Y-73277381D01*
X85819524Y-74277381D02*
X85390952Y-73705952D01*
X85819524Y-73277381D02*
X85248095Y-73848810D01*
X137056905Y-75382381D02*
X137056905Y-74382381D01*
X137295000Y-74382381D01*
X137437858Y-74430000D01*
X137533096Y-74525238D01*
X137580715Y-74620476D01*
X137628334Y-74810952D01*
X137628334Y-74953810D01*
X137580715Y-75144286D01*
X137533096Y-75239524D01*
X137437858Y-75334762D01*
X137295000Y-75382381D01*
X137056905Y-75382381D01*
X138485477Y-74382381D02*
X138295000Y-74382381D01*
X138199762Y-74430000D01*
X138152143Y-74477619D01*
X138056905Y-74620476D01*
X138009286Y-74810952D01*
X138009286Y-75191905D01*
X138056905Y-75287143D01*
X138104524Y-75334762D01*
X138199762Y-75382381D01*
X138390239Y-75382381D01*
X138485477Y-75334762D01*
X138533096Y-75287143D01*
X138580715Y-75191905D01*
X138580715Y-74953810D01*
X138533096Y-74858571D01*
X138485477Y-74810952D01*
X138390239Y-74763333D01*
X138199762Y-74763333D01*
X138104524Y-74810952D01*
X138056905Y-74858571D01*
X138009286Y-74953810D01*
X133508095Y-73642381D02*
X133508095Y-72642381D01*
X134079524Y-73642381D02*
X133650952Y-73070952D01*
X134079524Y-72642381D02*
X133508095Y-73213810D01*
X66571905Y-100782381D02*
X66571905Y-99782381D01*
X66810000Y-99782381D01*
X66952858Y-99830000D01*
X67048096Y-99925238D01*
X67095715Y-100020476D01*
X67143334Y-100210952D01*
X67143334Y-100353810D01*
X67095715Y-100544286D01*
X67048096Y-100639524D01*
X66952858Y-100734762D01*
X66810000Y-100782381D01*
X66571905Y-100782381D01*
X67476667Y-99782381D02*
X68143334Y-99782381D01*
X67714762Y-100782381D01*
X76993095Y-99677381D02*
X76993095Y-98677381D01*
X77564524Y-99677381D02*
X77135952Y-99105952D01*
X77564524Y-98677381D02*
X76993095Y-99248810D01*
X145311905Y-101417381D02*
X145311905Y-100417381D01*
X145550000Y-100417381D01*
X145692858Y-100465000D01*
X145788096Y-100560238D01*
X145835715Y-100655476D01*
X145883334Y-100845952D01*
X145883334Y-100988810D01*
X145835715Y-101179286D01*
X145788096Y-101274524D01*
X145692858Y-101369762D01*
X145550000Y-101417381D01*
X145311905Y-101417381D01*
X146454762Y-100845952D02*
X146359524Y-100798333D01*
X146311905Y-100750714D01*
X146264286Y-100655476D01*
X146264286Y-100607857D01*
X146311905Y-100512619D01*
X146359524Y-100465000D01*
X146454762Y-100417381D01*
X146645239Y-100417381D01*
X146740477Y-100465000D01*
X146788096Y-100512619D01*
X146835715Y-100607857D01*
X146835715Y-100655476D01*
X146788096Y-100750714D01*
X146740477Y-100798333D01*
X146645239Y-100845952D01*
X146454762Y-100845952D01*
X146359524Y-100893571D01*
X146311905Y-100941190D01*
X146264286Y-101036429D01*
X146264286Y-101226905D01*
X146311905Y-101322143D01*
X146359524Y-101369762D01*
X146454762Y-101417381D01*
X146645239Y-101417381D01*
X146740477Y-101369762D01*
X146788096Y-101322143D01*
X146835715Y-101226905D01*
X146835715Y-101036429D01*
X146788096Y-100941190D01*
X146740477Y-100893571D01*
X146645239Y-100845952D01*
X141128095Y-99677381D02*
X141128095Y-98677381D01*
X141699524Y-99677381D02*
X141270952Y-99105952D01*
X141699524Y-98677381D02*
X141128095Y-99248810D01*
M02*
