G04 #@! TF.FileFunction,Legend,Bot*
%FSLAX46Y46*%
G04 Gerber Fmt 4.6, Leading zero omitted, Abs format (unit mm)*
G04 Created by KiCad (PCBNEW 4.0.1-stable) date 27/05/2016 22:40:19*
%MOMM*%
G01*
G04 APERTURE LIST*
%ADD10C,0.100000*%
%ADD11C,0.066040*%
%ADD12C,0.254000*%
%ADD13C,0.150000*%
G04 APERTURE END LIST*
D10*
D11*
X108966000Y-115951000D02*
X109474000Y-115951000D01*
X109474000Y-115951000D02*
X109474000Y-116459000D01*
X108966000Y-116459000D02*
X109474000Y-116459000D01*
X108966000Y-115951000D02*
X108966000Y-116459000D01*
X106426000Y-115951000D02*
X106934000Y-115951000D01*
X106934000Y-115951000D02*
X106934000Y-116459000D01*
X106426000Y-116459000D02*
X106934000Y-116459000D01*
X106426000Y-115951000D02*
X106426000Y-116459000D01*
X103886000Y-115951000D02*
X104394000Y-115951000D01*
X104394000Y-115951000D02*
X104394000Y-116459000D01*
X103886000Y-116459000D02*
X104394000Y-116459000D01*
X103886000Y-115951000D02*
X103886000Y-116459000D01*
X111506000Y-115951000D02*
X112014000Y-115951000D01*
X112014000Y-115951000D02*
X112014000Y-116459000D01*
X111506000Y-116459000D02*
X112014000Y-116459000D01*
X111506000Y-115951000D02*
X111506000Y-116459000D01*
D12*
X100330000Y-117475000D02*
X102870000Y-117475000D01*
X102870000Y-117475000D02*
X113030000Y-117475000D01*
X113030000Y-114935000D02*
X100330000Y-114935000D01*
X100330000Y-117475000D02*
X100330000Y-114935000D01*
X113030000Y-117475000D02*
X113030000Y-114935000D01*
X102870000Y-117475000D02*
X102870000Y-114935000D01*
D13*
X93980000Y-62865000D02*
X93980000Y-63881000D01*
X93980000Y-63881000D02*
X92964000Y-63881000D01*
X92964000Y-63881000D02*
X92964000Y-72009000D01*
X92964000Y-72009000D02*
X94996000Y-72009000D01*
X94996000Y-72009000D02*
X94996000Y-63881000D01*
X94996000Y-63881000D02*
X93980000Y-63881000D01*
X93472000Y-63881000D02*
X92964000Y-64389000D01*
X93980000Y-73025000D02*
X93980000Y-72009000D01*
X118745000Y-73025000D02*
X118745000Y-72009000D01*
X118745000Y-72009000D02*
X119761000Y-72009000D01*
X119761000Y-72009000D02*
X119761000Y-63881000D01*
X119761000Y-63881000D02*
X117729000Y-63881000D01*
X117729000Y-63881000D02*
X117729000Y-72009000D01*
X117729000Y-72009000D02*
X118745000Y-72009000D01*
X119253000Y-72009000D02*
X119761000Y-71501000D01*
X118745000Y-62865000D02*
X118745000Y-63881000D01*
X95885000Y-86995000D02*
X95885000Y-85979000D01*
X95885000Y-85979000D02*
X96901000Y-85979000D01*
X96901000Y-85979000D02*
X96901000Y-77851000D01*
X96901000Y-77851000D02*
X94869000Y-77851000D01*
X94869000Y-77851000D02*
X94869000Y-85979000D01*
X94869000Y-85979000D02*
X95885000Y-85979000D01*
X96393000Y-85979000D02*
X96901000Y-85471000D01*
X95885000Y-76835000D02*
X95885000Y-77851000D01*
X101600000Y-100965000D02*
X102616000Y-100965000D01*
X102616000Y-100965000D02*
X102616000Y-101981000D01*
X102616000Y-101981000D02*
X110744000Y-101981000D01*
X110744000Y-101981000D02*
X110744000Y-99949000D01*
X110744000Y-99949000D02*
X102616000Y-99949000D01*
X102616000Y-99949000D02*
X102616000Y-100965000D01*
X102616000Y-101473000D02*
X103124000Y-101981000D01*
X111760000Y-100965000D02*
X110744000Y-100965000D01*
X96337381Y-67397334D02*
X95861190Y-67064000D01*
X96337381Y-66825905D02*
X95337381Y-66825905D01*
X95337381Y-67206858D01*
X95385000Y-67302096D01*
X95432619Y-67349715D01*
X95527857Y-67397334D01*
X95670714Y-67397334D01*
X95765952Y-67349715D01*
X95813571Y-67302096D01*
X95861190Y-67206858D01*
X95861190Y-66825905D01*
X96337381Y-68349715D02*
X96337381Y-67778286D01*
X96337381Y-68064000D02*
X95337381Y-68064000D01*
X95480238Y-67968762D01*
X95575476Y-67873524D01*
X95623095Y-67778286D01*
X121229381Y-69810334D02*
X120753190Y-69477000D01*
X121229381Y-69238905D02*
X120229381Y-69238905D01*
X120229381Y-69619858D01*
X120277000Y-69715096D01*
X120324619Y-69762715D01*
X120419857Y-69810334D01*
X120562714Y-69810334D01*
X120657952Y-69762715D01*
X120705571Y-69715096D01*
X120753190Y-69619858D01*
X120753190Y-69238905D01*
X120324619Y-70191286D02*
X120277000Y-70238905D01*
X120229381Y-70334143D01*
X120229381Y-70572239D01*
X120277000Y-70667477D01*
X120324619Y-70715096D01*
X120419857Y-70762715D01*
X120515095Y-70762715D01*
X120657952Y-70715096D01*
X121229381Y-70143667D01*
X121229381Y-70762715D01*
X98369381Y-81748334D02*
X97893190Y-81415000D01*
X98369381Y-81176905D02*
X97369381Y-81176905D01*
X97369381Y-81557858D01*
X97417000Y-81653096D01*
X97464619Y-81700715D01*
X97559857Y-81748334D01*
X97702714Y-81748334D01*
X97797952Y-81700715D01*
X97845571Y-81653096D01*
X97893190Y-81557858D01*
X97893190Y-81176905D01*
X97369381Y-82081667D02*
X97369381Y-82700715D01*
X97750333Y-82367381D01*
X97750333Y-82510239D01*
X97797952Y-82605477D01*
X97845571Y-82653096D01*
X97940810Y-82700715D01*
X98178905Y-82700715D01*
X98274143Y-82653096D01*
X98321762Y-82605477D01*
X98369381Y-82510239D01*
X98369381Y-82224524D01*
X98321762Y-82129286D01*
X98274143Y-82081667D01*
X106592666Y-103576381D02*
X106926000Y-103100190D01*
X107164095Y-103576381D02*
X107164095Y-102576381D01*
X106783142Y-102576381D01*
X106687904Y-102624000D01*
X106640285Y-102671619D01*
X106592666Y-102766857D01*
X106592666Y-102909714D01*
X106640285Y-103004952D01*
X106687904Y-103052571D01*
X106783142Y-103100190D01*
X107164095Y-103100190D01*
X105735523Y-102909714D02*
X105735523Y-103576381D01*
X105973619Y-102528762D02*
X106211714Y-103243048D01*
X105592666Y-103243048D01*
M02*
