G04 #@! TF.FileFunction,Copper,L2,Bot,Signal*
%FSLAX46Y46*%
G04 Gerber Fmt 4.6, Leading zero omitted, Abs format (unit mm)*
G04 Created by KiCad (PCBNEW 4.0.1-stable) date 27/05/2016 22:40:19*
%MOMM*%
G01*
G04 APERTURE LIST*
%ADD10C,0.100000*%
%ADD11C,0.375000*%
%ADD12C,0.500000*%
%ADD13C,1.000000*%
%ADD14C,0.300000*%
%ADD15C,1.524000*%
%ADD16R,2.000000X2.000000*%
%ADD17C,2.000000*%
G04 APERTURE END LIST*
D10*
D11*
X111402856Y-119828571D02*
X112117142Y-119828571D01*
X112188571Y-120542857D01*
X112117142Y-120471429D01*
X111974285Y-120400000D01*
X111617142Y-120400000D01*
X111474285Y-120471429D01*
X111402856Y-120542857D01*
X111331428Y-120685714D01*
X111331428Y-121042857D01*
X111402856Y-121185714D01*
X111474285Y-121257143D01*
X111617142Y-121328571D01*
X111974285Y-121328571D01*
X112117142Y-121257143D01*
X112188571Y-121185714D01*
X101393572Y-121328571D02*
X100536429Y-121328571D01*
X100965001Y-121328571D02*
X100965001Y-119828571D01*
X100822144Y-120042857D01*
X100679286Y-120185714D01*
X100536429Y-120257143D01*
D12*
X122555000Y-83621905D02*
X122555000Y-84812381D01*
X121364524Y-84336190D02*
X122555000Y-84812381D01*
X123745476Y-84336190D01*
X121840714Y-85764762D02*
X122555000Y-84812381D01*
X123269286Y-85764762D01*
D13*
X111760000Y-84979286D02*
X111760000Y-86407857D01*
X113188571Y-85836429D02*
X111760000Y-86407857D01*
X110331428Y-85836429D01*
X112617143Y-87550714D02*
X111760000Y-86407857D01*
X110902857Y-87550714D01*
X117475000Y-92599286D02*
X117475000Y-94027857D01*
X118903571Y-93456429D02*
X117475000Y-94027857D01*
X116046428Y-93456429D01*
X118332143Y-95170714D02*
X117475000Y-94027857D01*
X116617857Y-95170714D01*
D12*
X120981906Y-52339762D02*
X120981906Y-50339762D01*
X120981906Y-51292143D02*
X119839048Y-51292143D01*
X119839048Y-52339762D02*
X119839048Y-50339762D01*
X118029525Y-52339762D02*
X118029525Y-51292143D01*
X118124763Y-51101667D01*
X118315239Y-51006429D01*
X118696191Y-51006429D01*
X118886668Y-51101667D01*
X118029525Y-52244524D02*
X118220001Y-52339762D01*
X118696191Y-52339762D01*
X118886668Y-52244524D01*
X118981906Y-52054048D01*
X118981906Y-51863571D01*
X118886668Y-51673095D01*
X118696191Y-51577857D01*
X118220001Y-51577857D01*
X118029525Y-51482619D01*
X117077144Y-51006429D02*
X117077144Y-53006429D01*
X117077144Y-51101667D02*
X116886667Y-51006429D01*
X116505715Y-51006429D01*
X116315239Y-51101667D01*
X116220001Y-51196905D01*
X116124763Y-51387381D01*
X116124763Y-51958810D01*
X116220001Y-52149286D01*
X116315239Y-52244524D01*
X116505715Y-52339762D01*
X116886667Y-52339762D01*
X117077144Y-52244524D01*
X115267620Y-51006429D02*
X115267620Y-53006429D01*
X115267620Y-51101667D02*
X115077143Y-51006429D01*
X114696191Y-51006429D01*
X114505715Y-51101667D01*
X114410477Y-51196905D01*
X114315239Y-51387381D01*
X114315239Y-51958810D01*
X114410477Y-52149286D01*
X114505715Y-52244524D01*
X114696191Y-52339762D01*
X115077143Y-52339762D01*
X115267620Y-52244524D01*
X113648572Y-51006429D02*
X113172381Y-52339762D01*
X112696191Y-51006429D02*
X113172381Y-52339762D01*
X113362857Y-52815952D01*
X113458096Y-52911190D01*
X113648572Y-53006429D01*
X110410476Y-52339762D02*
X110410476Y-50339762D01*
X109267618Y-52339762D01*
X109267618Y-50339762D01*
X107553333Y-52244524D02*
X107743809Y-52339762D01*
X108124761Y-52339762D01*
X108315238Y-52244524D01*
X108410476Y-52054048D01*
X108410476Y-51292143D01*
X108315238Y-51101667D01*
X108124761Y-51006429D01*
X107743809Y-51006429D01*
X107553333Y-51101667D01*
X107458095Y-51292143D01*
X107458095Y-51482619D01*
X108410476Y-51673095D01*
X106791428Y-51006429D02*
X106410475Y-52339762D01*
X106029523Y-51387381D01*
X105648571Y-52339762D01*
X105267618Y-51006429D01*
X102600951Y-51387381D02*
X102600951Y-52339762D01*
X103267618Y-50339762D02*
X102600951Y-51387381D01*
X101934284Y-50339762D01*
X100505713Y-52244524D02*
X100696189Y-52339762D01*
X101077141Y-52339762D01*
X101267618Y-52244524D01*
X101362856Y-52054048D01*
X101362856Y-51292143D01*
X101267618Y-51101667D01*
X101077141Y-51006429D01*
X100696189Y-51006429D01*
X100505713Y-51101667D01*
X100410475Y-51292143D01*
X100410475Y-51482619D01*
X101362856Y-51673095D01*
X98696189Y-52339762D02*
X98696189Y-51292143D01*
X98791427Y-51101667D01*
X98981903Y-51006429D01*
X99362855Y-51006429D01*
X99553332Y-51101667D01*
X98696189Y-52244524D02*
X98886665Y-52339762D01*
X99362855Y-52339762D01*
X99553332Y-52244524D01*
X99648570Y-52054048D01*
X99648570Y-51863571D01*
X99553332Y-51673095D01*
X99362855Y-51577857D01*
X98886665Y-51577857D01*
X98696189Y-51482619D01*
X97743808Y-52339762D02*
X97743808Y-51006429D01*
X97743808Y-51387381D02*
X97648569Y-51196905D01*
X97553331Y-51101667D01*
X97362855Y-51006429D01*
X97172379Y-51006429D01*
D13*
X101600000Y-88154286D02*
X101600000Y-89582857D01*
X103028571Y-89011429D02*
X101600000Y-89582857D01*
X100171428Y-89011429D01*
X102457143Y-90725714D02*
X101600000Y-89582857D01*
X100742857Y-90725714D01*
X107950000Y-44974286D02*
X107950000Y-46402857D01*
X109378571Y-45831429D02*
X107950000Y-46402857D01*
X106521428Y-45831429D01*
X108807143Y-47545714D02*
X107950000Y-46402857D01*
X107092857Y-47545714D01*
D12*
X78486000Y-74731905D02*
X78486000Y-75922381D01*
X77295524Y-75446190D02*
X78486000Y-75922381D01*
X79676476Y-75446190D01*
X77771714Y-76874762D02*
X78486000Y-75922381D01*
X79200286Y-76874762D01*
D13*
X114300000Y-58309286D02*
X114300000Y-59737857D01*
X115728571Y-59166429D02*
X114300000Y-59737857D01*
X112871428Y-59166429D01*
X115157143Y-60880714D02*
X114300000Y-59737857D01*
X113442857Y-60880714D01*
X99695000Y-54499286D02*
X99695000Y-55927857D01*
X101123571Y-55356429D02*
X99695000Y-55927857D01*
X98266428Y-55356429D01*
X100552143Y-57070714D02*
X99695000Y-55927857D01*
X98837857Y-57070714D01*
X88900000Y-71009286D02*
X88900000Y-72437857D01*
X90328571Y-71866429D02*
X88900000Y-72437857D01*
X87471428Y-71866429D01*
X89757143Y-73580714D02*
X88900000Y-72437857D01*
X88042857Y-73580714D01*
D12*
X88900000Y-86161905D02*
X88900000Y-87352381D01*
X87709524Y-86876190D02*
X88900000Y-87352381D01*
X90090476Y-86876190D01*
X88185714Y-88304762D02*
X88900000Y-87352381D01*
X89614286Y-88304762D01*
X102108000Y-47553905D02*
X102108000Y-48744381D01*
X100917524Y-48268190D02*
X102108000Y-48744381D01*
X103298476Y-48268190D01*
X101393714Y-49696762D02*
X102108000Y-48744381D01*
X102822286Y-49696762D01*
X80645000Y-93781905D02*
X80645000Y-94972381D01*
X79454524Y-94496190D02*
X80645000Y-94972381D01*
X81835476Y-94496190D01*
X79930714Y-95924762D02*
X80645000Y-94972381D01*
X81359286Y-95924762D01*
D14*
X70358000Y-101227143D02*
X70358000Y-101941429D01*
X69643714Y-101655714D02*
X70358000Y-101941429D01*
X71072286Y-101655714D01*
X69929429Y-102512857D02*
X70358000Y-101941429D01*
X70786572Y-102512857D01*
D12*
X99695000Y-78541905D02*
X99695000Y-79732381D01*
X98504524Y-79256190D02*
X99695000Y-79732381D01*
X100885476Y-79256190D01*
X98980714Y-80684762D02*
X99695000Y-79732381D01*
X100409286Y-80684762D01*
D14*
X126746000Y-95131143D02*
X126746000Y-95845429D01*
X127460286Y-95559714D02*
X126746000Y-95845429D01*
X126031714Y-95559714D01*
X127174571Y-96416857D02*
X126746000Y-95845429D01*
X126317428Y-96416857D01*
D12*
X135128000Y-74731905D02*
X135128000Y-75922381D01*
X133937524Y-75446190D02*
X135128000Y-75922381D01*
X136318476Y-75446190D01*
X134413714Y-76874762D02*
X135128000Y-75922381D01*
X135842286Y-76874762D01*
X99060000Y-71556905D02*
X99060000Y-72747381D01*
X97869524Y-72271190D02*
X99060000Y-72747381D01*
X100250476Y-72271190D01*
X98345714Y-73699762D02*
X99060000Y-72747381D01*
X99774286Y-73699762D01*
D14*
X113030000Y-54237143D02*
X113030000Y-54951429D01*
X113744286Y-54665714D02*
X113030000Y-54951429D01*
X112315714Y-54665714D01*
X113458571Y-55522857D02*
X113030000Y-54951429D01*
X112601428Y-55522857D01*
X100330000Y-84082143D02*
X100330000Y-84796429D01*
X99615714Y-84510714D02*
X100330000Y-84796429D01*
X101044286Y-84510714D01*
X99901429Y-85367857D02*
X100330000Y-84796429D01*
X100758572Y-85367857D01*
D12*
X110918096Y-57262143D02*
X110632382Y-57357381D01*
X110537143Y-57452619D01*
X110441905Y-57643095D01*
X110441905Y-57928810D01*
X110537143Y-58119286D01*
X110632382Y-58214524D01*
X110822858Y-58309762D01*
X111584763Y-58309762D01*
X111584763Y-56309762D01*
X110918096Y-56309762D01*
X110727620Y-56405000D01*
X110632382Y-56500238D01*
X110537143Y-56690714D01*
X110537143Y-56881190D01*
X110632382Y-57071667D01*
X110727620Y-57166905D01*
X110918096Y-57262143D01*
X111584763Y-57262143D01*
X109299048Y-58309762D02*
X109489524Y-58214524D01*
X109584763Y-58119286D01*
X109680001Y-57928810D01*
X109680001Y-57357381D01*
X109584763Y-57166905D01*
X109489524Y-57071667D01*
X109299048Y-56976429D01*
X109013334Y-56976429D01*
X108822858Y-57071667D01*
X108727620Y-57166905D01*
X108632382Y-57357381D01*
X108632382Y-57928810D01*
X108727620Y-58119286D01*
X108822858Y-58214524D01*
X109013334Y-58309762D01*
X109299048Y-58309762D01*
X107775239Y-56976429D02*
X107775239Y-58309762D01*
X107775239Y-57166905D02*
X107680000Y-57071667D01*
X107489524Y-56976429D01*
X107203810Y-56976429D01*
X107013334Y-57071667D01*
X106918096Y-57262143D01*
X106918096Y-58309762D01*
X105965715Y-56976429D02*
X105965715Y-58309762D01*
X105965715Y-57166905D02*
X105870476Y-57071667D01*
X105680000Y-56976429D01*
X105394286Y-56976429D01*
X105203810Y-57071667D01*
X105108572Y-57262143D01*
X105108572Y-58309762D01*
X103394286Y-58214524D02*
X103584762Y-58309762D01*
X103965714Y-58309762D01*
X104156191Y-58214524D01*
X104251429Y-58024048D01*
X104251429Y-57262143D01*
X104156191Y-57071667D01*
X103965714Y-56976429D01*
X103584762Y-56976429D01*
X103394286Y-57071667D01*
X103299048Y-57262143D01*
X103299048Y-57452619D01*
X104251429Y-57643095D01*
X102537143Y-58214524D02*
X102346666Y-58309762D01*
X101965714Y-58309762D01*
X101775238Y-58214524D01*
X101680000Y-58024048D01*
X101680000Y-57928810D01*
X101775238Y-57738333D01*
X101965714Y-57643095D01*
X102251428Y-57643095D01*
X102441905Y-57547857D01*
X102537143Y-57357381D01*
X102537143Y-57262143D01*
X102441905Y-57071667D01*
X102251428Y-56976429D01*
X101965714Y-56976429D01*
X101775238Y-57071667D01*
X108727619Y-60562143D02*
X109394286Y-60562143D01*
X109394286Y-61609762D02*
X109394286Y-59609762D01*
X108441905Y-59609762D01*
X106918095Y-61514524D02*
X107108571Y-61609762D01*
X107489523Y-61609762D01*
X107680000Y-61514524D01*
X107775238Y-61324048D01*
X107775238Y-60562143D01*
X107680000Y-60371667D01*
X107489523Y-60276429D01*
X107108571Y-60276429D01*
X106918095Y-60371667D01*
X106822857Y-60562143D01*
X106822857Y-60752619D01*
X107775238Y-60943095D01*
X107680000Y-59800238D02*
X107299047Y-59514524D01*
X106918095Y-59800238D01*
X106251428Y-60276429D02*
X105489523Y-60276429D01*
X105965714Y-59609762D02*
X105965714Y-61324048D01*
X105870475Y-61514524D01*
X105679999Y-61609762D01*
X105489523Y-61609762D01*
X104060952Y-61514524D02*
X104251428Y-61609762D01*
X104632380Y-61609762D01*
X104822857Y-61514524D01*
X104918095Y-61324048D01*
X104918095Y-60562143D01*
X104822857Y-60371667D01*
X104632380Y-60276429D01*
X104251428Y-60276429D01*
X104060952Y-60371667D01*
X103965714Y-60562143D01*
X103965714Y-60752619D01*
X104918095Y-60943095D01*
X103203809Y-61514524D02*
X103013332Y-61609762D01*
X102632380Y-61609762D01*
X102441904Y-61514524D01*
X102346666Y-61324048D01*
X102346666Y-61228810D01*
X102441904Y-61038333D01*
X102632380Y-60943095D01*
X102918094Y-60943095D01*
X103108571Y-60847857D01*
X103203809Y-60657381D01*
X103203809Y-60562143D01*
X103108571Y-60371667D01*
X102918094Y-60276429D01*
X102632380Y-60276429D01*
X102441904Y-60371667D01*
X94852620Y-95139762D02*
X94852620Y-93139762D01*
X94852620Y-94092143D02*
X93709762Y-94092143D01*
X93709762Y-95139762D02*
X93709762Y-93139762D01*
X91900239Y-95139762D02*
X91900239Y-94092143D01*
X91995477Y-93901667D01*
X92185953Y-93806429D01*
X92566905Y-93806429D01*
X92757382Y-93901667D01*
X91900239Y-95044524D02*
X92090715Y-95139762D01*
X92566905Y-95139762D01*
X92757382Y-95044524D01*
X92852620Y-94854048D01*
X92852620Y-94663571D01*
X92757382Y-94473095D01*
X92566905Y-94377857D01*
X92090715Y-94377857D01*
X91900239Y-94282619D01*
X90947858Y-93806429D02*
X90947858Y-95806429D01*
X90947858Y-93901667D02*
X90757381Y-93806429D01*
X90376429Y-93806429D01*
X90185953Y-93901667D01*
X90090715Y-93996905D01*
X89995477Y-94187381D01*
X89995477Y-94758810D01*
X90090715Y-94949286D01*
X90185953Y-95044524D01*
X90376429Y-95139762D01*
X90757381Y-95139762D01*
X90947858Y-95044524D01*
X89138334Y-93806429D02*
X89138334Y-95806429D01*
X89138334Y-93901667D02*
X88947857Y-93806429D01*
X88566905Y-93806429D01*
X88376429Y-93901667D01*
X88281191Y-93996905D01*
X88185953Y-94187381D01*
X88185953Y-94758810D01*
X88281191Y-94949286D01*
X88376429Y-95044524D01*
X88566905Y-95139762D01*
X88947857Y-95139762D01*
X89138334Y-95044524D01*
X87519286Y-93806429D02*
X87043095Y-95139762D01*
X86566905Y-93806429D02*
X87043095Y-95139762D01*
X87233571Y-95615952D01*
X87328810Y-95711190D01*
X87519286Y-95806429D01*
X96614524Y-98249286D02*
X96709762Y-98344524D01*
X96995477Y-98439762D01*
X97185953Y-98439762D01*
X97471667Y-98344524D01*
X97662143Y-98154048D01*
X97757382Y-97963571D01*
X97852620Y-97582619D01*
X97852620Y-97296905D01*
X97757382Y-96915952D01*
X97662143Y-96725476D01*
X97471667Y-96535000D01*
X97185953Y-96439762D01*
X96995477Y-96439762D01*
X96709762Y-96535000D01*
X96614524Y-96630238D01*
X95757382Y-98439762D02*
X95757382Y-96439762D01*
X94900239Y-98439762D02*
X94900239Y-97392143D01*
X94995477Y-97201667D01*
X95185953Y-97106429D01*
X95471667Y-97106429D01*
X95662143Y-97201667D01*
X95757382Y-97296905D01*
X93947858Y-98439762D02*
X93947858Y-97106429D01*
X93947858Y-97487381D02*
X93852619Y-97296905D01*
X93757381Y-97201667D01*
X93566905Y-97106429D01*
X93376429Y-97106429D01*
X92709763Y-98439762D02*
X92709763Y-97106429D01*
X92709763Y-96439762D02*
X92805001Y-96535000D01*
X92709763Y-96630238D01*
X92614524Y-96535000D01*
X92709763Y-96439762D01*
X92709763Y-96630238D01*
X91852620Y-98344524D02*
X91662143Y-98439762D01*
X91281191Y-98439762D01*
X91090715Y-98344524D01*
X90995477Y-98154048D01*
X90995477Y-98058810D01*
X91090715Y-97868333D01*
X91281191Y-97773095D01*
X91566905Y-97773095D01*
X91757382Y-97677857D01*
X91852620Y-97487381D01*
X91852620Y-97392143D01*
X91757382Y-97201667D01*
X91566905Y-97106429D01*
X91281191Y-97106429D01*
X91090715Y-97201667D01*
X90424048Y-97106429D02*
X89662143Y-97106429D01*
X90138334Y-96439762D02*
X90138334Y-98154048D01*
X90043095Y-98344524D01*
X89852619Y-98439762D01*
X89662143Y-98439762D01*
X88995477Y-98439762D02*
X88995477Y-97106429D01*
X88995477Y-97296905D02*
X88900238Y-97201667D01*
X88709762Y-97106429D01*
X88424048Y-97106429D01*
X88233572Y-97201667D01*
X88138334Y-97392143D01*
X88138334Y-98439762D01*
X88138334Y-97392143D02*
X88043096Y-97201667D01*
X87852619Y-97106429D01*
X87566905Y-97106429D01*
X87376429Y-97201667D01*
X87281191Y-97392143D01*
X87281191Y-98439762D01*
X85471667Y-98439762D02*
X85471667Y-97392143D01*
X85566905Y-97201667D01*
X85757381Y-97106429D01*
X86138333Y-97106429D01*
X86328810Y-97201667D01*
X85471667Y-98344524D02*
X85662143Y-98439762D01*
X86138333Y-98439762D01*
X86328810Y-98344524D01*
X86424048Y-98154048D01*
X86424048Y-97963571D01*
X86328810Y-97773095D01*
X86138333Y-97677857D01*
X85662143Y-97677857D01*
X85471667Y-97582619D01*
X84614524Y-98344524D02*
X84424047Y-98439762D01*
X84043095Y-98439762D01*
X83852619Y-98344524D01*
X83757381Y-98154048D01*
X83757381Y-98058810D01*
X83852619Y-97868333D01*
X84043095Y-97773095D01*
X84328809Y-97773095D01*
X84519286Y-97677857D01*
X84614524Y-97487381D01*
X84614524Y-97392143D01*
X84519286Y-97201667D01*
X84328809Y-97106429D01*
X84043095Y-97106429D01*
X83852619Y-97201667D01*
X128412382Y-88694762D02*
X128412382Y-90123333D01*
X128507620Y-90409048D01*
X128698096Y-90599524D01*
X128983811Y-90694762D01*
X129174287Y-90694762D01*
X127174286Y-90694762D02*
X127364762Y-90599524D01*
X127460001Y-90504286D01*
X127555239Y-90313810D01*
X127555239Y-89742381D01*
X127460001Y-89551905D01*
X127364762Y-89456667D01*
X127174286Y-89361429D01*
X126888572Y-89361429D01*
X126698096Y-89456667D01*
X126602858Y-89551905D01*
X126507620Y-89742381D01*
X126507620Y-90313810D01*
X126602858Y-90504286D01*
X126698096Y-90599524D01*
X126888572Y-90694762D01*
X127174286Y-90694762D01*
X125840953Y-89361429D02*
X125364762Y-90694762D01*
X124888572Y-89361429D02*
X125364762Y-90694762D01*
X125555238Y-91170952D01*
X125650477Y-91266190D01*
X125840953Y-91361429D01*
X123364762Y-90599524D02*
X123555238Y-90694762D01*
X123936190Y-90694762D01*
X124126667Y-90599524D01*
X124221905Y-90409048D01*
X124221905Y-89647143D01*
X124126667Y-89456667D01*
X123936190Y-89361429D01*
X123555238Y-89361429D01*
X123364762Y-89456667D01*
X123269524Y-89647143D01*
X123269524Y-89837619D01*
X124221905Y-90028095D01*
X121555238Y-89361429D02*
X121555238Y-90694762D01*
X122412381Y-89361429D02*
X122412381Y-90409048D01*
X122317142Y-90599524D01*
X122126666Y-90694762D01*
X121840952Y-90694762D01*
X121650476Y-90599524D01*
X121555238Y-90504286D01*
X120793333Y-90694762D02*
X119745714Y-89361429D01*
X120793333Y-89361429D02*
X119745714Y-90694762D01*
X126555238Y-93994762D02*
X126555238Y-91994762D01*
X125412380Y-93994762D01*
X125412380Y-91994762D01*
X124174285Y-93994762D02*
X124364761Y-93899524D01*
X124460000Y-93804286D01*
X124555238Y-93613810D01*
X124555238Y-93042381D01*
X124460000Y-92851905D01*
X124364761Y-92756667D01*
X124174285Y-92661429D01*
X123888571Y-92661429D01*
X123698095Y-92756667D01*
X123602857Y-92851905D01*
X123507619Y-93042381D01*
X123507619Y-93613810D01*
X123602857Y-93804286D01*
X123698095Y-93899524D01*
X123888571Y-93994762D01*
X124174285Y-93994762D01*
X121888571Y-93899524D02*
X122079047Y-93994762D01*
X122459999Y-93994762D01*
X122650476Y-93899524D01*
X122745714Y-93709048D01*
X122745714Y-92947143D01*
X122650476Y-92756667D01*
X122459999Y-92661429D01*
X122079047Y-92661429D01*
X121888571Y-92756667D01*
X121793333Y-92947143D01*
X121793333Y-93137619D01*
X122745714Y-93328095D01*
X122650476Y-91994762D02*
X122555237Y-92090000D01*
X122650476Y-92185238D01*
X122745714Y-92090000D01*
X122650476Y-91994762D01*
X122650476Y-92185238D01*
X121888571Y-91994762D02*
X121793333Y-92090000D01*
X121888571Y-92185238D01*
X121983809Y-92090000D01*
X121888571Y-91994762D01*
X121888571Y-92185238D01*
X120650475Y-93994762D02*
X120840951Y-93899524D01*
X120936190Y-93709048D01*
X120936190Y-91994762D01*
D15*
X104140000Y-116205000D03*
X106680000Y-116205000D03*
X109220000Y-116205000D03*
X111760000Y-116205000D03*
D16*
X101600000Y-116205000D03*
X105410000Y-41275000D03*
D17*
X107950000Y-41275000D03*
D16*
X88265000Y-55245000D03*
D17*
X90805000Y-55245000D03*
D16*
X121920000Y-54610000D03*
D17*
X124460000Y-54610000D03*
D16*
X105410000Y-76200000D03*
D17*
X107950000Y-76200000D03*
D16*
X83820000Y-75565000D03*
D17*
X81280000Y-75565000D03*
D16*
X132080000Y-74930000D03*
D17*
X129540000Y-74930000D03*
D16*
X75565000Y-100965000D03*
D17*
X73025000Y-100965000D03*
D16*
X139700000Y-100965000D03*
D17*
X137160000Y-100965000D03*
D15*
X93980000Y-62865000D03*
X93980000Y-73025000D03*
X118745000Y-73025000D03*
X118745000Y-62865000D03*
X95885000Y-86995000D03*
X95885000Y-76835000D03*
X101600000Y-100965000D03*
X111760000Y-100965000D03*
D13*
X121285000Y-78740000D02*
X121285000Y-77470000D01*
X139700000Y-97155000D02*
X121285000Y-78740000D01*
X139700000Y-97790000D02*
X139700000Y-97155000D01*
X121285000Y-77470000D02*
X132080000Y-77470000D01*
X111760000Y-116205000D02*
X111760000Y-106045000D01*
X111125000Y-97790000D02*
X139700000Y-97790000D01*
X109855000Y-99060000D02*
X111125000Y-97790000D01*
X109855000Y-104140000D02*
X109855000Y-99060000D01*
X111760000Y-106045000D02*
X109855000Y-104140000D01*
X81280000Y-75565000D02*
X81280000Y-78105000D01*
X81280000Y-78105000D02*
X92075000Y-78105000D01*
X92075000Y-78105000D02*
X92075000Y-78740000D01*
X92075000Y-78740000D02*
X73025000Y-97790000D01*
X73025000Y-97790000D02*
X73025000Y-100965000D01*
X81280000Y-75565000D02*
X81280000Y-71755000D01*
X81280000Y-72390000D02*
X90170000Y-63500000D01*
X81280000Y-71755000D02*
X81280000Y-72390000D01*
X90170000Y-63500000D02*
X90170000Y-64135000D01*
X90170000Y-63500000D02*
X90170000Y-64135000D01*
X90170000Y-64135000D02*
X90170000Y-66040000D01*
X105410000Y-66675000D02*
X105410000Y-76200000D01*
X104775000Y-66040000D02*
X91440242Y-66096792D01*
X105410000Y-66675000D02*
X104775000Y-66040000D01*
X90226792Y-66096792D02*
X91440242Y-66096792D01*
X90170000Y-66040000D02*
X90226792Y-66096792D01*
X90170000Y-63500000D02*
X95103480Y-58313142D01*
X90170000Y-63500000D02*
X90170000Y-63500000D01*
X88265000Y-57785000D02*
X88265000Y-55245000D01*
X95250000Y-57785000D02*
X88265000Y-57785000D01*
X95103480Y-58313142D02*
X95250000Y-57785000D01*
X124460000Y-52070000D02*
X124460000Y-54610000D01*
X88265000Y-55245000D02*
X88265000Y-52705000D01*
X90805000Y-50165000D02*
X106680000Y-34290000D01*
X106680000Y-34290000D02*
X113665000Y-41275000D01*
X88265000Y-52705000D02*
X90805000Y-50165000D01*
X121412000Y-61722000D02*
X121285000Y-61595000D01*
X121285000Y-61595000D02*
X121285000Y-60960000D01*
X121285000Y-60960000D02*
X121285000Y-61595000D01*
X132080000Y-74930000D02*
X132080000Y-77470000D01*
X139700000Y-97790000D02*
X139700000Y-100965000D01*
X124460000Y-54610000D02*
X126365000Y-54610000D01*
X132080000Y-72390000D02*
X132080000Y-74930000D01*
X118745000Y-59055000D02*
X121285000Y-61595000D01*
X121285000Y-61595000D02*
X132080000Y-72390000D01*
X118745000Y-57785000D02*
X118745000Y-59055000D01*
X129540000Y-57785000D02*
X118745000Y-57785000D01*
X126365000Y-54610000D02*
X129540000Y-57785000D01*
X107950000Y-41275000D02*
X113665000Y-41275000D01*
X131445000Y-74295000D02*
X132080000Y-74930000D01*
X113665000Y-41275000D02*
X124460000Y-52070000D01*
X90805000Y-55245000D02*
X95885000Y-55245000D01*
X94615000Y-62230000D02*
X93980000Y-62865000D01*
X96520000Y-62230000D02*
X94615000Y-62230000D01*
X97155000Y-61595000D02*
X96520000Y-62230000D01*
X97155000Y-56515000D02*
X97155000Y-61595000D01*
X95885000Y-55245000D02*
X97155000Y-56515000D01*
X90805000Y-55245000D02*
X91440000Y-55245000D01*
X91440000Y-55245000D02*
X105410000Y-41275000D01*
X107950000Y-76200000D02*
X107950000Y-66675000D01*
X111760000Y-62865000D02*
X118745000Y-62865000D01*
X107950000Y-66675000D02*
X111760000Y-62865000D01*
X118745000Y-62865000D02*
X118745000Y-62230000D01*
X118745000Y-62230000D02*
X117475000Y-60960000D01*
X117475000Y-60960000D02*
X117475000Y-55245000D01*
X117475000Y-55245000D02*
X118110000Y-54610000D01*
X118110000Y-54610000D02*
X121920000Y-54610000D01*
X118745000Y-86995000D02*
X109855000Y-95885000D01*
X109220000Y-106045000D02*
X107950000Y-104775000D01*
X107950000Y-104775000D02*
X107950000Y-97790000D01*
X107950000Y-97790000D02*
X109855000Y-95885000D01*
X109220000Y-106045000D02*
X109220000Y-116205000D01*
X120650000Y-71120000D02*
X120650000Y-74295000D01*
X109855000Y-83185000D02*
X111760000Y-83185000D01*
X111760000Y-83185000D02*
X113030000Y-81915000D01*
X113030000Y-81915000D02*
X113030000Y-71120000D01*
X113030000Y-71120000D02*
X114300000Y-69850000D01*
X114300000Y-69850000D02*
X119380000Y-69850000D01*
X119380000Y-69850000D02*
X120650000Y-71120000D01*
X93980000Y-73025000D02*
X93980000Y-81915000D01*
X93980000Y-81915000D02*
X95250000Y-83185000D01*
X95250000Y-83185000D02*
X109855000Y-83185000D01*
X118745000Y-76200000D02*
X118745000Y-86995000D01*
X120650000Y-74295000D02*
X118745000Y-76200000D01*
X106680000Y-116205000D02*
X106680000Y-109220000D01*
X111760000Y-91440000D02*
X106045000Y-97155000D01*
X116840000Y-74930000D02*
X116840000Y-86360000D01*
X116840000Y-86360000D02*
X111760000Y-91440000D01*
X116840000Y-74930000D02*
X118745000Y-73025000D01*
X106045000Y-108585000D02*
X106045000Y-97155000D01*
X106680000Y-109220000D02*
X106045000Y-108585000D01*
X95885000Y-86995000D02*
X95885000Y-90805000D01*
X104140000Y-99060000D02*
X104140000Y-116205000D01*
X95885000Y-90805000D02*
X104140000Y-99060000D01*
X101600000Y-100965000D02*
X101600000Y-116205000D01*
X111125000Y-78740000D02*
X111125000Y-67945000D01*
X129540000Y-73660000D02*
X123825000Y-67945000D01*
X111125000Y-78740000D02*
X110490000Y-79375000D01*
X110490000Y-79375000D02*
X102870000Y-79375000D01*
X102870000Y-79375000D02*
X102235000Y-78740000D01*
X102235000Y-78740000D02*
X102235000Y-71755000D01*
X102235000Y-71755000D02*
X99060000Y-68580000D01*
X95885000Y-68580000D02*
X99060000Y-68580000D01*
X129540000Y-73660000D02*
X129540000Y-74930000D01*
X121920000Y-66040000D02*
X123825000Y-67945000D01*
X113030000Y-66040000D02*
X121920000Y-66040000D01*
X111125000Y-67945000D02*
X113030000Y-66040000D01*
X95885000Y-76835000D02*
X95885000Y-68580000D01*
X83820000Y-71755000D02*
X83820000Y-75565000D01*
X86995000Y-68580000D02*
X83820000Y-71755000D01*
X86995000Y-68580000D02*
X86995000Y-68580000D01*
X95885000Y-68580000D02*
X86995000Y-68580000D01*
X99695000Y-118745000D02*
X113665000Y-118745000D01*
X95250000Y-100965000D02*
X98425000Y-100965000D01*
X98425000Y-100965000D02*
X99695000Y-100965000D01*
X99695000Y-100965000D02*
X99695000Y-117475000D01*
X99695000Y-117475000D02*
X99695000Y-118745000D01*
X113665000Y-118110000D02*
X113665000Y-102235000D01*
X113665000Y-100965000D02*
X113665000Y-102235000D01*
X95250000Y-100965000D02*
X75565000Y-100965000D01*
X113665000Y-118745000D02*
X113665000Y-118110000D01*
X113665000Y-100965000D02*
X137160000Y-100965000D01*
X137160000Y-100965000D02*
X137795000Y-100330000D01*
X137795000Y-100330000D02*
X137160000Y-100965000D01*
X113665000Y-100965000D02*
X111760000Y-100965000D01*
M02*
