M48
;DRILL file {KiCad 4.0.1-stable} date 27/05/2016 22:41:15
;FORMAT={-:-/ absolute / inch / decimal}
FMAT,2
INCH,TZ
T1C0.030
T2C0.032
T3C0.039
T4C0.040
%
G90
G05
M72
T1
X4.Y-4.575
X4.1Y-4.575
X4.2Y-4.575
X4.3Y-4.575
T2
X3.7Y-2.475
X3.7Y-2.875
X3.775Y-3.025
X3.775Y-3.425
X4.Y-3.975
X4.4Y-3.975
X4.675Y-2.475
X4.675Y-2.875
T3
X2.875Y-3.975
X2.975Y-3.975
X3.2Y-2.975
X3.3Y-2.975
X3.475Y-2.175
X3.575Y-2.175
X4.15Y-1.625
X4.15Y-3.
X4.25Y-1.625
X4.25Y-3.
X4.8Y-2.15
X4.9Y-2.15
X5.1Y-2.95
X5.2Y-2.95
X5.4Y-3.975
X5.5Y-3.975
T4
X4.Y-4.575
X4.4Y-4.575
T0
M30
