<?xml version="1.0" standalone="no"?>
 <!DOCTYPE svg PUBLIC "-//W3C//DTD SVG 1.1//EN" 
 "http://www.w3.org/Graphics/SVG/1.1/DTD/svg11.dtd"> 
<svg xmlns="http://www.w3.org/2000/svg" version="1.1" 
    width="29.7002cm" height="21.0007cm" viewBox="0 0 116930 82680 ">
<title>SVG Picture created as ArduinoTree-F.Cu.svg date 2016/05/27 22:35:30 </title>
  <desc>Picture generated by PCBNEW </desc>
<g style="fill:#000000; fill-opacity:1;stroke:#000000; stroke-opacity:1;
stroke-linecap:round; stroke-linejoin:round; "
 transform="translate(0 0) scale(1 1)">
</g>
<g style="fill:#000000; fill-opacity:0.0; 
stroke:#000000; stroke-width:-0.000393701; stroke-opacity:1; 
stroke-linecap:round; stroke-linejoin:round;">
</g>
<g style="fill:#000000; fill-opacity:0.0; 
stroke:#000000; stroke-width:39.3701; stroke-opacity:1; 
stroke-linecap:round; stroke-linejoin:round;">
</g>
<g style="fill:#000000; fill-opacity:0.0; 
stroke:#000000; stroke-width:59.0551; stroke-opacity:1; 
stroke-linecap:round; stroke-linejoin:round;">
<rect x="69685.9" y="65357.2" width="42519.7" height="12598.4" rx="0" />
</g>
<g style="fill:#000000; fill-opacity:0.0; 
stroke:#000000; stroke-width:39.3701; stroke-opacity:1; 
stroke-linecap:round; stroke-linejoin:round;">
</g>
<g style="fill:#000000; fill-opacity:0.0; 
stroke:#000000; stroke-width:59.0551; stroke-opacity:1; 
stroke-linecap:round; stroke-linejoin:round;">
<rect x="3937.01" y="3937.01" width="109056" height="74806" rx="0" />
</g>
<g style="fill:#000000; fill-opacity:0.0; 
stroke:#000000; stroke-width:39.3701; stroke-opacity:1; 
stroke-linecap:round; stroke-linejoin:round;">
</g>
<g style="fill:#000000; fill-opacity:0.0; 
stroke:#000000; stroke-width:59.0551; stroke-opacity:1; 
stroke-linecap:round; stroke-linejoin:round;">
<rect x="4724.41" y="4724.41" width="107481" height="73231.2" rx="0" />
</g>
<g style="fill:#000000; fill-opacity:0.0; 
stroke:#000000; stroke-width:39.3701; stroke-opacity:1; 
stroke-linecap:round; stroke-linejoin:round;">
</g>
<g style="fill:#000000; fill-opacity:0.0; 
stroke:#000000; stroke-width:59.0551; stroke-opacity:1; 
stroke-linecap:round; stroke-linejoin:round;">
<path d="M23622 4724
L23622 3937
" />
</g>
<g style="fill:#000000; fill-opacity:0.0; 
stroke:#000000; stroke-width:39.3701; stroke-opacity:1; 
stroke-linecap:round; stroke-linejoin:round;">
</g>
<g style="fill:#000000; fill-opacity:0.0; 
stroke:#000000; stroke-width:59.0551; stroke-opacity:1; 
stroke-linecap:round; stroke-linejoin:round;">
<path d="M43307 4724
L43307 3937
" />
</g>
<g style="fill:#000000; fill-opacity:0.0; 
stroke:#000000; stroke-width:39.3701; stroke-opacity:1; 
stroke-linecap:round; stroke-linejoin:round;">
</g>
<g style="fill:#000000; fill-opacity:0.0; 
stroke:#000000; stroke-width:59.0551; stroke-opacity:1; 
stroke-linecap:round; stroke-linejoin:round;">
<path d="M62992 4724
L62992 3937
" />
</g>
<g style="fill:#000000; fill-opacity:0.0; 
stroke:#000000; stroke-width:39.3701; stroke-opacity:1; 
stroke-linecap:round; stroke-linejoin:round;">
</g>
<g style="fill:#000000; fill-opacity:0.0; 
stroke:#000000; stroke-width:59.0551; stroke-opacity:1; 
stroke-linecap:round; stroke-linejoin:round;">
<path d="M82677 4724
L82677 3937
" />
</g>
<g style="fill:#000000; fill-opacity:0.0; 
stroke:#000000; stroke-width:39.3701; stroke-opacity:1; 
stroke-linecap:round; stroke-linejoin:round;">
</g>
<g style="fill:#000000; fill-opacity:0.0; 
stroke:#000000; stroke-width:59.0551; stroke-opacity:1; 
stroke-linecap:round; stroke-linejoin:round;">
<path d="M102362 4724
L102362 3937
" />
</g>
<g style="fill:#000000; fill-opacity:0.0; 
stroke:#000000; stroke-width:39.3701; stroke-opacity:1; 
stroke-linecap:round; stroke-linejoin:round;">
</g>
<g style="fill:#000000; fill-opacity:0.0; 
stroke:#000000; stroke-width:59.0551; stroke-opacity:1; 
stroke-linecap:round; stroke-linejoin:round;">
<path d="M14169 4562
L13877 4562
" />
<path d="M14023 4562
L14023 4050
L13974 4123
L13925 4172
L13877 4196
" />
</g>
<g style="fill:#000000; fill-opacity:0.0; 
stroke:#000000; stroke-width:39.3701; stroke-opacity:1; 
stroke-linecap:round; stroke-linejoin:round;">
</g>
<g style="fill:#000000; fill-opacity:0.0; 
stroke:#000000; stroke-width:59.0551; stroke-opacity:1; 
stroke-linecap:round; stroke-linejoin:round;">
<path d="M33562 4099
L33586 4074
L33635 4050
L33757 4050
L33805 4074
L33830 4099
L33854 4147
L33854 4196
L33830 4269
L33537 4562
L33854 4562
" />
</g>
<g style="fill:#000000; fill-opacity:0.0; 
stroke:#000000; stroke-width:39.3701; stroke-opacity:1; 
stroke-linecap:round; stroke-linejoin:round;">
</g>
<g style="fill:#000000; fill-opacity:0.0; 
stroke:#000000; stroke-width:59.0551; stroke-opacity:1; 
stroke-linecap:round; stroke-linejoin:round;">
<path d="M53222 4050
L53539 4050
L53368 4245
L53442 4245
L53490 4269
L53515 4294
L53539 4342
L53539 4464
L53515 4513
L53490 4537
L53442 4562
L53295 4562
L53247 4537
L53222 4513
" />
</g>
<g style="fill:#000000; fill-opacity:0.0; 
stroke:#000000; stroke-width:39.3701; stroke-opacity:1; 
stroke-linecap:round; stroke-linejoin:round;">
</g>
<g style="fill:#000000; fill-opacity:0.0; 
stroke:#000000; stroke-width:59.0551; stroke-opacity:1; 
stroke-linecap:round; stroke-linejoin:round;">
<path d="M73175 4221
L73175 4562
" />
<path d="M73053 4026
L72932 4391
L73248 4391
" />
</g>
<g style="fill:#000000; fill-opacity:0.0; 
stroke:#000000; stroke-width:39.3701; stroke-opacity:1; 
stroke-linecap:round; stroke-linejoin:round;">
</g>
<g style="fill:#000000; fill-opacity:0.0; 
stroke:#000000; stroke-width:59.0551; stroke-opacity:1; 
stroke-linecap:round; stroke-linejoin:round;">
<path d="M92885 4050
L92641 4050
L92617 4294
L92641 4269
L92690 4245
L92812 4245
L92860 4269
L92885 4294
L92909 4342
L92909 4464
L92885 4513
L92860 4537
L92812 4562
L92690 4562
L92641 4537
L92617 4513
" />
</g>
<g style="fill:#000000; fill-opacity:0.0; 
stroke:#000000; stroke-width:39.3701; stroke-opacity:1; 
stroke-linecap:round; stroke-linejoin:round;">
</g>
<g style="fill:#000000; fill-opacity:0.0; 
stroke:#000000; stroke-width:59.0551; stroke-opacity:1; 
stroke-linecap:round; stroke-linejoin:round;">
<path d="M112545 4050
L112448 4050
L112399 4074
L112375 4099
L112326 4172
L112302 4269
L112302 4464
L112326 4513
L112350 4537
L112399 4562
L112497 4562
L112545 4537
L112570 4513
L112594 4464
L112594 4342
L112570 4294
L112545 4269
L112497 4245
L112399 4245
L112350 4269
L112326 4294
L112302 4342
" />
</g>
<g style="fill:#000000; fill-opacity:0.0; 
stroke:#000000; stroke-width:39.3701; stroke-opacity:1; 
stroke-linecap:round; stroke-linejoin:round;">
</g>
<g style="fill:#000000; fill-opacity:0.0; 
stroke:#000000; stroke-width:59.0551; stroke-opacity:1; 
stroke-linecap:round; stroke-linejoin:round;">
<path d="M23622 77955
L23622 78742
" />
</g>
<g style="fill:#000000; fill-opacity:0.0; 
stroke:#000000; stroke-width:39.3701; stroke-opacity:1; 
stroke-linecap:round; stroke-linejoin:round;">
</g>
<g style="fill:#000000; fill-opacity:0.0; 
stroke:#000000; stroke-width:59.0551; stroke-opacity:1; 
stroke-linecap:round; stroke-linejoin:round;">
<path d="M43307 77955
L43307 78742
" />
</g>
<g style="fill:#000000; fill-opacity:0.0; 
stroke:#000000; stroke-width:39.3701; stroke-opacity:1; 
stroke-linecap:round; stroke-linejoin:round;">
</g>
<g style="fill:#000000; fill-opacity:0.0; 
stroke:#000000; stroke-width:59.0551; stroke-opacity:1; 
stroke-linecap:round; stroke-linejoin:round;">
<path d="M62992 77955
L62992 78742
" />
</g>
<g style="fill:#000000; fill-opacity:0.0; 
stroke:#000000; stroke-width:39.3701; stroke-opacity:1; 
stroke-linecap:round; stroke-linejoin:round;">
</g>
<g style="fill:#000000; fill-opacity:0.0; 
stroke:#000000; stroke-width:59.0551; stroke-opacity:1; 
stroke-linecap:round; stroke-linejoin:round;">
<path d="M82677 77955
L82677 78742
" />
</g>
<g style="fill:#000000; fill-opacity:0.0; 
stroke:#000000; stroke-width:39.3701; stroke-opacity:1; 
stroke-linecap:round; stroke-linejoin:round;">
</g>
<g style="fill:#000000; fill-opacity:0.0; 
stroke:#000000; stroke-width:59.0551; stroke-opacity:1; 
stroke-linecap:round; stroke-linejoin:round;">
<path d="M102362 77955
L102362 78742
" />
</g>
<g style="fill:#000000; fill-opacity:0.0; 
stroke:#000000; stroke-width:39.3701; stroke-opacity:1; 
stroke-linecap:round; stroke-linejoin:round;">
</g>
<g style="fill:#000000; fill-opacity:0.0; 
stroke:#000000; stroke-width:59.0551; stroke-opacity:1; 
stroke-linecap:round; stroke-linejoin:round;">
<path d="M14169 78580
L13877 78580
" />
<path d="M14023 78580
L14023 78069
L13974 78142
L13925 78190
L13877 78215
" />
</g>
<g style="fill:#000000; fill-opacity:0.0; 
stroke:#000000; stroke-width:39.3701; stroke-opacity:1; 
stroke-linecap:round; stroke-linejoin:round;">
</g>
<g style="fill:#000000; fill-opacity:0.0; 
stroke:#000000; stroke-width:59.0551; stroke-opacity:1; 
stroke-linecap:round; stroke-linejoin:round;">
<path d="M33562 78117
L33586 78093
L33635 78069
L33757 78069
L33805 78093
L33830 78117
L33854 78166
L33854 78215
L33830 78288
L33537 78580
L33854 78580
" />
</g>
<g style="fill:#000000; fill-opacity:0.0; 
stroke:#000000; stroke-width:39.3701; stroke-opacity:1; 
stroke-linecap:round; stroke-linejoin:round;">
</g>
<g style="fill:#000000; fill-opacity:0.0; 
stroke:#000000; stroke-width:59.0551; stroke-opacity:1; 
stroke-linecap:round; stroke-linejoin:round;">
<path d="M53222 78069
L53539 78069
L53368 78263
L53442 78263
L53490 78288
L53515 78312
L53539 78361
L53539 78483
L53515 78532
L53490 78556
L53442 78580
L53295 78580
L53247 78556
L53222 78532
" />
</g>
<g style="fill:#000000; fill-opacity:0.0; 
stroke:#000000; stroke-width:39.3701; stroke-opacity:1; 
stroke-linecap:round; stroke-linejoin:round;">
</g>
<g style="fill:#000000; fill-opacity:0.0; 
stroke:#000000; stroke-width:59.0551; stroke-opacity:1; 
stroke-linecap:round; stroke-linejoin:round;">
<path d="M73175 78239
L73175 78580
" />
<path d="M73053 78044
L72932 78410
L73248 78410
" />
</g>
<g style="fill:#000000; fill-opacity:0.0; 
stroke:#000000; stroke-width:39.3701; stroke-opacity:1; 
stroke-linecap:round; stroke-linejoin:round;">
</g>
<g style="fill:#000000; fill-opacity:0.0; 
stroke:#000000; stroke-width:59.0551; stroke-opacity:1; 
stroke-linecap:round; stroke-linejoin:round;">
<path d="M92885 78069
L92641 78069
L92617 78312
L92641 78288
L92690 78263
L92812 78263
L92860 78288
L92885 78312
L92909 78361
L92909 78483
L92885 78532
L92860 78556
L92812 78580
L92690 78580
L92641 78556
L92617 78532
" />
</g>
<g style="fill:#000000; fill-opacity:0.0; 
stroke:#000000; stroke-width:39.3701; stroke-opacity:1; 
stroke-linecap:round; stroke-linejoin:round;">
</g>
<g style="fill:#000000; fill-opacity:0.0; 
stroke:#000000; stroke-width:59.0551; stroke-opacity:1; 
stroke-linecap:round; stroke-linejoin:round;">
<path d="M112545 78069
L112448 78069
L112399 78093
L112375 78117
L112326 78190
L112302 78288
L112302 78483
L112326 78532
L112350 78556
L112399 78580
L112497 78580
L112545 78556
L112570 78532
L112594 78483
L112594 78361
L112570 78312
L112545 78288
L112497 78263
L112399 78263
L112350 78288
L112326 78312
L112302 78361
" />
</g>
<g style="fill:#000000; fill-opacity:0.0; 
stroke:#000000; stroke-width:39.3701; stroke-opacity:1; 
stroke-linecap:round; stroke-linejoin:round;">
</g>
<g style="fill:#000000; fill-opacity:0.0; 
stroke:#000000; stroke-width:59.0551; stroke-opacity:1; 
stroke-linecap:round; stroke-linejoin:round;">
<path d="M3937 23622
L4724 23622
" />
</g>
<g style="fill:#000000; fill-opacity:0.0; 
stroke:#000000; stroke-width:39.3701; stroke-opacity:1; 
stroke-linecap:round; stroke-linejoin:round;">
</g>
<g style="fill:#000000; fill-opacity:0.0; 
stroke:#000000; stroke-width:59.0551; stroke-opacity:1; 
stroke-linecap:round; stroke-linejoin:round;">
<path d="M3937 43307
L4724 43307
" />
</g>
<g style="fill:#000000; fill-opacity:0.0; 
stroke:#000000; stroke-width:39.3701; stroke-opacity:1; 
stroke-linecap:round; stroke-linejoin:round;">
</g>
<g style="fill:#000000; fill-opacity:0.0; 
stroke:#000000; stroke-width:59.0551; stroke-opacity:1; 
stroke-linecap:round; stroke-linejoin:round;">
<path d="M3937 62992
L4724 62992
" />
</g>
<g style="fill:#000000; fill-opacity:0.0; 
stroke:#000000; stroke-width:39.3701; stroke-opacity:1; 
stroke-linecap:round; stroke-linejoin:round;">
</g>
<g style="fill:#000000; fill-opacity:0.0; 
stroke:#000000; stroke-width:59.0551; stroke-opacity:1; 
stroke-linecap:round; stroke-linejoin:round;">
<path d="M4208 13864
L4452 13864
" />
<path d="M4160 14011
L4330 13499
L4501 14011
" />
</g>
<g style="fill:#000000; fill-opacity:0.0; 
stroke:#000000; stroke-width:39.3701; stroke-opacity:1; 
stroke-linecap:round; stroke-linejoin:round;">
</g>
<g style="fill:#000000; fill-opacity:0.0; 
stroke:#000000; stroke-width:59.0551; stroke-opacity:1; 
stroke-linecap:round; stroke-linejoin:round;">
<path d="M4367 33428
L4440 33452
L4464 33476
L4489 33525
L4489 33598
L4464 33647
L4440 33671
L4391 33696
L4196 33696
L4196 33184
L4367 33184
L4416 33208
L4440 33233
L4464 33281
L4464 33330
L4440 33379
L4416 33403
L4367 33428
L4196 33428
" />
</g>
<g style="fill:#000000; fill-opacity:0.0; 
stroke:#000000; stroke-width:39.3701; stroke-opacity:1; 
stroke-linecap:round; stroke-linejoin:round;">
</g>
<g style="fill:#000000; fill-opacity:0.0; 
stroke:#000000; stroke-width:59.0551; stroke-opacity:1; 
stroke-linecap:round; stroke-linejoin:round;">
<path d="M4489 53332
L4464 53356
L4391 53381
L4342 53381
L4269 53356
L4221 53308
L4196 53259
L4172 53161
L4172 53088
L4196 52991
L4221 52942
L4269 52893
L4342 52869
L4391 52869
L4464 52893
L4489 52918
" />
</g>
<g style="fill:#000000; fill-opacity:0.0; 
stroke:#000000; stroke-width:39.3701; stroke-opacity:1; 
stroke-linecap:round; stroke-linejoin:round;">
</g>
<g style="fill:#000000; fill-opacity:0.0; 
stroke:#000000; stroke-width:59.0551; stroke-opacity:1; 
stroke-linecap:round; stroke-linejoin:round;">
<path d="M4196 73066
L4196 72554
L4318 72554
L4391 72578
L4440 72627
L4464 72676
L4489 72773
L4489 72846
L4464 72944
L4440 72993
L4391 73041
L4318 73066
L4196 73066
" />
</g>
<g style="fill:#000000; fill-opacity:0.0; 
stroke:#000000; stroke-width:39.3701; stroke-opacity:1; 
stroke-linecap:round; stroke-linejoin:round;">
</g>
<g style="fill:#000000; fill-opacity:0.0; 
stroke:#000000; stroke-width:59.0551; stroke-opacity:1; 
stroke-linecap:round; stroke-linejoin:round;">
<path d="M112992 23622
L112205 23622
" />
</g>
<g style="fill:#000000; fill-opacity:0.0; 
stroke:#000000; stroke-width:39.3701; stroke-opacity:1; 
stroke-linecap:round; stroke-linejoin:round;">
</g>
<g style="fill:#000000; fill-opacity:0.0; 
stroke:#000000; stroke-width:59.0551; stroke-opacity:1; 
stroke-linecap:round; stroke-linejoin:round;">
<path d="M112992 43307
L112205 43307
" />
</g>
<g style="fill:#000000; fill-opacity:0.0; 
stroke:#000000; stroke-width:39.3701; stroke-opacity:1; 
stroke-linecap:round; stroke-linejoin:round;">
</g>
<g style="fill:#000000; fill-opacity:0.0; 
stroke:#000000; stroke-width:59.0551; stroke-opacity:1; 
stroke-linecap:round; stroke-linejoin:round;">
<path d="M112992 62992
L112205 62992
" />
</g>
<g style="fill:#000000; fill-opacity:0.0; 
stroke:#000000; stroke-width:39.3701; stroke-opacity:1; 
stroke-linecap:round; stroke-linejoin:round;">
</g>
<g style="fill:#000000; fill-opacity:0.0; 
stroke:#000000; stroke-width:59.0551; stroke-opacity:1; 
stroke-linecap:round; stroke-linejoin:round;">
<path d="M112477 13864
L112721 13864
" />
<path d="M112428 14011
L112599 13499
L112769 14011
" />
</g>
<g style="fill:#000000; fill-opacity:0.0; 
stroke:#000000; stroke-width:39.3701; stroke-opacity:1; 
stroke-linecap:round; stroke-linejoin:round;">
</g>
<g style="fill:#000000; fill-opacity:0.0; 
stroke:#000000; stroke-width:59.0551; stroke-opacity:1; 
stroke-linecap:round; stroke-linejoin:round;">
<path d="M112635 33428
L112708 33452
L112733 33476
L112757 33525
L112757 33598
L112733 33647
L112708 33671
L112660 33696
L112465 33696
L112465 33184
L112635 33184
L112684 33208
L112708 33233
L112733 33281
L112733 33330
L112708 33379
L112684 33403
L112635 33428
L112465 33428
" />
</g>
<g style="fill:#000000; fill-opacity:0.0; 
stroke:#000000; stroke-width:39.3701; stroke-opacity:1; 
stroke-linecap:round; stroke-linejoin:round;">
</g>
<g style="fill:#000000; fill-opacity:0.0; 
stroke:#000000; stroke-width:59.0551; stroke-opacity:1; 
stroke-linecap:round; stroke-linejoin:round;">
<path d="M112757 53332
L112733 53356
L112660 53381
L112611 53381
L112538 53356
L112489 53308
L112465 53259
L112440 53161
L112440 53088
L112465 52991
L112489 52942
L112538 52893
L112611 52869
L112660 52869
L112733 52893
L112757 52918
" />
</g>
<g style="fill:#000000; fill-opacity:0.0; 
stroke:#000000; stroke-width:39.3701; stroke-opacity:1; 
stroke-linecap:round; stroke-linejoin:round;">
</g>
<g style="fill:#000000; fill-opacity:0.0; 
stroke:#000000; stroke-width:59.0551; stroke-opacity:1; 
stroke-linecap:round; stroke-linejoin:round;">
<path d="M112465 73066
L112465 72554
L112587 72554
L112660 72578
L112708 72627
L112733 72676
L112757 72773
L112757 72846
L112733 72944
L112708 72993
L112660 73041
L112587 73066
L112465 73066
" />
</g>
<g style="fill:#000000; fill-opacity:0.0; 
stroke:#000000; stroke-width:39.3701; stroke-opacity:1; 
stroke-linecap:round; stroke-linejoin:round;">
</g>
<g style="fill:#000000; fill-opacity:0.0; 
stroke:#000000; stroke-width:59.0551; stroke-opacity:1; 
stroke-linecap:round; stroke-linejoin:round;">
<path d="M78881 76293
L78881 75703
L79022 75703
L79106 75731
L79162 75787
L79190 75843
L79219 75956
L79219 76040
L79190 76153
L79162 76209
L79106 76265
L79022 76293
L78881 76293
" />
<path d="M79725 76293
L79725 75984
L79697 75928
L79640 75899
L79528 75899
L79472 75928
" />
<path d="M79725 76265
L79669 76293
L79528 76293
L79472 76265
L79444 76209
L79444 76153
L79472 76096
L79528 76068
L79669 76068
L79725 76040
" />
<path d="M79922 75899
L80147 75899
" />
<path d="M80006 75703
L80006 76209
L80034 76265
L80090 76293
L80147 76293
" />
<path d="M80568 76265
L80512 76293
L80400 76293
L80343 76265
L80315 76209
L80315 75984
L80343 75928
L80400 75899
L80512 75899
L80568 75928
L80597 75984
L80597 76040
L80315 76096
" />
<path d="M80850 76237
L80878 76265
L80850 76293
L80822 76265
L80850 76237
L80850 76293
" />
<path d="M80850 75928
L80878 75956
L80850 75984
L80822 75956
L80850 75928
L80850 75984
" />
</g>
<g style="fill:#000000; fill-opacity:0.0; 
stroke:#000000; stroke-width:39.3701; stroke-opacity:1; 
stroke-linecap:round; stroke-linejoin:round;">
</g>
<g style="fill:#000000; fill-opacity:0.0; 
stroke:#000000; stroke-width:59.0551; stroke-opacity:1; 
stroke-linecap:round; stroke-linejoin:round;">
<path d="M69685 76577
L112205 76577
" />
</g>
<g style="fill:#000000; fill-opacity:0.0; 
stroke:#000000; stroke-width:39.3701; stroke-opacity:1; 
stroke-linecap:round; stroke-linejoin:round;">
</g>
<g style="fill:#000000; fill-opacity:0.0; 
stroke:#000000; stroke-width:59.0551; stroke-opacity:1; 
stroke-linecap:round; stroke-linejoin:round;">
<path d="M70220 77395
L70220 76805
" />
<path d="M70557 77395
L70304 77058
" />
<path d="M70557 76805
L70220 77142
" />
<path d="M70810 77395
L70810 77002
" />
<path d="M70810 76805
L70782 76833
L70810 76861
L70838 76833
L70810 76805
L70810 76861
" />
<path d="M71429 77339
L71401 77367
L71316 77395
L71260 77395
L71176 77367
L71120 77311
L71091 77255
L71063 77142
L71063 77058
L71091 76946
L71120 76889
L71176 76833
L71260 76805
L71316 76805
L71401 76833
L71429 76861
" />
<path d="M71935 77395
L71935 77086
L71907 77030
L71851 77002
L71738 77002
L71682 77030
" />
<path d="M71935 77367
L71879 77395
L71738 77395
L71682 77367
L71654 77311
L71654 77255
L71682 77199
L71738 77171
L71879 77171
L71935 77142
" />
<path d="M72469 77395
L72469 76805
" />
<path d="M72469 77367
L72413 77395
L72301 77395
L72244 77367
L72216 77339
L72188 77283
L72188 77114
L72216 77058
L72244 77030
L72301 77002
L72413 77002
L72469 77030
" />
<path d="M73201 77086
L73397 77086
" />
<path d="M73482 77395
L73201 77395
L73201 76805
L73482 76805
" />
<path d="M73735 77339
L73763 77367
L73735 77395
L73707 77367
L73735 77339
L73735 77395
" />
<path d="M74016 77395
L74016 76805
L74157 76805
L74241 76833
L74297 76889
L74325 76946
L74354 77058
L74354 77142
L74325 77255
L74297 77311
L74241 77367
L74157 77395
L74016 77395
" />
<path d="M74607 77339
L74635 77367
L74607 77395
L74579 77367
L74607 77339
L74607 77395
" />
<path d="M74860 77227
L75141 77227
" />
<path d="M74804 77395
L75000 76805
L75197 77395
" />
<path d="M75394 77339
L75422 77367
L75394 77395
L75366 77367
L75394 77339
L75394 77395
" />
<path d="M76575 77395
L76575 76805
" />
<path d="M76631 77171
L76800 77395
" />
<path d="M76800 77002
L76575 77227
" />
<path d="M77053 77395
L77053 77002
" />
<path d="M77053 76805
L77025 76833
L77053 76861
L77081 76833
L77053 76805
L77053 76861
" />
<path d="M77588 77367
L77531 77395
L77419 77395
L77363 77367
L77334 77339
L77306 77283
L77306 77114
L77334 77058
L77363 77030
L77419 77002
L77531 77002
L77588 77030
" />
<path d="M78094 77395
L78094 77086
L78066 77030
L78009 77002
L77897 77002
L77841 77030
" />
<path d="M78094 77367
L78037 77395
L77897 77395
L77841 77367
L77813 77311
L77813 77255
L77841 77199
L77897 77171
L78037 77171
L78094 77142
" />
<path d="M78628 77395
L78628 76805
" />
<path d="M78628 77367
L78572 77395
L78459 77395
L78403 77367
L78375 77339
L78347 77283
L78347 77114
L78375 77058
L78403 77030
L78459 77002
L78572 77002
L78628 77030
" />
<path d="M79612 77002
L79612 77395
" />
<path d="M79472 76777
L79331 77199
L79697 77199
" />
<path d="M79922 77339
L79950 77367
L79922 77395
L79894 77367
L79922 77339
L79922 77395
" />
<path d="M80315 76805
L80372 76805
L80428 76833
L80456 76861
L80484 76917
L80512 77030
L80512 77171
L80484 77283
L80456 77339
L80428 77367
L80372 77395
L80315 77395
L80259 77367
L80231 77339
L80203 77283
L80175 77171
L80175 77030
L80203 76917
L80231 76861
L80259 76833
L80315 76805
" />
<path d="M80765 77339
L80793 77367
L80765 77395
L80737 77367
L80765 77339
L80765 77395
" />
<path d="M81356 77395
L81018 77395
" />
<path d="M81187 77395
L81187 76805
L81131 76889
L81075 76946
L81018 76974
" />
<path d="M81609 77171
L82059 77171
" />
<path d="M82312 77367
L82368 77395
L82481 77395
L82537 77367
L82565 77311
L82565 77283
L82537 77227
L82481 77199
L82396 77199
L82340 77171
L82312 77114
L82312 77086
L82340 77030
L82396 77002
L82481 77002
L82537 77030
" />
<path d="M82734 77002
L82959 77002
" />
<path d="M82818 76805
L82818 77311
L82846 77367
L82903 77395
L82959 77395
" />
<path d="M83409 77395
L83409 77086
L83381 77030
L83324 77002
L83212 77002
L83156 77030
" />
<path d="M83409 77367
L83352 77395
L83212 77395
L83156 77367
L83127 77311
L83127 77255
L83156 77199
L83212 77171
L83352 77171
L83409 77142
" />
<path d="M83690 77395
L83690 76805
" />
<path d="M83690 77030
L83746 77002
L83859 77002
L83915 77030
L83943 77058
L83971 77114
L83971 77283
L83943 77339
L83915 77367
L83859 77395
L83746 77395
L83690 77367
" />
<path d="M84309 77395
L84252 77367
L84224 77311
L84224 76805
" />
<path d="M84759 77367
L84702 77395
L84590 77395
L84534 77367
L84505 77311
L84505 77086
L84534 77030
L84590 77002
L84702 77002
L84759 77030
L84787 77086
L84787 77142
L84505 77199
" />
</g>
<g style="fill:#000000; fill-opacity:0.0; 
stroke:#000000; stroke-width:39.3701; stroke-opacity:1; 
stroke-linecap:round; stroke-linejoin:round;">
</g>
<g style="fill:#000000; fill-opacity:0.0; 
stroke:#000000; stroke-width:59.0551; stroke-opacity:1; 
stroke-linecap:round; stroke-linejoin:round;">
<path d="M69685 75396
L112205 75396
" />
</g>
<g style="fill:#000000; fill-opacity:0.0; 
stroke:#000000; stroke-width:39.3701; stroke-opacity:1; 
stroke-linecap:round; stroke-linejoin:round;">
</g>
<g style="fill:#000000; fill-opacity:0.0; 
stroke:#000000; stroke-width:118.11; stroke-opacity:1; 
stroke-linecap:round; stroke-linejoin:round;">
<path d="M104022 76293
L103825 76012
" />
<path d="M103684 76293
L103684 75703
L103909 75703
L103965 75731
L103994 75759
L104022 75815
L104022 75899
L103994 75956
L103965 75984
L103909 76012
L103684 76012
" />
<path d="M104500 76265
L104444 76293
L104331 76293
L104275 76265
L104247 76209
L104247 75984
L104275 75928
L104331 75899
L104444 75899
L104500 75928
L104528 75984
L104528 76040
L104247 76096
" />
<path d="M104725 75899
L104865 76293
L105006 75899
" />
<path d="M105231 76237
L105259 76265
L105231 76293
L105203 76265
L105231 76237
L105231 76293
" />
<path d="M105231 75928
L105259 75956
L105231 75984
L105203 75956
L105231 75928
L105231 75984
" />
<path d="M106271 76293
L105934 76293
" />
<path d="M106103 76293
L106103 75703
L106046 75787
L105990 75843
L105934 75871
" />
<path d="M106525 76237
L106553 76265
L106525 76293
L106496 76265
L106525 76237
L106525 76293
" />
<path d="M106918 75703
L106974 75703
L107031 75731
L107059 75759
L107087 75815
L107115 75928
L107115 76068
L107087 76181
L107059 76237
L107031 76265
L106974 76293
L106918 76293
L106862 76265
L106834 76237
L106806 76181
L106778 76068
L106778 75928
L106806 75815
L106834 75759
L106862 75731
L106918 75703
" />
<path d="M107678 76293
L107340 76293
" />
<path d="M107509 76293
L107509 75703
L107453 75787
L107396 75843
L107340 75871
" />
</g>
<g style="fill:#000000; fill-opacity:0.0; 
stroke:#000000; stroke-width:39.3701; stroke-opacity:1; 
stroke-linecap:round; stroke-linejoin:round;">
</g>
<g style="fill:#000000; fill-opacity:0.0; 
stroke:#000000; stroke-width:59.0551; stroke-opacity:1; 
stroke-linecap:round; stroke-linejoin:round;">
<path d="M70192 76265
L70276 76293
L70417 76293
L70473 76265
L70501 76237
L70529 76181
L70529 76124
L70501 76068
L70473 76040
L70417 76012
L70304 75984
L70248 75956
L70220 75928
L70192 75871
L70192 75815
L70220 75759
L70248 75731
L70304 75703
L70445 75703
L70529 75731
" />
<path d="M70782 76293
L70782 75899
" />
<path d="M70782 75703
L70754 75731
L70782 75759
L70810 75731
L70782 75703
L70782 75759
" />
<path d="M71007 75899
L71316 75899
L71007 76293
L71316 76293
" />
<path d="M71766 76265
L71710 76293
L71598 76293
L71541 76265
L71513 76209
L71513 75984
L71541 75928
L71598 75899
L71710 75899
L71766 75928
L71795 75984
L71795 76040
L71513 76096
" />
<path d="M72048 76237
L72076 76265
L72048 76293
L72019 76265
L72048 76237
L72048 76293
" />
<path d="M72048 75928
L72076 75956
L72048 75984
L72019 75956
L72048 75928
L72048 75984
" />
<path d="M72751 76124
L73032 76124
" />
<path d="M72694 76293
L72891 75703
L73088 76293
" />
<path d="M73538 75899
L73538 76293
" />
<path d="M73397 75674
L73257 76096
L73622 76096
" />
</g>
<g style="fill:#000000; fill-opacity:0.0; 
stroke:#000000; stroke-width:39.3701; stroke-opacity:1; 
stroke-linecap:round; stroke-linejoin:round;">
</g>
<g style="fill:#000000; fill-opacity:0.0; 
stroke:#000000; stroke-width:59.0551; stroke-opacity:1; 
stroke-linecap:round; stroke-linejoin:round;">
<path d="M103684 77395
L103684 76805
" />
<path d="M104219 77395
L104219 76805
" />
<path d="M104219 77367
L104162 77395
L104050 77395
L103994 77367
L103965 77339
L103937 77283
L103937 77114
L103965 77058
L103994 77030
L104050 77002
L104162 77002
L104219 77030
" />
<path d="M104500 77339
L104528 77367
L104500 77395
L104472 77367
L104500 77339
L104500 77395
" />
<path d="M104500 77030
L104528 77058
L104500 77086
L104472 77058
L104500 77030
L104500 77086
" />
<path d="M105540 77395
L105203 77395
" />
<path d="M105372 77395
L105372 76805
L105315 76889
L105259 76946
L105203 76974
" />
<path d="M106215 76777
L105709 77536
" />
<path d="M106721 77395
L106384 77395
" />
<path d="M106553 77395
L106553 76805
L106496 76889
L106440 76946
L106384 76974
" />
</g>
<g style="fill:#000000; fill-opacity:0.0; 
stroke:#000000; stroke-width:39.3701; stroke-opacity:1; 
stroke-linecap:round; stroke-linejoin:round;">
</g>
<g style="fill:#000000; fill-opacity:0.0; 
stroke:#000000; stroke-width:59.0551; stroke-opacity:1; 
stroke-linecap:round; stroke-linejoin:round;">
<path d="M69685 73821
L112205 73821
" />
</g>
<g style="fill:#000000; fill-opacity:0.0; 
stroke:#000000; stroke-width:39.3701; stroke-opacity:1; 
stroke-linecap:round; stroke-linejoin:round;">
</g>
<g style="fill:#000000; fill-opacity:0.0; 
stroke:#000000; stroke-width:157.48; stroke-opacity:1; 
stroke-linecap:round; stroke-linejoin:round;">
<path d="M70257 74099
L70707 74099
" />
<path d="M70384 74886
L70482 74099
" />
<path d="M70871 74886
L70937 74361
" />
<path d="M70970 74099
L70927 74136
L70960 74174
L71002 74136
L70970 74099
L70960 74174
" />
<path d="M71199 74361
L71499 74361
" />
<path d="M71345 74099
L71260 74774
L71288 74849
L71359 74886
L71434 74886
" />
<path d="M71809 74886
L71738 74849
L71710 74774
L71795 74099
" />
<path d="M72413 74849
L72334 74886
L72184 74886
L72113 74849
L72085 74774
L72123 74474
L72169 74399
L72249 74361
L72399 74361
L72469 74399
L72498 74474
L72488 74549
L72104 74624
" />
<path d="M72793 74811
L72826 74849
L72783 74886
L72751 74849
L72793 74811
L72783 74886
" />
<path d="M72844 74399
L72877 74436
L72835 74474
L72802 74436
L72844 74399
L72835 74474
" />
<path d="M73749 74661
L74124 74661
" />
<path d="M73646 74886
L74007 74099
L74171 74886
" />
<path d="M74433 74886
L74499 74361
" />
<path d="M74480 74511
L74527 74436
L74569 74399
L74649 74361
L74724 74361
" />
<path d="M75258 74886
L75357 74099
" />
<path d="M75263 74849
L75183 74886
L75033 74886
L74963 74849
L74930 74811
L74902 74736
L74930 74511
L74977 74436
L75019 74399
L75099 74361
L75249 74361
L75319 74399
" />
<path d="M76036 74361
L75971 74886
" />
<path d="M75699 74361
L75647 74774
L75675 74849
L75746 74886
L75858 74886
L75938 74849
L75980 74811
" />
<path d="M76346 74886
L76411 74361
" />
<path d="M76444 74099
L76402 74136
L76435 74174
L76477 74136
L76444 74099
L76435 74174
" />
<path d="M76786 74361
L76720 74886
" />
<path d="M76777 74436
L76819 74399
L76899 74361
L77011 74361
L77081 74399
L77109 74474
L77058 74886
" />
<path d="M77545 74886
L77475 74849
L77442 74811
L77414 74736
L77442 74511
L77489 74436
L77531 74399
L77611 74361
L77723 74361
L77794 74399
L77827 74436
L77855 74511
L77827 74736
L77780 74811
L77738 74849
L77658 74886
L77545 74886
" />
<path d="M79205 74811
L79162 74849
L79045 74886
L78970 74886
L78862 74849
L78797 74774
L78769 74699
L78750 74549
L78764 74436
L78820 74286
L78867 74211
L78951 74136
L79069 74099
L79144 74099
L79251 74136
L79284 74174
" />
<path d="M79533 74886
L79631 74099
" />
<path d="M79870 74886
L79922 74474
L79894 74399
L79823 74361
L79711 74361
L79631 74399
L79589 74436
" />
<path d="M80245 74886
L80311 74361
" />
<path d="M80292 74511
L80339 74436
L80381 74399
L80461 74361
L80536 74361
" />
<path d="M80732 74886
L80798 74361
" />
<path d="M80831 74099
L80789 74136
L80822 74174
L80864 74136
L80831 74099
L80822 74174
" />
<path d="M81075 74849
L81145 74886
L81295 74886
L81375 74849
L81421 74774
L81426 74736
L81398 74661
L81328 74624
L81215 74624
L81145 74586
L81117 74511
L81121 74474
L81168 74399
L81248 74361
L81361 74361
L81431 74399
" />
<path d="M81698 74361
L81998 74361
" />
<path d="M81843 74099
L81759 74774
L81787 74849
L81857 74886
L81932 74886
" />
<path d="M82195 74886
L82260 74361
" />
<path d="M82251 74436
L82293 74399
L82373 74361
L82485 74361
L82556 74399
L82584 74474
L82532 74886
" />
<path d="M82584 74474
L82631 74399
L82710 74361
L82823 74361
L82893 74399
L82921 74474
L82870 74886
" />
<path d="M83582 74886
L83634 74474
L83606 74399
L83535 74361
L83385 74361
L83306 74399
" />
<path d="M83587 74849
L83507 74886
L83320 74886
L83249 74849
L83221 74774
L83231 74699
L83277 74624
L83357 74586
L83545 74586
L83624 74549
" />
<path d="M84543 74099
L84993 74099
" />
<path d="M84669 74886
L84768 74099
" />
<path d="M85157 74886
L85223 74361
" />
<path d="M85204 74511
L85251 74436
L85293 74399
L85373 74361
L85447 74361
" />
<path d="M85949 74849
L85869 74886
L85719 74886
L85649 74849
L85621 74774
L85658 74474
L85705 74399
L85785 74361
L85935 74361
L86005 74399
L86033 74474
L86024 74549
L85640 74624
" />
<path d="M86624 74849
L86544 74886
L86394 74886
L86324 74849
L86296 74774
L86333 74474
L86380 74399
L86460 74361
L86610 74361
L86680 74399
L86708 74474
L86699 74549
L86315 74624
" />
</g>
<g style="fill:#000000; fill-opacity:0.0; 
stroke:#000000; stroke-width:39.3701; stroke-opacity:1; 
stroke-linecap:round; stroke-linejoin:round;">
</g>
<g style="fill:#000000; fill-opacity:0.0; 
stroke:#000000; stroke-width:59.0551; stroke-opacity:1; 
stroke-linecap:round; stroke-linejoin:round;">
<path d="M70417 73070
L70220 73070
" />
<path d="M70220 73380
L70220 72789
L70501 72789
" />
<path d="M70726 73380
L70726 72986
" />
<path d="M70726 72789
L70698 72817
L70726 72845
L70754 72817
L70726 72789
L70726 72845
" />
<path d="M71091 73380
L71035 73352
L71007 73295
L71007 72789
" />
<path d="M71541 73352
L71485 73380
L71373 73380
L71316 73352
L71288 73295
L71288 73070
L71316 73014
L71373 72986
L71485 72986
L71541 73014
L71570 73070
L71570 73127
L71288 73183
" />
<path d="M71823 73323
L71851 73352
L71823 73380
L71795 73352
L71823 73323
L71823 73380
" />
<path d="M71823 73014
L71851 73042
L71823 73070
L71795 73042
L71823 73014
L71823 73070
" />
<path d="M72526 73211
L72807 73211
" />
<path d="M72469 73380
L72666 72789
L72863 73380
" />
<path d="M73060 73380
L73060 72986
" />
<path d="M73060 73099
L73088 73042
L73116 73014
L73172 72986
L73229 72986
" />
<path d="M73679 73380
L73679 72789
" />
<path d="M73679 73352
L73622 73380
L73510 73380
L73454 73352
L73426 73323
L73397 73267
L73397 73099
L73426 73042
L73454 73014
L73510 72986
L73622 72986
L73679 73014
" />
<path d="M74213 72986
L74213 73380
" />
<path d="M73960 72986
L73960 73295
L73988 73352
L74044 73380
L74129 73380
L74185 73352
L74213 73323
" />
<path d="M74494 73380
L74494 72986
" />
<path d="M74494 72789
L74466 72817
L74494 72845
L74522 72817
L74494 72789
L74494 72845
" />
<path d="M74775 72986
L74775 73380
" />
<path d="M74775 73042
L74804 73014
L74860 72986
L74944 72986
L75000 73014
L75028 73070
L75028 73380
" />
<path d="M75394 73380
L75338 73352
L75310 73323
L75282 73267
L75282 73099
L75310 73042
L75338 73014
L75394 72986
L75478 72986
L75535 73014
L75563 73042
L75591 73099
L75591 73267
L75563 73323
L75535 73352
L75478 73380
L75394 73380
" />
<path d="M75760 72789
L76097 72789
" />
<path d="M75928 73380
L75928 72789
" />
<path d="M76294 73380
L76294 72986
" />
<path d="M76294 73099
L76322 73042
L76350 73014
L76406 72986
L76463 72986
" />
<path d="M76885 73352
L76828 73380
L76716 73380
L76660 73352
L76631 73295
L76631 73070
L76660 73014
L76716 72986
L76828 72986
L76885 73014
L76913 73070
L76913 73127
L76631 73183
" />
<path d="M77391 73352
L77334 73380
L77222 73380
L77166 73352
L77138 73295
L77138 73070
L77166 73014
L77222 72986
L77334 72986
L77391 73014
L77419 73070
L77419 73127
L77138 73183
" />
<path d="M77672 73323
L77700 73352
L77672 73380
L77644 73352
L77672 73323
L77672 73380
" />
<path d="M77953 73380
L77953 72789
" />
<path d="M78009 73155
L78178 73380
" />
<path d="M78178 72986
L77953 73211
" />
<path d="M78431 73380
L78431 72986
" />
<path d="M78431 72789
L78403 72817
L78431 72845
L78459 72817
L78431 72789
L78431 72845
" />
<path d="M78965 73352
L78909 73380
L78797 73380
L78741 73352
L78712 73323
L78684 73267
L78684 73099
L78712 73042
L78741 73014
L78797 72986
L78909 72986
L78965 73014
" />
<path d="M79472 73380
L79472 73070
L79444 73014
L79387 72986
L79275 72986
L79219 73014
" />
<path d="M79472 73352
L79415 73380
L79275 73380
L79219 73352
L79190 73295
L79190 73239
L79219 73183
L79275 73155
L79415 73155
L79472 73127
" />
<path d="M80006 73380
L80006 72789
" />
<path d="M80006 73352
L79950 73380
L79837 73380
L79781 73352
L79753 73323
L79725 73267
L79725 73099
L79753 73042
L79781 73014
L79837 72986
L79950 72986
L80006 73014
" />
<path d="M80147 73436
L80597 73436
" />
<path d="M80737 72986
L80737 73577
" />
<path d="M80737 73014
L80793 72986
L80906 72986
L80962 73014
L80990 73042
L81018 73099
L81018 73267
L80990 73323
L80962 73352
L80906 73380
L80793 73380
L80737 73352
" />
<path d="M81525 73352
L81468 73380
L81356 73380
L81300 73352
L81271 73323
L81243 73267
L81243 73099
L81271 73042
L81300 73014
L81356 72986
L81468 72986
L81525 73014
" />
<path d="M81778 73380
L81778 72789
" />
<path d="M81778 73014
L81834 72986
L81946 72986
L82003 73014
L82031 73042
L82059 73099
L82059 73267
L82031 73323
L82003 73352
L81946 73380
L81834 73380
L81778 73352
" />
</g>
<g style="fill:#000000; fill-opacity:0.0; 
stroke:#000000; stroke-width:39.3701; stroke-opacity:1; 
stroke-linecap:round; stroke-linejoin:round;">
</g>
<g style="fill:#000000; fill-opacity:0.0; 
stroke:#000000; stroke-width:59.0551; stroke-opacity:1; 
stroke-linecap:round; stroke-linejoin:round;">
<path d="M69685 71459
L112205 71459
" />
</g>
<g style="fill:#000000; fill-opacity:0.0; 
stroke:#000000; stroke-width:39.3701; stroke-opacity:1; 
stroke-linecap:round; stroke-linejoin:round;">
</g>
<g style="fill:#000000; fill-opacity:0.0; 
stroke:#000000; stroke-width:59.0551; stroke-opacity:1; 
stroke-linecap:round; stroke-linejoin:round;">
<path d="M70192 72289
L70276 72317
L70417 72317
L70473 72289
L70501 72260
L70529 72204
L70529 72148
L70501 72092
L70473 72064
L70417 72036
L70304 72007
L70248 71979
L70220 71951
L70192 71895
L70192 71839
L70220 71782
L70248 71754
L70304 71726
L70445 71726
L70529 71754
" />
<path d="M70782 72317
L70782 71726
" />
<path d="M71035 72317
L71035 72007
L71007 71951
L70951 71923
L70867 71923
L70810 71951
L70782 71979
" />
<path d="M71541 72289
L71485 72317
L71373 72317
L71316 72289
L71288 72232
L71288 72007
L71316 71951
L71373 71923
L71485 71923
L71541 71951
L71570 72007
L71570 72064
L71288 72120
" />
<path d="M72048 72289
L71991 72317
L71879 72317
L71823 72289
L71795 72232
L71795 72007
L71823 71951
L71879 71923
L71991 71923
L72048 71951
L72076 72007
L72076 72064
L71795 72120
" />
<path d="M72244 71923
L72469 71923
" />
<path d="M72329 71726
L72329 72232
L72357 72289
L72413 72317
L72469 72317
" />
<path d="M72666 72260
L72694 72289
L72666 72317
L72638 72289
L72666 72260
L72666 72317
" />
<path d="M72666 71951
L72694 71979
L72666 72007
L72638 71979
L72666 71951
L72666 72007
" />
</g>
<g style="fill:#000000; fill-opacity:0.0; 
stroke:#000000; stroke-width:39.3701; stroke-opacity:1; 
stroke-linecap:round; stroke-linejoin:round;">
</g>
<g style="fill:#000000; fill-opacity:0.0; 
stroke:#000000; stroke-width:118.11; stroke-opacity:1; 
stroke-linecap:round; stroke-linejoin:round;">
<path d="M70220 71136
L70220 70545
L70417 70967
L70613 70545
L70613 71136
" />
<path d="M70895 71136
L70895 70742
" />
<path d="M70895 70545
L70867 70573
L70895 70601
L70923 70573
L70895 70545
L70895 70601
" />
<path d="M71429 71108
L71373 71136
L71260 71136
L71204 71108
L71176 71079
L71148 71023
L71148 70854
L71176 70798
L71204 70770
L71260 70742
L71373 70742
L71429 70770
" />
<path d="M71682 70911
L72132 70911
" />
<path d="M72582 70545
L72582 70967
L72554 71051
L72498 71108
L72413 71136
L72357 71136
" />
<path d="M72947 71136
L72891 71108
L72863 71079
L72835 71023
L72835 70854
L72863 70798
L72891 70770
L72947 70742
L73032 70742
L73088 70770
L73116 70798
L73144 70854
L73144 71023
L73116 71079
L73088 71108
L73032 71136
L72947 71136
" />
<path d="M73369 71108
L73426 71136
L73538 71136
L73594 71108
L73622 71051
L73622 71023
L73594 70967
L73538 70939
L73454 70939
L73397 70911
L73369 70854
L73369 70826
L73397 70770
L73454 70742
L73538 70742
L73594 70770
" />
<path d="M73876 71136
L73876 70742
" />
<path d="M73876 70545
L73847 70573
L73876 70601
L73904 70573
L73876 70545
L73876 70601
" />
</g>
<g style="fill:#000000; fill-opacity:0.0; 
stroke:#000000; stroke-width:39.3701; stroke-opacity:1; 
stroke-linecap:round; stroke-linejoin:round;">
</g>
<g style="fill:#000000; fill-opacity:0.0; 
stroke:#000000; stroke-width:59.0551; stroke-opacity:1; 
stroke-linecap:round; stroke-linejoin:round;">
<path d="M70192 69786
L70473 69786
" />
<path d="M70135 69955
L70332 69364
L70529 69955
" />
<path d="M70726 69955
L70726 69561
" />
<path d="M70726 69673
L70754 69617
L70782 69589
L70838 69561
L70895 69561
" />
<path d="M71345 69955
L71345 69364
" />
<path d="M71345 69926
L71288 69955
L71176 69955
L71120 69926
L71091 69898
L71063 69842
L71063 69673
L71091 69617
L71120 69589
L71176 69561
L71288 69561
L71345 69589
" />
<path d="M71879 69561
L71879 69955
" />
<path d="M71626 69561
L71626 69870
L71654 69926
L71710 69955
L71795 69955
L71851 69926
L71879 69898
" />
<path d="M72160 69955
L72160 69561
" />
<path d="M72160 69364
L72132 69392
L72160 69420
L72188 69392
L72160 69364
L72160 69420
" />
<path d="M72441 69561
L72441 69955
" />
<path d="M72441 69617
L72469 69589
L72526 69561
L72610 69561
L72666 69589
L72694 69645
L72694 69955
" />
<path d="M73060 69955
L73004 69926
L72976 69898
L72947 69842
L72947 69673
L72976 69617
L73004 69589
L73060 69561
L73144 69561
L73201 69589
L73229 69617
L73257 69673
L73257 69842
L73229 69898
L73201 69926
L73144 69955
L73060 69955
" />
<path d="M73960 69955
L73960 69364
L74297 69955
L74297 69364
" />
<path d="M74832 69955
L74832 69645
L74804 69589
L74747 69561
L74635 69561
L74579 69589
" />
<path d="M74832 69926
L74775 69955
L74635 69955
L74579 69926
L74550 69870
L74550 69814
L74579 69758
L74635 69730
L74775 69730
L74832 69701
" />
<path d="M75113 69561
L75113 69955
" />
<path d="M75113 69617
L75141 69589
L75197 69561
L75282 69561
L75338 69589
L75366 69645
L75366 69955
" />
<path d="M75732 69955
L75675 69926
L75647 69898
L75619 69842
L75619 69673
L75647 69617
L75675 69589
L75732 69561
L75816 69561
L75872 69589
L75900 69617
L75928 69673
L75928 69842
L75900 69898
L75872 69926
L75816 69955
L75732 69955
" />
<path d="M76716 69617
L76660 69589
L76631 69561
L76603 69505
L76603 69476
L76631 69420
L76660 69392
L76716 69364
L76828 69364
L76885 69392
L76913 69420
L76941 69476
L76941 69505
L76913 69561
L76885 69589
L76828 69617
L76716 69617
L76660 69645
L76631 69673
L76603 69730
L76603 69842
L76631 69898
L76660 69926
L76716 69955
L76828 69955
L76885 69926
L76913 69898
L76941 69842
L76941 69730
L76913 69673
L76885 69645
L76828 69617
" />
<path d="M77925 69955
L77644 69955
L77644 69364
" />
<path d="M78122 69645
L78319 69645
" />
<path d="M78403 69955
L78122 69955
L78122 69364
L78403 69364
" />
<path d="M78656 69955
L78656 69364
L78797 69364
L78881 69392
L78937 69448
L78965 69505
L78994 69617
L78994 69701
L78965 69814
L78937 69870
L78881 69926
L78797 69955
L78656 69955
" />
<path d="M79950 69955
L79950 69645
L79922 69589
L79865 69561
L79753 69561
L79697 69589
" />
<path d="M79950 69926
L79894 69955
L79753 69955
L79697 69926
L79669 69870
L79669 69814
L79697 69758
L79753 69730
L79894 69730
L79950 69701
" />
<path d="M80231 69561
L80231 69955
" />
<path d="M80231 69617
L80259 69589
L80315 69561
L80400 69561
L80456 69589
L80484 69645
L80484 69955
" />
<path d="M80765 69955
L80765 69561
" />
<path d="M80765 69364
L80737 69392
L80765 69420
L80793 69392
L80765 69364
L80765 69420
" />
<path d="M81046 69955
L81046 69561
" />
<path d="M81046 69617
L81075 69589
L81131 69561
L81215 69561
L81271 69589
L81300 69645
L81300 69955
" />
<path d="M81300 69645
L81328 69589
L81384 69561
L81468 69561
L81525 69589
L81553 69645
L81553 69955
" />
<path d="M82087 69955
L82087 69645
L82059 69589
L82003 69561
L81890 69561
L81834 69589
" />
<path d="M82087 69926
L82031 69955
L81890 69955
L81834 69926
L81806 69870
L81806 69814
L81834 69758
L81890 69730
L82031 69730
L82087 69701
" />
<path d="M82284 69561
L82509 69561
" />
<path d="M82368 69364
L82368 69870
L82396 69926
L82453 69955
L82509 69955
" />
<path d="M82706 69955
L82706 69561
" />
<path d="M82706 69364
L82678 69392
L82706 69420
L82734 69392
L82706 69364
L82706 69420
" />
<path d="M83071 69955
L83015 69926
L82987 69898
L82959 69842
L82959 69673
L82987 69617
L83015 69589
L83071 69561
L83156 69561
L83212 69589
L83240 69617
L83268 69673
L83268 69842
L83240 69898
L83212 69926
L83156 69955
L83071 69955
" />
<path d="M83521 69561
L83521 69955
" />
<path d="M83521 69617
L83549 69589
L83606 69561
L83690 69561
L83746 69589
L83774 69645
L83774 69955
" />
<path d="M84843 69898
L84815 69926
L84730 69955
L84674 69955
L84590 69926
L84534 69870
L84505 69814
L84477 69701
L84477 69617
L84505 69505
L84534 69448
L84590 69392
L84674 69364
L84730 69364
L84815 69392
L84843 69420
" />
<path d="M85096 69955
L85096 69364
" />
<path d="M85349 69955
L85349 69645
L85321 69589
L85265 69561
L85180 69561
L85124 69589
L85096 69617
" />
<path d="M85630 69955
L85630 69561
" />
<path d="M85630 69673
L85658 69617
L85687 69589
L85743 69561
L85799 69561
" />
<path d="M85996 69955
L85996 69561
" />
<path d="M85996 69364
L85968 69392
L85996 69420
L86024 69392
L85996 69364
L85996 69420
" />
<path d="M86249 69926
L86305 69955
L86418 69955
L86474 69926
L86502 69870
L86502 69842
L86474 69786
L86418 69758
L86333 69758
L86277 69730
L86249 69673
L86249 69645
L86277 69589
L86333 69561
L86418 69561
L86474 69589
" />
<path d="M86755 69955
L86755 69561
" />
<path d="M86755 69617
L86783 69589
L86840 69561
L86924 69561
L86980 69589
L87008 69645
L87008 69955
" />
<path d="M87008 69645
L87036 69589
L87093 69561
L87177 69561
L87233 69589
L87261 69645
L87261 69955
" />
<path d="M87796 69955
L87796 69645
L87768 69589
L87711 69561
L87599 69561
L87543 69589
" />
<path d="M87796 69926
L87739 69955
L87599 69955
L87543 69926
L87514 69870
L87514 69814
L87543 69758
L87599 69730
L87739 69730
L87796 69701
" />
<path d="M88049 69926
L88105 69955
L88217 69955
L88274 69926
L88302 69870
L88302 69842
L88274 69786
L88217 69758
L88133 69758
L88077 69730
L88049 69673
L88049 69645
L88077 69589
L88133 69561
L88217 69561
L88274 69589
" />
<path d="M88921 69364
L89258 69364
" />
<path d="M89089 69955
L89089 69364
" />
<path d="M89455 69955
L89455 69561
" />
<path d="M89455 69673
L89483 69617
L89511 69589
L89567 69561
L89624 69561
" />
<path d="M90045 69926
L89989 69955
L89877 69955
L89820 69926
L89792 69870
L89792 69645
L89820 69589
L89877 69561
L89989 69561
L90045 69589
L90073 69645
L90073 69701
L89792 69758
" />
<path d="M90552 69926
L90495 69955
L90383 69955
L90327 69926
L90298 69870
L90298 69645
L90327 69589
L90383 69561
L90495 69561
L90552 69589
L90580 69645
L90580 69701
L90298 69758
" />
</g>
<g style="fill:#000000; fill-opacity:0.0; 
stroke:#000000; stroke-width:39.3701; stroke-opacity:1; 
stroke-linecap:round; stroke-linejoin:round;">
</g>
<g style="fill:#000000; fill-opacity:0.0; 
stroke:#000000; stroke-width:59.0551; stroke-opacity:1; 
stroke-linecap:round; stroke-linejoin:round;">
<path d="M70192 68605
L70473 68605
" />
<path d="M70135 68773
L70332 68183
L70529 68773
" />
<path d="M70726 68773
L70726 68380
" />
<path d="M70726 68492
L70754 68436
L70782 68408
L70838 68380
L70895 68380
" />
<path d="M71345 68773
L71345 68183
" />
<path d="M71345 68745
L71288 68773
L71176 68773
L71120 68745
L71091 68717
L71063 68661
L71063 68492
L71091 68436
L71120 68408
L71176 68380
L71288 68380
L71345 68408
" />
<path d="M71879 68380
L71879 68773
" />
<path d="M71626 68380
L71626 68689
L71654 68745
L71710 68773
L71795 68773
L71851 68745
L71879 68717
" />
<path d="M72160 68773
L72160 68380
" />
<path d="M72160 68183
L72132 68211
L72160 68239
L72188 68211
L72160 68183
L72160 68239
" />
<path d="M72441 68380
L72441 68773
" />
<path d="M72441 68436
L72469 68408
L72526 68380
L72610 68380
L72666 68408
L72694 68464
L72694 68773
" />
<path d="M73060 68773
L73004 68745
L72976 68717
L72947 68661
L72947 68492
L72976 68436
L73004 68408
L73060 68380
L73144 68380
L73201 68408
L73229 68436
L73257 68492
L73257 68661
L73229 68717
L73201 68745
L73144 68773
L73060 68773
" />
<path d="M73960 68773
L73960 68183
L74297 68773
L74297 68183
" />
<path d="M74832 68773
L74832 68464
L74804 68408
L74747 68380
L74635 68380
L74579 68408
" />
<path d="M74832 68745
L74775 68773
L74635 68773
L74579 68745
L74550 68689
L74550 68633
L74579 68577
L74635 68548
L74775 68548
L74832 68520
" />
<path d="M75113 68380
L75113 68773
" />
<path d="M75113 68436
L75141 68408
L75197 68380
L75282 68380
L75338 68408
L75366 68464
L75366 68773
" />
<path d="M75732 68773
L75675 68745
L75647 68717
L75619 68661
L75619 68492
L75647 68436
L75675 68408
L75732 68380
L75816 68380
L75872 68408
L75900 68436
L75928 68492
L75928 68661
L75900 68717
L75872 68745
L75816 68773
L75732 68773
" />
<path d="M76716 68436
L76660 68408
L76631 68380
L76603 68323
L76603 68295
L76631 68239
L76660 68211
L76716 68183
L76828 68183
L76885 68211
L76913 68239
L76941 68295
L76941 68323
L76913 68380
L76885 68408
L76828 68436
L76716 68436
L76660 68464
L76631 68492
L76603 68548
L76603 68661
L76631 68717
L76660 68745
L76716 68773
L76828 68773
L76885 68745
L76913 68717
L76941 68661
L76941 68548
L76913 68492
L76885 68464
L76828 68436
" />
<path d="M77925 68773
L77644 68773
L77644 68183
" />
<path d="M78122 68464
L78319 68464
" />
<path d="M78403 68773
L78122 68773
L78122 68183
L78403 68183
" />
<path d="M78656 68773
L78656 68183
L78797 68183
L78881 68211
L78937 68267
L78965 68323
L78994 68436
L78994 68520
L78965 68633
L78937 68689
L78881 68745
L78797 68773
L78656 68773
" />
<path d="M80400 68745
L80343 68773
L80231 68773
L80175 68745
L80147 68717
L80118 68661
L80118 68492
L80147 68436
L80175 68408
L80231 68380
L80343 68380
L80400 68408
" />
<path d="M80653 68773
L80653 68183
" />
<path d="M80906 68773
L80906 68464
L80878 68408
L80822 68380
L80737 68380
L80681 68408
L80653 68436
" />
<path d="M81440 68773
L81440 68464
L81412 68408
L81356 68380
L81243 68380
L81187 68408
" />
<path d="M81440 68745
L81384 68773
L81243 68773
L81187 68745
L81159 68689
L81159 68633
L81187 68577
L81243 68548
L81384 68548
L81440 68520
" />
<path d="M81693 68745
L81750 68773
L81862 68773
L81918 68745
L81946 68689
L81946 68661
L81918 68605
L81862 68577
L81778 68577
L81721 68548
L81693 68492
L81693 68464
L81721 68408
L81778 68380
L81862 68380
L81918 68408
" />
<path d="M82424 68745
L82368 68773
L82256 68773
L82199 68745
L82171 68689
L82171 68464
L82199 68408
L82256 68380
L82368 68380
L82424 68408
L82453 68464
L82453 68520
L82171 68577
" />
<path d="M82706 68773
L82706 68380
" />
<path d="M82706 68492
L82734 68436
L82762 68408
L82818 68380
L82874 68380
" />
</g>
<g style="fill:#000000; fill-opacity:0.0; 
stroke:#000000; stroke-width:39.3701; stroke-opacity:1; 
stroke-linecap:round; stroke-linejoin:round;">
</g>
<g style="fill:#000000; fill-opacity:0.0; 
stroke:#000000; stroke-width:59.0551; stroke-opacity:1; 
stroke-linecap:round; stroke-linejoin:round;">
<path d="M70220 67199
L70220 67789
" />
<path d="M70220 67227
L70276 67199
L70388 67199
L70445 67227
L70473 67255
L70501 67311
L70501 67480
L70473 67536
L70445 67564
L70388 67592
L70276 67592
L70220 67564
" />
<path d="M70754 67592
L70754 67199
" />
<path d="M70754 67311
L70782 67255
L70810 67227
L70867 67199
L70923 67199
" />
<path d="M71204 67592
L71148 67564
L71120 67536
L71091 67480
L71091 67311
L71120 67255
L71148 67227
L71204 67199
L71288 67199
L71345 67227
L71373 67255
L71401 67311
L71401 67480
L71373 67536
L71345 67564
L71288 67592
L71204 67592
" />
<path d="M71907 67199
L71907 67677
L71879 67733
L71851 67761
L71795 67789
L71710 67789
L71654 67761
" />
<path d="M71907 67564
L71851 67592
L71738 67592
L71682 67564
L71654 67536
L71626 67480
L71626 67311
L71654 67255
L71682 67227
L71738 67199
L71851 67199
L71907 67227
" />
<path d="M72188 67592
L72188 67199
" />
<path d="M72188 67311
L72216 67255
L72244 67227
L72301 67199
L72357 67199
" />
<path d="M72807 67592
L72807 67283
L72779 67227
L72723 67199
L72610 67199
L72554 67227
" />
<path d="M72807 67564
L72751 67592
L72610 67592
L72554 67564
L72526 67508
L72526 67452
L72554 67395
L72610 67367
L72751 67367
L72807 67339
" />
<path d="M73088 67592
L73088 67199
" />
<path d="M73088 67255
L73116 67227
L73172 67199
L73257 67199
L73313 67227
L73341 67283
L73341 67592
" />
<path d="M73341 67283
L73369 67227
L73426 67199
L73510 67199
L73566 67227
L73594 67283
L73594 67592
" />
<path d="M74100 67564
L74044 67592
L73932 67592
L73876 67564
L73847 67508
L73847 67283
L73876 67227
L73932 67199
L74044 67199
L74100 67227
L74129 67283
L74129 67339
L73847 67395
" />
<path d="M74635 67592
L74635 67002
" />
<path d="M74635 67564
L74579 67592
L74466 67592
L74410 67564
L74382 67536
L74354 67480
L74354 67311
L74382 67255
L74410 67227
L74466 67199
L74579 67199
L74635 67227
" />
<path d="M75366 67592
L75366 67199
" />
<path d="M75366 67002
L75338 67030
L75366 67058
L75394 67030
L75366 67002
L75366 67058
" />
<path d="M75647 67199
L75647 67592
" />
<path d="M75647 67255
L75675 67227
L75732 67199
L75816 67199
L75872 67227
L75900 67283
L75900 67592
" />
<path d="M76969 67536
L76941 67564
L76856 67592
L76800 67592
L76716 67564
L76660 67508
L76631 67452
L76603 67339
L76603 67255
L76631 67142
L76660 67086
L76716 67030
L76800 67002
L76856 67002
L76941 67030
L76969 67058
" />
<path d="M77616 67199
L77728 67592
L77841 67311
L77953 67592
L78066 67199
" />
<path d="M78291 67592
L78291 67199
" />
<path d="M78291 67002
L78262 67030
L78291 67058
L78319 67030
L78291 67002
L78291 67058
" />
<path d="M78487 67199
L78712 67199
" />
<path d="M78572 67002
L78572 67508
L78600 67564
L78656 67592
L78712 67592
" />
<path d="M78909 67592
L78909 67002
" />
<path d="M79162 67592
L79162 67283
L79134 67227
L79078 67199
L78994 67199
L78937 67227
L78909 67255
" />
<path d="M79865 67424
L80147 67424
" />
<path d="M79809 67592
L80006 67002
L80203 67592
" />
<path d="M80400 67592
L80400 67199
" />
<path d="M80400 67311
L80428 67255
L80456 67227
L80512 67199
L80568 67199
" />
<path d="M81018 67592
L81018 67002
" />
<path d="M81018 67564
L80962 67592
L80850 67592
L80793 67564
L80765 67536
L80737 67480
L80737 67311
L80765 67255
L80793 67227
L80850 67199
L80962 67199
L81018 67227
" />
<path d="M81553 67199
L81553 67592
" />
<path d="M81300 67199
L81300 67508
L81328 67564
L81384 67592
L81468 67592
L81525 67564
L81553 67536
" />
<path d="M81834 67592
L81834 67199
" />
<path d="M81834 67002
L81806 67030
L81834 67058
L81862 67030
L81834 67002
L81834 67058
" />
<path d="M82115 67199
L82115 67592
" />
<path d="M82115 67255
L82143 67227
L82199 67199
L82284 67199
L82340 67227
L82368 67283
L82368 67592
" />
<path d="M82734 67592
L82678 67564
L82649 67536
L82621 67480
L82621 67311
L82649 67255
L82678 67227
L82734 67199
L82818 67199
L82874 67227
L82903 67255
L82931 67311
L82931 67480
L82903 67536
L82874 67564
L82818 67592
L82734 67592
" />
<path d="M83943 67592
L83606 67592
" />
<path d="M83774 67592
L83774 67002
L83718 67086
L83662 67142
L83606 67171
" />
<path d="M84196 67536
L84224 67564
L84196 67592
L84168 67564
L84196 67536
L84196 67592
" />
<path d="M84590 67002
L84646 67002
L84702 67030
L84730 67058
L84759 67114
L84787 67227
L84787 67367
L84759 67480
L84730 67536
L84702 67564
L84646 67592
L84590 67592
L84534 67564
L84505 67536
L84477 67480
L84449 67367
L84449 67227
L84477 67114
L84505 67058
L84534 67030
L84590 67002
" />
<path d="M85293 67002
L85180 67002
L85124 67030
L85096 67058
L85040 67142
L85012 67255
L85012 67480
L85040 67536
L85068 67564
L85124 67592
L85237 67592
L85293 67564
L85321 67536
L85349 67480
L85349 67339
L85321 67283
L85293 67255
L85237 67227
L85124 67227
L85068 67255
L85040 67283
L85012 67339
" />
</g>
<g style="fill:#000000; fill-opacity:0.0; 
stroke:#000000; stroke-width:39.3701; stroke-opacity:1; 
stroke-linecap:round; stroke-linejoin:round;">
</g>
<g style="fill:#000000; fill-opacity:0.0; 
stroke:#000000; stroke-width:59.0551; stroke-opacity:1; 
stroke-linecap:round; stroke-linejoin:round;">
<path d="M77559 75396
L77559 76577
" />
</g>
<g style="fill:#000000; fill-opacity:0.0; 
stroke:#000000; stroke-width:39.3701; stroke-opacity:1; 
stroke-linecap:round; stroke-linejoin:round;">
</g>
<g style="fill:#000000; fill-opacity:0.0; 
stroke:#000000; stroke-width:59.0551; stroke-opacity:1; 
stroke-linecap:round; stroke-linejoin:round;">
<path d="M102756 75396
L102756 77955
" />
</g>
<g style="fill:#000000; fill-opacity:0.0; 
stroke:#000000; stroke-width:59.0551; stroke-opacity:1; 
stroke-linecap:round; stroke-linejoin:round;">
<path d="M90930 41000
L78930 41000
" />
<path d="M70930 41000
L58930 41000
" />
<path d="M70930 48000
L70930 41000
" />
<path d="M78930 48000
L70930 48000
" />
<path d="M78930 41000
L78930 48000
" />
<path d="M74930 13000
L65930 22000
" />
<path d="M65930 22000
L64930 23000
" />
<path d="M64930 23000
L69930 23000
" />
<path d="M69930 23000
L61930 31000
" />
<path d="M61930 31000
L68930 31000
" />
<path d="M68930 31000
L58930 41000
" />
<path d="M80930 31000
L90930 41000
" />
<path d="M87930 31000
L80930 31000
" />
<path d="M79930 23000
L87930 31000
" />
<path d="M84930 23000
L79930 23000
" />
<path d="M83930 22000
L84930 23000
" />
<path d="M74930 13000
L83930 22000
" />
</g>
<g style="fill:#000000; fill-opacity:1.0; 
stroke:#000000; stroke-width:0; stroke-opacity:1; 
stroke-linecap:round; stroke-linejoin:round;">
<circle cx="75930" cy="45750" r="300" /> 
</g>
<g style="fill:#000000; fill-opacity:1.0; 
stroke:#000000; stroke-width:39.3701; stroke-opacity:1; 
stroke-linecap:round; stroke-linejoin:round;">
</g>
<g style="fill:#000000; fill-opacity:1.0; 
stroke:#000000; stroke-width:0; stroke-opacity:1; 
stroke-linecap:round; stroke-linejoin:round;">
<circle cx="74930" cy="45750" r="300" /> 
</g>
<g style="fill:#000000; fill-opacity:1.0; 
stroke:#000000; stroke-width:39.3701; stroke-opacity:1; 
stroke-linecap:round; stroke-linejoin:round;">
</g>
<g style="fill:#000000; fill-opacity:1.0; 
stroke:#000000; stroke-width:0; stroke-opacity:1; 
stroke-linecap:round; stroke-linejoin:round;">
<circle cx="73930" cy="45750" r="300" /> 
</g>
<g style="fill:#000000; fill-opacity:1.0; 
stroke:#000000; stroke-width:39.3701; stroke-opacity:1; 
stroke-linecap:round; stroke-linejoin:round;">
</g>
<g style="fill:#000000; fill-opacity:1.0; 
stroke:#000000; stroke-width:0; stroke-opacity:1; 
stroke-linecap:round; stroke-linejoin:round;">
<circle cx="72930" cy="45750" r="300" /> 
</g>
<g style="fill:#000000; fill-opacity:1.0; 
stroke:#000000; stroke-width:39.3701; stroke-opacity:1; 
stroke-linecap:round; stroke-linejoin:round;">
</g>
<g style="fill:#000000; fill-opacity:1.0; 
stroke:#000000; stroke-width:0; stroke-opacity:1; 
stroke-linecap:round; stroke-linejoin:round;">
<polyline style="fill-rule:evenodd;"
points="77323,46143
77323,45356
76536,45356
76536,46143
77323,46143
" /> 
<polyline style="fill-rule:evenodd;"
points="75036,16643
75823,16643
75823,15856
75036,15856
75036,16643
" /> 
<circle cx="74430" cy="16250" r="393.701" /> 
</g>
<g style="fill:#000000; fill-opacity:1.0; 
stroke:#000000; stroke-width:39.3701; stroke-opacity:1; 
stroke-linecap:round; stroke-linejoin:round;">
</g>
<g style="fill:#000000; fill-opacity:1.0; 
stroke:#000000; stroke-width:0; stroke-opacity:1; 
stroke-linecap:round; stroke-linejoin:round;">
<polyline style="fill-rule:evenodd;"
points="81786,22143
82573,22143
82573,21356
81786,21356
81786,22143
" /> 
<circle cx="81180" cy="21750" r="393.701" /> 
</g>
<g style="fill:#000000; fill-opacity:1.0; 
stroke:#000000; stroke-width:39.3701; stroke-opacity:1; 
stroke-linecap:round; stroke-linejoin:round;">
</g>
<g style="fill:#000000; fill-opacity:1.0; 
stroke:#000000; stroke-width:0; stroke-opacity:1; 
stroke-linecap:round; stroke-linejoin:round;">
<polyline style="fill-rule:evenodd;"
points="68536,21893
69323,21893
69323,21106
68536,21106
68536,21893
" /> 
<circle cx="67930" cy="21500" r="393.701" /> 
</g>
<g style="fill:#000000; fill-opacity:1.0; 
stroke:#000000; stroke-width:39.3701; stroke-opacity:1; 
stroke-linecap:round; stroke-linejoin:round;">
</g>
<g style="fill:#000000; fill-opacity:1.0; 
stroke:#000000; stroke-width:0; stroke-opacity:1; 
stroke-linecap:round; stroke-linejoin:round;">
<polyline style="fill-rule:evenodd;"
points="75036,30393
75823,30393
75823,29606
75036,29606
75036,30393
" /> 
<circle cx="74430" cy="30000" r="393.701" /> 
</g>
<g style="fill:#000000; fill-opacity:1.0; 
stroke:#000000; stroke-width:39.3701; stroke-opacity:1; 
stroke-linecap:round; stroke-linejoin:round;">
</g>
<g style="fill:#000000; fill-opacity:1.0; 
stroke:#000000; stroke-width:0; stroke-opacity:1; 
stroke-linecap:round; stroke-linejoin:round;">
<polyline style="fill-rule:evenodd;"
points="84323,29356
83536,29356
83536,30143
84323,30143
84323,29356
" /> 
<circle cx="84930" cy="29750" r="393.701" /> 
</g>
<g style="fill:#000000; fill-opacity:1.0; 
stroke:#000000; stroke-width:39.3701; stroke-opacity:1; 
stroke-linecap:round; stroke-linejoin:round;">
</g>
<g style="fill:#000000; fill-opacity:1.0; 
stroke:#000000; stroke-width:0; stroke-opacity:1; 
stroke-linecap:round; stroke-linejoin:round;">
<polyline style="fill-rule:evenodd;"
points="65323,29106
64536,29106
64536,29893
65323,29893
65323,29106
" /> 
<circle cx="65930" cy="29500" r="393.701" /> 
</g>
<g style="fill:#000000; fill-opacity:1.0; 
stroke:#000000; stroke-width:39.3701; stroke-opacity:1; 
stroke-linecap:round; stroke-linejoin:round;">
</g>
<g style="fill:#000000; fill-opacity:1.0; 
stroke:#000000; stroke-width:0; stroke-opacity:1; 
stroke-linecap:round; stroke-linejoin:round;">
<polyline style="fill-rule:evenodd;"
points="87573,39356
86786,39356
86786,40143
87573,40143
87573,39356
" /> 
<circle cx="88180" cy="39750" r="393.701" /> 
</g>
<g style="fill:#000000; fill-opacity:1.0; 
stroke:#000000; stroke-width:39.3701; stroke-opacity:1; 
stroke-linecap:round; stroke-linejoin:round;">
</g>
<g style="fill:#000000; fill-opacity:1.0; 
stroke:#000000; stroke-width:0; stroke-opacity:1; 
stroke-linecap:round; stroke-linejoin:round;">
<polyline style="fill-rule:evenodd;"
points="62323,39356
61536,39356
61536,40143
62323,40143
62323,39356
" /> 
<circle cx="62930" cy="39750" r="393.701" /> 
</g>
<g style="fill:#000000; fill-opacity:1.0; 
stroke:#000000; stroke-width:39.3701; stroke-opacity:1; 
stroke-linecap:round; stroke-linejoin:round;">
</g>
<g style="fill:#000000; fill-opacity:1.0; 
stroke:#000000; stroke-width:0; stroke-opacity:1; 
stroke-linecap:round; stroke-linejoin:round;">
<circle cx="79930" cy="24750" r="300" /> 
</g>
<g style="fill:#000000; fill-opacity:1.0; 
stroke:#000000; stroke-width:39.3701; stroke-opacity:1; 
stroke-linecap:round; stroke-linejoin:round;">
</g>
<g style="fill:#000000; fill-opacity:1.0; 
stroke:#000000; stroke-width:0; stroke-opacity:1; 
stroke-linecap:round; stroke-linejoin:round;">
<circle cx="79930" cy="28750" r="300" /> 
</g>
<g style="fill:#000000; fill-opacity:1.0; 
stroke:#000000; stroke-width:39.3701; stroke-opacity:1; 
stroke-linecap:round; stroke-linejoin:round;">
</g>
<g style="fill:#000000; fill-opacity:1.0; 
stroke:#000000; stroke-width:0; stroke-opacity:1; 
stroke-linecap:round; stroke-linejoin:round;">
<circle cx="70180" cy="28750" r="300" /> 
</g>
<g style="fill:#000000; fill-opacity:1.0; 
stroke:#000000; stroke-width:39.3701; stroke-opacity:1; 
stroke-linecap:round; stroke-linejoin:round;">
</g>
<g style="fill:#000000; fill-opacity:1.0; 
stroke:#000000; stroke-width:0; stroke-opacity:1; 
stroke-linecap:round; stroke-linejoin:round;">
<circle cx="70180" cy="24750" r="300" /> 
</g>
<g style="fill:#000000; fill-opacity:1.0; 
stroke:#000000; stroke-width:39.3701; stroke-opacity:1; 
stroke-linecap:round; stroke-linejoin:round;">
</g>
<g style="fill:#000000; fill-opacity:1.0; 
stroke:#000000; stroke-width:0; stroke-opacity:1; 
stroke-linecap:round; stroke-linejoin:round;">
<circle cx="79180" cy="34250" r="300" /> 
</g>
<g style="fill:#000000; fill-opacity:1.0; 
stroke:#000000; stroke-width:39.3701; stroke-opacity:1; 
stroke-linecap:round; stroke-linejoin:round;">
</g>
<g style="fill:#000000; fill-opacity:1.0; 
stroke:#000000; stroke-width:0; stroke-opacity:1; 
stroke-linecap:round; stroke-linejoin:round;">
<circle cx="79180" cy="30250" r="300" /> 
</g>
<g style="fill:#000000; fill-opacity:1.0; 
stroke:#000000; stroke-width:39.3701; stroke-opacity:1; 
stroke-linecap:round; stroke-linejoin:round;">
</g>
<g style="fill:#000000; fill-opacity:1.0; 
stroke:#000000; stroke-width:0; stroke-opacity:1; 
stroke-linecap:round; stroke-linejoin:round;">
<circle cx="76930" cy="39750" r="300" /> 
</g>
<g style="fill:#000000; fill-opacity:1.0; 
stroke:#000000; stroke-width:39.3701; stroke-opacity:1; 
stroke-linecap:round; stroke-linejoin:round;">
</g>
<g style="fill:#000000; fill-opacity:1.0; 
stroke:#000000; stroke-width:0; stroke-opacity:1; 
stroke-linecap:round; stroke-linejoin:round;">
<circle cx="72930" cy="39750" r="300" /> 
</g>
<g style="fill:#000000; fill-opacity:1.0; 
stroke:#000000; stroke-width:39.3701; stroke-opacity:1; 
stroke-linecap:round; stroke-linejoin:round;">
</g>
<g style="fill:#FFFFFF; fill-opacity:1.0; 
stroke:#FFFFFF; stroke-width:39.3701; stroke-opacity:1; 
stroke-linecap:round; stroke-linejoin:round;">
</g>
<g style="fill:#FFFFFF; fill-opacity:1.0; 
stroke:#FFFFFF; stroke-width:0; stroke-opacity:1; 
stroke-linecap:round; stroke-linejoin:round;">
<circle cx="76930" cy="45750" r="200" /> 
</g>
<g style="fill:#FFFFFF; fill-opacity:1.0; 
stroke:#FFFFFF; stroke-width:39.3701; stroke-opacity:1; 
stroke-linecap:round; stroke-linejoin:round;">
</g>
<g style="fill:#FFFFFF; fill-opacity:1.0; 
stroke:#FFFFFF; stroke-width:0; stroke-opacity:1; 
stroke-linecap:round; stroke-linejoin:round;">
<circle cx="75930" cy="45750" r="150" /> 
</g>
<g style="fill:#FFFFFF; fill-opacity:1.0; 
stroke:#FFFFFF; stroke-width:39.3701; stroke-opacity:1; 
stroke-linecap:round; stroke-linejoin:round;">
</g>
<g style="fill:#FFFFFF; fill-opacity:1.0; 
stroke:#FFFFFF; stroke-width:0; stroke-opacity:1; 
stroke-linecap:round; stroke-linejoin:round;">
<circle cx="74930" cy="45750" r="150" /> 
</g>
<g style="fill:#FFFFFF; fill-opacity:1.0; 
stroke:#FFFFFF; stroke-width:39.3701; stroke-opacity:1; 
stroke-linecap:round; stroke-linejoin:round;">
</g>
<g style="fill:#FFFFFF; fill-opacity:1.0; 
stroke:#FFFFFF; stroke-width:0; stroke-opacity:1; 
stroke-linecap:round; stroke-linejoin:round;">
<circle cx="73930" cy="45750" r="150" /> 
</g>
<g style="fill:#FFFFFF; fill-opacity:1.0; 
stroke:#FFFFFF; stroke-width:39.3701; stroke-opacity:1; 
stroke-linecap:round; stroke-linejoin:round;">
</g>
<g style="fill:#FFFFFF; fill-opacity:1.0; 
stroke:#FFFFFF; stroke-width:0; stroke-opacity:1; 
stroke-linecap:round; stroke-linejoin:round;">
<circle cx="72930" cy="45750" r="200" /> 
</g>
<g style="fill:#FFFFFF; fill-opacity:1.0; 
stroke:#FFFFFF; stroke-width:39.3701; stroke-opacity:1; 
stroke-linecap:round; stroke-linejoin:round;">
</g>
<g style="fill:#FFFFFF; fill-opacity:1.0; 
stroke:#FFFFFF; stroke-width:0; stroke-opacity:1; 
stroke-linecap:round; stroke-linejoin:round;">
<circle cx="76930" cy="45750" r="150" /> 
</g>
<g style="fill:#FFFFFF; fill-opacity:1.0; 
stroke:#FFFFFF; stroke-width:39.3701; stroke-opacity:1; 
stroke-linecap:round; stroke-linejoin:round;">
</g>
<g style="fill:#FFFFFF; fill-opacity:1.0; 
stroke:#FFFFFF; stroke-width:0; stroke-opacity:1; 
stroke-linecap:round; stroke-linejoin:round;">
<circle cx="75430" cy="16250" r="197" /> 
</g>
<g style="fill:#FFFFFF; fill-opacity:1.0; 
stroke:#FFFFFF; stroke-width:39.3701; stroke-opacity:1; 
stroke-linecap:round; stroke-linejoin:round;">
</g>
<g style="fill:#FFFFFF; fill-opacity:1.0; 
stroke:#FFFFFF; stroke-width:0; stroke-opacity:1; 
stroke-linecap:round; stroke-linejoin:round;">
<circle cx="74430" cy="16250" r="197" /> 
</g>
<g style="fill:#FFFFFF; fill-opacity:1.0; 
stroke:#FFFFFF; stroke-width:39.3701; stroke-opacity:1; 
stroke-linecap:round; stroke-linejoin:round;">
</g>
<g style="fill:#FFFFFF; fill-opacity:1.0; 
stroke:#FFFFFF; stroke-width:0; stroke-opacity:1; 
stroke-linecap:round; stroke-linejoin:round;">
<circle cx="82180" cy="21750" r="197" /> 
</g>
<g style="fill:#FFFFFF; fill-opacity:1.0; 
stroke:#FFFFFF; stroke-width:39.3701; stroke-opacity:1; 
stroke-linecap:round; stroke-linejoin:round;">
</g>
<g style="fill:#FFFFFF; fill-opacity:1.0; 
stroke:#FFFFFF; stroke-width:0; stroke-opacity:1; 
stroke-linecap:round; stroke-linejoin:round;">
<circle cx="81180" cy="21750" r="197" /> 
</g>
<g style="fill:#FFFFFF; fill-opacity:1.0; 
stroke:#FFFFFF; stroke-width:39.3701; stroke-opacity:1; 
stroke-linecap:round; stroke-linejoin:round;">
</g>
<g style="fill:#FFFFFF; fill-opacity:1.0; 
stroke:#FFFFFF; stroke-width:0; stroke-opacity:1; 
stroke-linecap:round; stroke-linejoin:round;">
<circle cx="68930" cy="21500" r="197" /> 
</g>
<g style="fill:#FFFFFF; fill-opacity:1.0; 
stroke:#FFFFFF; stroke-width:39.3701; stroke-opacity:1; 
stroke-linecap:round; stroke-linejoin:round;">
</g>
<g style="fill:#FFFFFF; fill-opacity:1.0; 
stroke:#FFFFFF; stroke-width:0; stroke-opacity:1; 
stroke-linecap:round; stroke-linejoin:round;">
<circle cx="67930" cy="21500" r="197" /> 
</g>
<g style="fill:#FFFFFF; fill-opacity:1.0; 
stroke:#FFFFFF; stroke-width:39.3701; stroke-opacity:1; 
stroke-linecap:round; stroke-linejoin:round;">
</g>
<g style="fill:#FFFFFF; fill-opacity:1.0; 
stroke:#FFFFFF; stroke-width:0; stroke-opacity:1; 
stroke-linecap:round; stroke-linejoin:round;">
<circle cx="75430" cy="30000" r="197" /> 
</g>
<g style="fill:#FFFFFF; fill-opacity:1.0; 
stroke:#FFFFFF; stroke-width:39.3701; stroke-opacity:1; 
stroke-linecap:round; stroke-linejoin:round;">
</g>
<g style="fill:#FFFFFF; fill-opacity:1.0; 
stroke:#FFFFFF; stroke-width:0; stroke-opacity:1; 
stroke-linecap:round; stroke-linejoin:round;">
<circle cx="74430" cy="30000" r="197" /> 
</g>
<g style="fill:#FFFFFF; fill-opacity:1.0; 
stroke:#FFFFFF; stroke-width:39.3701; stroke-opacity:1; 
stroke-linecap:round; stroke-linejoin:round;">
</g>
<g style="fill:#FFFFFF; fill-opacity:1.0; 
stroke:#FFFFFF; stroke-width:0; stroke-opacity:1; 
stroke-linecap:round; stroke-linejoin:round;">
<circle cx="83930" cy="29750" r="197" /> 
</g>
<g style="fill:#FFFFFF; fill-opacity:1.0; 
stroke:#FFFFFF; stroke-width:39.3701; stroke-opacity:1; 
stroke-linecap:round; stroke-linejoin:round;">
</g>
<g style="fill:#FFFFFF; fill-opacity:1.0; 
stroke:#FFFFFF; stroke-width:0; stroke-opacity:1; 
stroke-linecap:round; stroke-linejoin:round;">
<circle cx="84930" cy="29750" r="197" /> 
</g>
<g style="fill:#FFFFFF; fill-opacity:1.0; 
stroke:#FFFFFF; stroke-width:39.3701; stroke-opacity:1; 
stroke-linecap:round; stroke-linejoin:round;">
</g>
<g style="fill:#FFFFFF; fill-opacity:1.0; 
stroke:#FFFFFF; stroke-width:0; stroke-opacity:1; 
stroke-linecap:round; stroke-linejoin:round;">
<circle cx="64930" cy="29500" r="197" /> 
</g>
<g style="fill:#FFFFFF; fill-opacity:1.0; 
stroke:#FFFFFF; stroke-width:39.3701; stroke-opacity:1; 
stroke-linecap:round; stroke-linejoin:round;">
</g>
<g style="fill:#FFFFFF; fill-opacity:1.0; 
stroke:#FFFFFF; stroke-width:0; stroke-opacity:1; 
stroke-linecap:round; stroke-linejoin:round;">
<circle cx="65930" cy="29500" r="197" /> 
</g>
<g style="fill:#FFFFFF; fill-opacity:1.0; 
stroke:#FFFFFF; stroke-width:39.3701; stroke-opacity:1; 
stroke-linecap:round; stroke-linejoin:round;">
</g>
<g style="fill:#FFFFFF; fill-opacity:1.0; 
stroke:#FFFFFF; stroke-width:0; stroke-opacity:1; 
stroke-linecap:round; stroke-linejoin:round;">
<circle cx="87180" cy="39750" r="197" /> 
</g>
<g style="fill:#FFFFFF; fill-opacity:1.0; 
stroke:#FFFFFF; stroke-width:39.3701; stroke-opacity:1; 
stroke-linecap:round; stroke-linejoin:round;">
</g>
<g style="fill:#FFFFFF; fill-opacity:1.0; 
stroke:#FFFFFF; stroke-width:0; stroke-opacity:1; 
stroke-linecap:round; stroke-linejoin:round;">
<circle cx="88180" cy="39750" r="197" /> 
</g>
<g style="fill:#FFFFFF; fill-opacity:1.0; 
stroke:#FFFFFF; stroke-width:39.3701; stroke-opacity:1; 
stroke-linecap:round; stroke-linejoin:round;">
</g>
<g style="fill:#FFFFFF; fill-opacity:1.0; 
stroke:#FFFFFF; stroke-width:0; stroke-opacity:1; 
stroke-linecap:round; stroke-linejoin:round;">
<circle cx="61930" cy="39750" r="197" /> 
</g>
<g style="fill:#FFFFFF; fill-opacity:1.0; 
stroke:#FFFFFF; stroke-width:39.3701; stroke-opacity:1; 
stroke-linecap:round; stroke-linejoin:round;">
</g>
<g style="fill:#FFFFFF; fill-opacity:1.0; 
stroke:#FFFFFF; stroke-width:0; stroke-opacity:1; 
stroke-linecap:round; stroke-linejoin:round;">
<circle cx="62930" cy="39750" r="197" /> 
</g>
<g style="fill:#FFFFFF; fill-opacity:1.0; 
stroke:#FFFFFF; stroke-width:39.3701; stroke-opacity:1; 
stroke-linecap:round; stroke-linejoin:round;">
</g>
<g style="fill:#FFFFFF; fill-opacity:1.0; 
stroke:#FFFFFF; stroke-width:0; stroke-opacity:1; 
stroke-linecap:round; stroke-linejoin:round;">
<circle cx="79930" cy="24750" r="160" /> 
</g>
<g style="fill:#FFFFFF; fill-opacity:1.0; 
stroke:#FFFFFF; stroke-width:39.3701; stroke-opacity:1; 
stroke-linecap:round; stroke-linejoin:round;">
</g>
<g style="fill:#FFFFFF; fill-opacity:1.0; 
stroke:#FFFFFF; stroke-width:0; stroke-opacity:1; 
stroke-linecap:round; stroke-linejoin:round;">
<circle cx="79930" cy="28750" r="160" /> 
</g>
<g style="fill:#FFFFFF; fill-opacity:1.0; 
stroke:#FFFFFF; stroke-width:39.3701; stroke-opacity:1; 
stroke-linecap:round; stroke-linejoin:round;">
</g>
<g style="fill:#FFFFFF; fill-opacity:1.0; 
stroke:#FFFFFF; stroke-width:0; stroke-opacity:1; 
stroke-linecap:round; stroke-linejoin:round;">
<circle cx="70180" cy="28750" r="160" /> 
</g>
<g style="fill:#FFFFFF; fill-opacity:1.0; 
stroke:#FFFFFF; stroke-width:39.3701; stroke-opacity:1; 
stroke-linecap:round; stroke-linejoin:round;">
</g>
<g style="fill:#FFFFFF; fill-opacity:1.0; 
stroke:#FFFFFF; stroke-width:0; stroke-opacity:1; 
stroke-linecap:round; stroke-linejoin:round;">
<circle cx="70180" cy="24750" r="160" /> 
</g>
<g style="fill:#FFFFFF; fill-opacity:1.0; 
stroke:#FFFFFF; stroke-width:39.3701; stroke-opacity:1; 
stroke-linecap:round; stroke-linejoin:round;">
</g>
<g style="fill:#FFFFFF; fill-opacity:1.0; 
stroke:#FFFFFF; stroke-width:0; stroke-opacity:1; 
stroke-linecap:round; stroke-linejoin:round;">
<circle cx="79180" cy="34250" r="160" /> 
</g>
<g style="fill:#FFFFFF; fill-opacity:1.0; 
stroke:#FFFFFF; stroke-width:39.3701; stroke-opacity:1; 
stroke-linecap:round; stroke-linejoin:round;">
</g>
<g style="fill:#FFFFFF; fill-opacity:1.0; 
stroke:#FFFFFF; stroke-width:0; stroke-opacity:1; 
stroke-linecap:round; stroke-linejoin:round;">
<circle cx="79180" cy="30250" r="160" /> 
</g>
<g style="fill:#FFFFFF; fill-opacity:1.0; 
stroke:#FFFFFF; stroke-width:39.3701; stroke-opacity:1; 
stroke-linecap:round; stroke-linejoin:round;">
</g>
<g style="fill:#FFFFFF; fill-opacity:1.0; 
stroke:#FFFFFF; stroke-width:0; stroke-opacity:1; 
stroke-linecap:round; stroke-linejoin:round;">
<circle cx="76930" cy="39750" r="160" /> 
</g>
<g style="fill:#FFFFFF; fill-opacity:1.0; 
stroke:#FFFFFF; stroke-width:39.3701; stroke-opacity:1; 
stroke-linecap:round; stroke-linejoin:round;">
</g>
<g style="fill:#FFFFFF; fill-opacity:1.0; 
stroke:#FFFFFF; stroke-width:0; stroke-opacity:1; 
stroke-linecap:round; stroke-linejoin:round;">
<circle cx="72930" cy="39750" r="160" /> 
</g>
<g style="fill:#FFFFFF; fill-opacity:1.0; 
stroke:#FFFFFF; stroke-width:39.3701; stroke-opacity:1; 
stroke-linecap:round; stroke-linejoin:round;">
</g>
<g style="fill:#000000; fill-opacity:1.0; 
stroke:#000000; stroke-width:39.3701; stroke-opacity:1; 
stroke-linecap:round; stroke-linejoin:round;">
</g> 
</svg>
